<svg width="359" height="126" viewBox="0 0 359 126" fill="none" xmlns="http://www.w3.org/2000/svg">
<path d="M79 66.8958C79.1297 99.1123 105.377 125.514 137.62 125.514C169.943 125.514 196.239 99.2187 196.239 66.8958V58.6205C196.239 45.311 207.068 34.4818 220.378 34.4818C233.689 34.4818 244.516 45.311 244.516 58.6205C244.516 62.429 247.604 65.5172 251.413 65.5172H272.103C275.914 65.5172 279 62.429 279 58.6205C279 26.2975 252.704 0 220.38 0C188.057 0 161.759 26.2975 161.759 58.6205V66.8958C161.759 80.2072 150.93 91.0325 137.622 91.0325C124.313 91.0325 113.484 80.2072 113.484 66.8958C113.484 63.0873 110.396 59.999 106.587 59.999H85.8968C82.0882 60.001 79 63.0873 79 66.8958Z" fill="white"/>
<path d="M4.30469 90.8613V90.2168C4.30469 90.1973 4.32422 90.1191 4.36328 89.9824C4.40234 89.8457 4.45117 89.709 4.50977 89.5723C4.56836 89.416 4.61719 89.2793 4.65625 89.1621C4.69531 89.0254 4.71484 88.9375 4.71484 88.8984C4.73438 88.8203 4.75391 88.6348 4.77344 88.3418C4.8125 88.0293 4.85156 87.6973 4.89062 87.3457C4.92969 86.9941 4.95898 86.6523 4.97852 86.3203C5.01758 85.9688 5.03711 85.7148 5.03711 85.5586V80.168C5.03711 80.0508 5.04688 79.8945 5.06641 79.6992C5.10547 79.5039 5.1543 79.3184 5.21289 79.1426C5.29102 78.9473 5.37891 78.7812 5.47656 78.6445C5.59375 78.4883 5.73047 78.4102 5.88672 78.4102C6.23828 78.4102 6.50195 78.498 6.67773 78.6738C6.87305 78.8496 7.01953 79.0645 7.11719 79.3184C7.23438 79.5527 7.3125 79.8164 7.35156 80.1094C7.39062 80.4023 7.42969 80.666 7.46875 80.9004C7.76172 82.3652 8.28906 83.7422 9.05078 85.0312C9.83203 86.3203 10.8086 87.4922 11.9805 88.5469C12.0781 88.625 12.2051 88.7324 12.3613 88.8691C12.5371 89.0059 12.7031 89.1426 12.8594 89.2793C13.0547 89.4551 13.25 89.6309 13.4453 89.8066C13.543 89.8652 13.7188 89.9434 13.9727 90.041C14.2266 90.1191 14.5 90.207 14.793 90.3047C15.0859 90.4023 15.3594 90.4902 15.6133 90.5684C15.8672 90.6465 16.0527 90.6953 16.1699 90.7148C16.2285 90.7148 16.375 90.7246 16.6094 90.7441C16.8633 90.7441 17.127 90.7539 17.4004 90.7734C17.6738 90.7734 17.9277 90.7832 18.1621 90.8027C18.3965 90.8027 18.543 90.8125 18.6016 90.832C18.6406 90.832 18.7578 90.8516 18.9531 90.8906C19.168 90.9102 19.2852 90.9199 19.3047 90.9199H19.6855C19.9395 90.9199 20.1738 90.8711 20.3887 90.7734C20.623 90.6562 20.877 90.5684 21.1504 90.5098C21.4238 90.4316 21.6875 90.3828 21.9414 90.3633C22.1953 90.3242 22.4395 90.2266 22.6738 90.0703C23.0059 89.8359 23.3281 89.6211 23.6406 89.4258C23.9727 89.2109 24.2754 88.9863 24.5488 88.752C24.8223 88.5176 25.0664 88.2539 25.2812 87.9609C25.5156 87.6484 25.7109 87.2871 25.8672 86.877C25.8672 86.8574 25.877 86.7793 25.8965 86.6426C25.916 86.5059 25.9258 86.3691 25.9258 86.2324C25.9453 86.0762 25.9648 85.9395 25.9844 85.8223C26.0039 85.6855 26.0137 85.5977 26.0137 85.5586C26.0332 85.5195 26.0723 85.4316 26.1309 85.2949C26.209 85.1582 26.2871 85.0215 26.3652 84.8848C26.4629 84.7285 26.541 84.5918 26.5996 84.4746C26.6777 84.3379 26.7168 84.2598 26.7168 84.2402C26.7168 84.2012 26.7266 84.0449 26.7461 83.7715C26.7656 83.498 26.7754 83.2832 26.7754 83.127C26.7754 82.4434 26.668 81.7891 26.4531 81.1641C26.2383 80.5391 25.9453 79.9629 25.5742 79.4355C25.2227 78.8887 24.793 78.4004 24.2852 77.9707C23.7969 77.5215 23.2598 77.1406 22.6738 76.8281C22.6348 76.7891 22.4883 76.7598 22.2344 76.7402C21.9805 76.7012 21.834 76.6621 21.7949 76.623C21.7363 76.6035 21.5898 76.5449 21.3555 76.4473C21.1406 76.3301 20.9062 76.2129 20.6523 76.0957C20.3984 75.959 20.1543 75.8418 19.9199 75.7441C19.7051 75.627 19.5684 75.5488 19.5098 75.5098C19.5098 75.4902 19.4414 75.4609 19.3047 75.4219C19.1875 75.3828 19.0508 75.3438 18.8945 75.3047C18.7383 75.2461 18.582 75.1973 18.4258 75.1582C18.2891 75.0996 18.2109 75.0703 18.1914 75.0703C18.1719 75.0508 18.0938 75.0117 17.957 74.9531C17.8398 74.875 17.7031 74.8066 17.5469 74.748C17.4102 74.6895 17.2734 74.6406 17.1367 74.6016C17.0195 74.543 16.9316 74.5137 16.873 74.5137C16.7168 74.4746 16.5312 74.4453 16.3164 74.4258C16.1211 74.4062 16.0039 74.3965 15.9648 74.3965C14.8711 74.1426 13.709 73.7812 12.4785 73.3125C11.2676 72.8242 10.2031 72.2871 9.28516 71.7012C9.24609 71.6816 9.17773 71.623 9.08008 71.5254C9.00195 71.4277 8.91406 71.3301 8.81641 71.2324C8.71875 71.1152 8.62109 71.0078 8.52344 70.9102C8.44531 70.8125 8.39648 70.7637 8.37695 70.7637C8.33789 70.7637 8.25 70.7344 8.11328 70.6758C7.97656 70.6172 7.9082 70.5781 7.9082 70.5586C7.86914 70.5586 7.83008 70.5293 7.79102 70.4707C7.75195 70.3926 7.71289 70.3535 7.67383 70.3535C7.6543 70.3145 7.5957 70.2168 7.49805 70.0605C7.41992 69.9043 7.33203 69.7383 7.23438 69.5625C7.13672 69.3867 7.03906 69.2207 6.94141 69.0645C6.86328 68.9082 6.81445 68.8105 6.79492 68.7715C6.48242 68.2637 6.15039 67.7559 5.79883 67.248C5.44727 66.7402 5.19336 66.2031 5.03711 65.6367C4.88086 65.0117 4.75391 64.3574 4.65625 63.6738C4.55859 62.9902 4.50977 62.3457 4.50977 61.7402C4.50977 61.291 4.51953 60.8125 4.53906 60.3047C4.55859 59.7969 4.61719 59.3379 4.71484 58.9277C4.75391 58.8887 4.85156 58.7812 5.00781 58.6055C5.16406 58.4102 5.24219 58.2832 5.24219 58.2246C5.28125 58.166 5.33008 58.0879 5.38867 57.9902C5.44727 57.873 5.50586 57.7559 5.56445 57.6387C5.64258 57.5215 5.71094 57.4238 5.76953 57.3457C5.82812 57.248 5.86719 57.1895 5.88672 57.1699C6.64844 55.8223 7.58594 54.6504 8.69922 53.6543C9.8125 52.6582 11.1211 51.9355 12.625 51.4863C12.6641 51.4863 12.7715 51.4668 12.9473 51.4277C13.123 51.3691 13.2402 51.3398 13.2988 51.3398C13.377 51.3008 13.5234 51.252 13.7383 51.1934C13.9727 51.1152 14.1094 51.0762 14.1484 51.0762C14.168 51.0762 14.2656 51.0762 14.4414 51.0762C14.6172 51.0566 14.8125 51.0469 15.0273 51.0469C15.2617 51.0273 15.4961 51.0176 15.7305 51.0176C15.9648 50.998 16.1504 50.9883 16.2871 50.9883C16.3652 50.9883 16.4922 50.998 16.668 51.0176C16.8438 51.0371 17.0293 51.0566 17.2246 51.0762C17.4395 51.0762 17.6348 51.0859 17.8105 51.1055C18.0059 51.125 18.1523 51.1348 18.25 51.1348C18.3867 51.1738 18.543 51.2227 18.7188 51.2812C18.9141 51.3203 19.0312 51.3398 19.0703 51.3398C19.4023 51.3594 19.6855 51.3789 19.9199 51.3984C20.1738 51.3984 20.4277 51.4277 20.6816 51.4863C20.9355 51.5254 21.209 51.6035 21.502 51.7207C21.8145 51.8184 22.2051 51.9746 22.6738 52.1895C23.1621 52.4238 23.6113 52.6484 24.0215 52.8633C24.4512 53.0781 24.7441 53.2246 24.9004 53.3027C24.9395 53.3418 25.0566 53.4297 25.252 53.5664C25.4473 53.6836 25.5449 53.7715 25.5449 53.8301H25.9551C26.1699 53.8301 26.3555 53.7812 26.5117 53.6836C26.668 53.5859 26.8047 53.4688 26.9219 53.332C27.0586 53.1953 27.1855 53.0488 27.3027 52.8926C27.4199 52.7168 27.5469 52.5703 27.6836 52.4531C27.7227 52.3945 27.8008 52.2871 27.918 52.1309C28.0547 51.9746 28.2012 51.8086 28.3574 51.6328C28.5332 51.457 28.6895 51.3008 28.8262 51.1641C28.9824 51.0078 29.0898 50.9004 29.1484 50.8418H29.4121C29.627 50.8418 29.7832 50.9395 29.8809 51.1348C29.9785 51.3301 30.0371 51.5352 30.0566 51.75C30.0566 51.7695 30.0664 51.877 30.0859 52.0723C30.1055 52.248 30.125 52.4531 30.1445 52.6875C30.1641 52.9219 30.1836 53.166 30.2031 53.4199C30.2227 53.6543 30.2422 53.8398 30.2617 53.9766V54.1816V54.2402C30.2031 54.6504 30.1445 55.2266 30.0859 55.9688C30.0273 56.7109 29.959 57.4531 29.8809 58.1953C29.8223 58.9375 29.7637 59.6016 29.7051 60.1875C29.666 60.7539 29.6367 61.0859 29.6172 61.1836C29.5586 61.6914 29.4121 62.1602 29.1777 62.5898C28.9629 63 28.5625 63.2051 27.9766 63.2051C27.8594 63.2051 27.6738 63.1953 27.4199 63.1758C27.1855 63.1562 27.0195 63.0781 26.9219 62.9414C26.6875 62.6484 26.4922 62.3359 26.3359 62.0039C26.1992 61.6719 26.0625 61.3496 25.9258 61.0371C25.7891 60.7051 25.6426 60.373 25.4863 60.041C25.3301 59.709 25.1348 59.3965 24.9004 59.1035C24.627 58.7715 24.3438 58.4199 24.0508 58.0488C23.7773 57.6777 23.4844 57.3164 23.1719 56.9648C22.8594 56.5938 22.5371 56.2422 22.2051 55.9102C21.873 55.5781 21.5215 55.2852 21.1504 55.0312C21.1113 55.0312 21.043 55.0215 20.9453 55.002C20.8672 54.9629 20.7793 54.9238 20.6816 54.8848C20.584 54.8457 20.4863 54.8066 20.3887 54.7676C20.3105 54.7285 20.2617 54.6992 20.2422 54.6797C20.2031 54.6602 20.1348 54.6113 20.0371 54.5332C19.9395 54.4355 19.8223 54.3379 19.6855 54.2402C19.5684 54.123 19.4512 54.0254 19.334 53.9473C19.2168 53.8691 19.1289 53.8301 19.0703 53.8301C19.0703 53.8105 19.0215 53.791 18.9238 53.7715C18.8262 53.7324 18.709 53.7031 18.5723 53.6836C18.4355 53.6641 18.2891 53.6445 18.1328 53.625C17.9961 53.6055 17.8887 53.5859 17.8105 53.5664C17.7129 53.5469 17.5566 53.5273 17.3418 53.5078C17.1465 53.4883 16.9414 53.4688 16.7266 53.4492C16.5117 53.4102 16.3066 53.3809 16.1113 53.3613C15.9355 53.3418 15.8086 53.3223 15.7305 53.3027H15.4082C14.2559 53.3027 13.2891 53.5371 12.5078 54.0059C11.7461 54.4551 11.0625 55.1191 10.457 55.998C10.2031 56.3496 9.97852 56.6426 9.7832 56.877C9.58789 57.0918 9.42188 57.3066 9.28516 57.5215C9.16797 57.7168 9.08008 57.9512 9.02148 58.2246C8.96289 58.4785 8.93359 58.8203 8.93359 59.25C8.93359 59.3477 8.93359 59.4551 8.93359 59.5723C8.93359 59.6699 8.94336 59.7676 8.96289 59.8652C8.98242 59.9824 9.00195 60.0996 9.02148 60.2168C9.04102 60.3145 9.10938 60.4902 9.22656 60.7441C9.34375 60.998 9.48047 61.2715 9.63672 61.5645C9.79297 61.8379 9.93945 62.1113 10.0762 62.3848C10.2324 62.6387 10.3594 62.8242 10.457 62.9414C10.457 62.9805 10.5059 63.0586 10.6035 63.1758C10.7207 63.293 10.8477 63.4297 10.9844 63.5859C11.1211 63.7227 11.248 63.8594 11.3652 63.9961C11.502 64.1133 11.5996 64.2012 11.6582 64.2598C12.4395 64.9629 13.2891 65.5391 14.207 65.9883C15.1445 66.418 16.0918 66.7891 17.0488 67.1016C18.0254 67.3945 19.002 67.668 19.9785 67.9219C20.9746 68.1562 21.9414 68.4395 22.8789 68.7715C23.0352 69.0254 23.25 69.1719 23.5234 69.2109C23.7969 69.2305 24.0703 69.3086 24.3438 69.4453C24.5 69.5625 24.7051 69.6895 24.959 69.8262C25.2129 69.9629 25.4668 70.1094 25.7207 70.2656C25.9941 70.4219 26.2578 70.5879 26.5117 70.7637C26.7852 70.9199 27.0098 71.0859 27.1855 71.2617C27.2441 71.3008 27.3223 71.3691 27.4199 71.4668C27.5176 71.5645 27.625 71.6719 27.7422 71.7891C27.8594 71.8867 27.9668 71.9844 28.0645 72.082C28.1621 72.1797 28.2402 72.2578 28.2988 72.3164C28.2988 72.375 28.3672 72.4922 28.5039 72.668C28.6406 72.8438 28.7188 72.9512 28.7383 72.9902C29.1875 73.498 29.6465 73.9961 30.1152 74.4844C30.6035 74.9531 30.9746 75.5195 31.2285 76.1836C31.2676 76.3398 31.3164 76.5254 31.375 76.7402C31.4531 76.9551 31.5312 77.1699 31.6094 77.3848C31.6875 77.6191 31.7852 77.873 31.9023 78.1465C31.9805 78.5566 32.0293 78.957 32.0488 79.3477C32.0684 79.7188 32.0781 80.0996 32.0781 80.4902C32.0781 80.998 32.0586 81.5059 32.0195 82.0137C31.9805 82.502 31.9414 83 31.9023 83.5078C31.7266 83.9375 31.5605 84.3379 31.4043 84.709C31.248 85.0801 31.0918 85.4414 30.9355 85.793C30.7793 86.1445 30.6133 86.5059 30.4375 86.877C30.2617 87.2285 30.0664 87.5996 29.8516 87.9902C29.8125 88.0098 29.7344 88.0586 29.6172 88.1367C29.5195 88.1953 29.4512 88.2441 29.4121 88.2832C29.0996 88.5566 28.8262 88.8105 28.5918 89.0449C28.3574 89.2793 28.123 89.5137 27.8887 89.748C27.6738 89.9824 27.4297 90.2168 27.1562 90.4512C26.9023 90.6855 26.5898 90.9297 26.2188 91.1836C25.5938 91.6133 24.9004 91.9746 24.1387 92.2676C23.377 92.541 22.5957 92.7852 21.7949 93C21.4043 93.0781 21.0918 93.1172 20.8574 93.1172C20.6426 93.1172 20.3691 93.1953 20.0371 93.3516C19.9395 93.3516 19.7734 93.3516 19.5391 93.3516C19.3242 93.3711 19.0996 93.3809 18.8652 93.3809C18.6309 93.3809 18.416 93.3809 18.2207 93.3809C18.0254 93.4004 17.8887 93.4102 17.8105 93.4102C16.873 93.4102 15.9453 93.3906 15.0273 93.3516C14.1289 93.332 13.2402 93.2148 12.3613 93C11.9902 92.8633 11.5898 92.7461 11.1602 92.6484C10.75 92.5312 10.3301 92.3945 9.90039 92.2383C9.8418 92.2188 9.7832 92.1895 9.72461 92.1504C9.60742 92.1113 9.5293 92.0723 9.49023 92.0332C9.4707 92.0332 9.41211 92.0234 9.31445 92.0039C9.2168 91.9844 9.10938 91.9746 8.99219 91.9746C8.875 91.9551 8.75781 91.9355 8.64062 91.916C8.52344 91.8965 8.43555 91.8867 8.37695 91.8867H8.25977H8.05469C7.97656 91.9258 7.82031 92.0039 7.58594 92.1211C7.35156 92.2383 7.08789 92.375 6.79492 92.5312C6.52148 92.668 6.24805 92.7949 5.97461 92.9121C5.7207 93.0293 5.53516 93.1074 5.41797 93.1465C5.33984 93.2051 5.21289 93.2539 5.03711 93.293C4.86133 93.332 4.75391 93.3516 4.71484 93.3516C4.63672 93.3516 4.56836 93.2441 4.50977 93.0293C4.4707 92.8145 4.43164 92.5703 4.39258 92.2969C4.37305 92.0039 4.35352 91.7207 4.33398 91.4473C4.31445 91.1738 4.30469 90.9785 4.30469 90.8613ZM44.1777 81.3984C44.1777 81.6719 44.3047 81.8672 44.5586 81.9844C44.8125 82.1016 45.0469 82.1602 45.2617 82.1602H46.8145C47.0293 82.1602 47.2441 82.1699 47.459 82.1895C47.6738 82.209 47.8887 82.2188 48.1035 82.2188C48.6113 82.2188 49.0508 82.1406 49.4219 81.9844C49.793 81.8086 49.9785 81.4277 49.9785 80.8418V80.3438C49.8027 79.4453 49.5391 78.5566 49.1875 77.6777C48.8359 76.7793 48.5039 75.9102 48.1914 75.0703C48.1523 74.9336 48.0938 74.7871 48.0156 74.6309C47.957 74.4551 47.8789 74.2988 47.7812 74.1621C47.6836 74.0059 47.5762 73.8789 47.459 73.7812C47.3418 73.6836 47.2148 73.6348 47.0781 73.6348C46.8242 73.6348 46.6191 73.7422 46.4629 73.957C46.3262 74.1719 46.209 74.4258 46.1113 74.7188C46.0332 75.0117 45.9648 75.3145 45.9062 75.627C45.8477 75.9199 45.7793 76.1543 45.7012 76.3301C45.6426 76.5059 45.5352 76.8184 45.3789 77.2676C45.2422 77.7168 45.0957 78.1953 44.9395 78.7031C44.7832 79.1914 44.627 79.6602 44.4707 80.1094C44.334 80.5586 44.2363 80.8711 44.1777 81.0469V81.3984ZM37.3516 92.8535H37.2051C37.166 92.8535 37.0684 92.873 36.9121 92.9121C36.7559 92.9316 36.5801 92.9609 36.3848 93C36.1895 93.0195 36.0039 93.0391 35.8281 93.0586C35.6719 93.0781 35.5742 93.0879 35.5352 93.0879H35.3594C35.2422 93.0879 35.1445 93.0391 35.0664 92.9414C34.9883 92.8438 34.9297 92.7363 34.8906 92.6191C34.8516 92.4824 34.832 92.3555 34.832 92.2383C34.8125 92.1016 34.8027 92.0137 34.8027 91.9746V91.8867C34.8027 91.5352 34.9199 91.3008 35.1543 91.1836C35.4082 91.0664 35.6523 90.959 35.8867 90.8613C35.9258 90.8613 36.0234 90.832 36.1797 90.7734C36.3359 90.6953 36.502 90.6172 36.6777 90.5391C36.873 90.4609 37.0488 90.3926 37.2051 90.334C37.3613 90.2559 37.459 90.1973 37.498 90.1582C37.5176 90.1387 37.5762 90.0898 37.6738 90.0117C37.7715 89.9141 37.8789 89.8066 37.9961 89.6895C38.1133 89.5723 38.2207 89.4551 38.3184 89.3379C38.4355 89.2207 38.5332 89.123 38.6113 89.0449C38.6309 89.0059 38.6602 88.957 38.6992 88.8984C38.7773 88.7812 38.8164 88.6934 38.8164 88.6348C38.8164 88.5957 38.8359 88.4785 38.875 88.2832C38.9336 88.0879 38.9824 87.9707 39.0215 87.9316C39.5488 86.877 40.0762 85.8125 40.6035 84.7383C41.1309 83.6445 41.6289 82.5508 42.0977 81.457C42.1562 81.3984 42.2344 81.2324 42.332 80.959C42.4492 80.666 42.5273 80.4609 42.5664 80.3438C42.5859 80.3047 42.6348 80.1875 42.7129 79.9922C42.791 79.7773 42.8691 79.5625 42.9473 79.3477C43.0254 79.1133 43.0938 78.8984 43.1523 78.7031C43.2305 78.5078 43.2695 78.3906 43.2695 78.3516C43.2891 78.293 43.3477 78.1562 43.4453 77.9414C43.5625 77.7266 43.6797 77.4922 43.7969 77.2383C43.9336 76.9844 44.0508 76.7402 44.1484 76.5059C44.2656 76.2715 44.3438 76.125 44.3828 76.0664C44.5391 75.7148 44.6855 75.4023 44.8223 75.1289C44.9785 74.8359 45.125 74.4941 45.2617 74.1035C45.3398 73.9473 45.4375 73.7715 45.5547 73.5762C45.6914 73.3809 45.8184 73.1758 45.9355 72.9609C46.0527 72.7266 46.1504 72.502 46.2285 72.2871C46.3262 72.0723 46.375 71.8672 46.375 71.6719V71.2617C46.375 71.1836 46.3457 71.0566 46.2871 70.8809C46.248 70.6855 46.2285 70.5781 46.2285 70.5586C46.2285 70.4219 46.3066 70.2461 46.4629 70.0312C46.6191 69.8164 46.7363 69.6797 46.8145 69.6211C46.8535 69.6016 46.9414 69.5625 47.0781 69.5039C47.2344 69.4453 47.3906 69.377 47.5469 69.2988C47.7031 69.2207 47.8398 69.1523 47.957 69.0938C48.0938 69.0352 48.1719 68.9961 48.1914 68.9766C48.2305 68.9375 48.3086 68.8594 48.4258 68.7422C48.543 68.625 48.6699 68.498 48.8066 68.3613C48.9629 68.2051 49.0996 68.0586 49.2168 67.9219C49.3535 67.7656 49.4512 67.6582 49.5098 67.5996C49.5293 67.5801 49.5684 67.5215 49.627 67.4238C49.6855 67.3066 49.7539 67.1992 49.832 67.1016C49.9102 66.9844 49.998 66.8867 50.0957 66.8086C50.1934 66.7109 50.3008 66.6719 50.418 66.6914C50.6133 66.75 50.7793 66.9258 50.916 67.2188C51.0723 67.5117 51.1992 67.834 51.2969 68.1855C51.4141 68.5176 51.5117 68.8496 51.5898 69.1816C51.668 69.4941 51.7363 69.709 51.7949 69.8262C51.8145 69.9238 51.8438 70.0605 51.8828 70.2363C51.9414 70.4121 51.9902 70.5879 52.0293 70.7637C52.0879 70.9395 52.1367 71.0957 52.1758 71.2324C52.2148 71.3691 52.2344 71.4473 52.2344 71.4668C52.2539 71.5254 52.2832 71.6621 52.3223 71.877C52.3613 72.0918 52.4004 72.3262 52.4395 72.5801C52.498 72.834 52.5469 73.0684 52.5859 73.2832C52.625 73.4785 52.6445 73.5957 52.6445 73.6348C52.6641 73.6934 52.7129 73.8789 52.791 74.1914C52.8887 74.5039 52.9961 74.8652 53.1133 75.2754C53.2305 75.6855 53.3477 76.0957 53.4648 76.5059C53.582 76.8965 53.6797 77.209 53.7578 77.4434C53.9141 77.9707 54.1094 78.498 54.3438 79.0254C54.5781 79.5332 54.7539 80.0508 54.8711 80.5781C54.9688 81.0273 55.0273 81.3887 55.0469 81.6621C55.0859 81.916 55.1836 82.2285 55.3398 82.5996C55.3594 82.6387 55.3984 82.7266 55.457 82.8633C55.5352 82.9805 55.6133 83.1172 55.6914 83.2734C55.7695 83.4102 55.8379 83.5469 55.8965 83.6836C55.9551 83.8203 55.9941 83.918 56.0137 83.9766C56.0137 84.0156 56.0234 84.084 56.043 84.1816C56.0625 84.2793 56.082 84.3965 56.1016 84.5332C56.1406 84.6504 56.1699 84.7676 56.1895 84.8848C56.209 84.9824 56.2285 85.0508 56.248 85.0898C56.248 85.1094 56.2676 85.1777 56.3066 85.2949C56.3457 85.3926 56.3945 85.5098 56.4531 85.6465C56.5117 85.7637 56.5605 85.8809 56.5996 85.998C56.6582 86.0957 56.6973 86.1445 56.7168 86.1445C56.8145 86.6523 56.9414 87.1992 57.0977 87.7852C57.2539 88.3711 57.498 88.8887 57.8301 89.3379C57.9863 89.5723 58.2695 89.7676 58.6797 89.9238C59.1094 90.0801 59.5391 90.2363 59.9688 90.3926C60.418 90.5488 60.8086 90.7246 61.1406 90.9199C61.4727 91.1152 61.6387 91.3691 61.6387 91.6816C61.6387 92.0137 61.5508 92.2773 61.375 92.4727C61.2188 92.6484 61.0137 92.7852 60.7598 92.8828C60.5059 92.9805 60.2227 93.0391 59.9102 93.0586C59.5977 93.0781 59.3047 93.0879 59.0312 93.0879H58.4453H57.8301C57.5176 93.0879 56.9707 93.0781 56.1895 93.0586C55.4082 93.0391 54.5684 93.0195 53.6699 93C52.791 92.9609 51.9512 92.9316 51.1504 92.9121C50.3691 92.873 49.8223 92.8535 49.5098 92.8535C49.2949 92.7754 49.168 92.6875 49.1289 92.5898C49.0898 92.4727 49.0703 92.3066 49.0703 92.0918V91.8867C49.0703 91.8477 49.0801 91.8086 49.0996 91.7695C49.2754 91.3984 49.5195 91.1543 49.832 91.0371C50.1445 90.9004 50.4668 90.793 50.7988 90.7148C51.1504 90.6367 51.4922 90.5488 51.8242 90.4512C52.1562 90.334 52.4297 90.0996 52.6445 89.748L52.7031 89.543L52.6445 89.3379C52.625 89.1621 52.5762 88.918 52.498 88.6055C52.4395 88.293 52.3711 87.9805 52.293 87.668C52.2344 87.3555 52.1758 87.082 52.1172 86.8477C52.0586 86.5938 52.0195 86.4473 52 86.4082C51.9609 86.3691 51.9023 86.2715 51.8242 86.1152C51.7461 85.959 51.6582 85.7832 51.5605 85.5879C51.4824 85.3926 51.3945 85.207 51.2969 85.0312C51.2188 84.8359 51.1504 84.6895 51.0918 84.5918C50.877 84.2598 50.5742 84.0645 50.1836 84.0059C49.8125 83.9277 49.4414 83.8887 49.0703 83.8887H48.4844C47.7812 83.8887 47.1172 83.9375 46.4922 84.0352C45.8867 84.1328 45.2422 84.1816 44.5586 84.1816C44.4219 84.1816 44.2852 84.1719 44.1484 84.1523C44.0117 84.1328 43.875 84.123 43.7383 84.123C43.6016 84.2598 43.5332 84.3672 43.5332 84.4453C43.4941 84.4648 43.4453 84.543 43.3867 84.6797C43.3477 84.7969 43.2988 84.9336 43.2402 85.0898C43.2012 85.2266 43.1523 85.3633 43.0938 85.5C43.0547 85.6172 43.0352 85.6855 43.0352 85.7051C43.0352 85.7441 42.9668 85.8613 42.8301 86.0566C42.7129 86.252 42.625 86.3691 42.5664 86.4082C42.332 86.8965 42.1953 87.4043 42.1562 87.9316C42.1172 88.4395 42.0977 88.9668 42.0977 89.5137C42.0977 89.8262 42.1953 90.0605 42.3906 90.2168C42.5859 90.3535 42.8301 90.4609 43.123 90.5391C43.416 90.6172 43.7285 90.6855 44.0605 90.7441C44.3926 90.7832 44.7051 90.8516 44.998 90.9492C45.291 91.0273 45.5352 91.1543 45.7305 91.3301C45.9258 91.5059 46.0234 91.7598 46.0234 92.0918C46.0234 92.7363 45.7207 93.1367 45.1152 93.293C45.0371 93.293 44.8906 93.2832 44.6758 93.2637C44.4805 93.2441 44.2754 93.2246 44.0605 93.2051C43.8457 93.1855 43.6406 93.166 43.4453 93.1465C43.25 93.127 43.1133 93.1074 43.0352 93.0879H40.9551H40.1348C40.0762 93.0879 39.9199 93.0781 39.666 93.0586C39.4121 93.0391 39.1289 93.0195 38.8164 93C38.5039 92.9609 38.2207 92.9316 37.9668 92.9121C37.7129 92.873 37.5566 92.8535 37.498 92.8535H37.3516ZM64.8613 92.0918C64.8613 91.7793 64.9688 91.5352 65.1836 91.3594C65.3984 91.1641 65.6621 91.0176 65.9746 90.9199C66.2871 90.8223 66.6094 90.7539 66.9414 90.7148C67.2734 90.6562 67.5469 90.6074 67.7617 90.5684C67.8203 90.5488 67.918 90.5293 68.0547 90.5098C68.2109 90.4902 68.3672 90.4805 68.5234 90.4805C68.6992 90.4609 68.8555 90.4414 68.9922 90.4219C69.1484 90.4023 69.2461 90.3828 69.2852 90.3633L69.5781 89.4551C69.5781 89.377 69.5781 89.0938 69.5781 88.6055C69.5977 88.0977 69.6074 87.5215 69.6074 86.877C69.6074 86.2324 69.6074 85.5977 69.6074 84.9727C69.627 84.3281 69.6367 83.8105 69.6367 83.4199C69.6367 83.0684 69.6367 82.6094 69.6367 82.043C69.6367 81.4766 69.627 80.8711 69.6074 80.2266C69.6074 79.582 69.6074 78.9277 69.6074 78.2637C69.6074 77.5996 69.5977 76.9941 69.5781 76.4473C69.5781 75.8809 69.5781 75.4121 69.5781 75.041C69.5781 74.6504 69.5781 74.4062 69.5781 74.3086C69.5781 74.1719 69.5586 73.9277 69.5195 73.5762C69.5 73.2051 69.4707 72.8242 69.4316 72.4336C69.4121 72.0234 69.3828 71.6426 69.3438 71.291C69.3047 70.9199 69.2852 70.6758 69.2852 70.5586C69.2656 70.3242 69.2363 70.041 69.1973 69.709C69.1582 69.377 69.1094 69.0547 69.0508 68.7422C69.0117 68.4297 68.9727 68.166 68.9336 67.9512C68.8945 67.7168 68.875 67.5898 68.875 67.5703L68.3477 67.1602C68.25 67.1602 68.0742 67.1504 67.8203 67.1309C67.5859 67.1113 67.332 67.0918 67.0586 67.0723C66.7852 67.0332 66.5215 67.0039 66.2676 66.9844C66.0137 66.9648 65.8477 66.9551 65.7695 66.9551C65.5547 66.877 65.3691 66.7695 65.2129 66.6328C65.0762 66.4766 65.0078 66.3105 65.0078 66.1348C65.0078 65.8613 65.0957 65.6367 65.2715 65.4609C65.4668 65.2656 65.7012 65.1094 65.9746 64.9922C66.248 64.875 66.5312 64.7969 66.8242 64.7578C67.1172 64.6992 67.3711 64.6699 67.5859 64.6699C68.0547 64.6699 68.4746 64.7188 68.8457 64.8164C69.2363 64.8945 69.6465 64.9336 70.0762 64.9336C70.1934 64.9336 70.3105 64.9336 70.4277 64.9336C70.5645 64.9336 70.7207 64.9238 70.8965 64.9043C71.0723 64.8848 71.2969 64.8555 71.5703 64.8164C71.8438 64.7773 72.1953 64.7285 72.625 64.6699H74.2363C74.627 64.6699 74.9688 64.6602 75.2617 64.6406C75.5742 64.6016 75.8574 64.5625 76.1113 64.5234C76.3848 64.4844 76.6484 64.4551 76.9023 64.4355C77.1562 64.3965 77.4199 64.377 77.6934 64.377C77.752 64.377 77.8301 64.3867 77.9277 64.4062C78.0449 64.4062 78.1523 64.4062 78.25 64.4062H78.6602C78.6797 64.4453 78.7871 64.4844 78.9824 64.5234C79.0605 64.543 79.1484 64.5527 79.2461 64.5527H79.5098H79.7148C79.7344 64.5527 79.8125 64.5527 79.9492 64.5527C80.0859 64.5527 80.2324 64.543 80.3887 64.5234C80.5449 64.5039 80.6914 64.4941 80.8281 64.4941C80.9844 64.4746 81.082 64.4453 81.1211 64.4062H83.5234H85.7793C85.8184 64.4453 85.8965 64.4746 86.0137 64.4941C86.1504 64.5137 86.2871 64.5332 86.4238 64.5527C86.5801 64.5527 86.7266 64.5723 86.8633 64.6113C87 64.6309 87.0977 64.6504 87.1562 64.6699C87.2539 64.709 87.4102 64.7578 87.625 64.8164C87.8398 64.875 87.9766 64.9824 88.0352 65.1387C88.0742 65.7637 88.1621 66.3691 88.2988 66.9551C88.4551 67.5215 88.5332 68.1074 88.5332 68.7129C88.5332 68.7715 88.5234 68.8887 88.5039 69.0645C88.5039 69.2402 88.4746 69.3281 88.416 69.3281C88.416 69.4062 88.3965 69.5527 88.3574 69.7676C88.3379 69.9824 88.3086 70.207 88.2695 70.4414C88.2305 70.6758 88.1914 70.9004 88.1523 71.1152C88.1133 71.3301 88.0742 71.4766 88.0352 71.5547L87.8594 71.6719C87.8398 71.6719 87.8008 71.6523 87.7422 71.6133C87.7031 71.5742 87.6641 71.5547 87.625 71.5547C87.2148 71.3789 86.873 71.1641 86.5996 70.9102C86.3457 70.6367 86.1211 70.3438 85.9258 70.0312C85.75 69.7188 85.5742 69.3965 85.3984 69.0645C85.2227 68.7129 85.0176 68.3809 84.7832 68.0684C84.4902 67.6973 84.2168 67.3945 83.9629 67.1602C83.709 66.9258 83.4355 66.7402 83.1426 66.6035C82.8496 66.4473 82.5273 66.3398 82.1758 66.2812C81.8438 66.2227 81.4434 66.1934 80.9746 66.1934C79.959 66.1934 78.9531 66.2422 77.957 66.3398C76.9609 66.418 75.9551 66.5352 74.9395 66.6914C74.7246 66.9062 74.5879 67.1211 74.5293 67.3359C74.4707 67.5312 74.4414 67.7363 74.4414 67.9512C74.4414 68.127 74.4512 68.3125 74.4707 68.5078C74.4902 68.7031 74.5 68.9082 74.5 69.123C74.4609 69.3184 74.4316 69.6504 74.4121 70.1191C74.3926 70.5684 74.373 71.0566 74.3535 71.584C74.334 72.0918 74.3145 72.5801 74.2949 73.0488C74.2754 73.5176 74.2559 73.8496 74.2363 74.0449C74.1387 74.1426 74.0703 74.2891 74.0312 74.4844C73.9922 74.6797 73.9727 74.875 73.9727 75.0703V75.6562C74.0117 75.6562 74.0605 75.7148 74.1191 75.832C74.1973 75.9492 74.2363 76.0273 74.2363 76.0664C74.2949 76.2812 74.334 76.4766 74.3535 76.6523C74.3926 76.8281 74.4414 76.9844 74.5 77.1211C74.5586 77.2578 74.6465 77.3652 74.7637 77.4434C74.8809 77.5215 75.0762 77.5703 75.3496 77.5898L75.7598 77.6484C75.8574 77.668 75.9551 77.6875 76.0527 77.707C76.1699 77.707 76.2578 77.707 76.3164 77.707C76.8047 77.707 77.2832 77.668 77.752 77.5898C78.2402 77.4922 78.709 77.4238 79.1582 77.3848C79.3535 77.3652 79.5977 77.3555 79.8906 77.3555C80.2031 77.3359 80.5059 77.3066 80.7988 77.2676C81.1504 77.248 81.502 77.2188 81.8535 77.1797L82.293 76.7402L82.9082 74.5137C83.0254 74.416 83.1035 74.3184 83.1426 74.2207C83.2012 74.1035 83.2598 73.9961 83.3184 73.8984C83.377 73.8008 83.4453 73.7227 83.5234 73.6641C83.6211 73.6055 83.748 73.5762 83.9043 73.5762C84.0605 73.5762 84.1973 73.6641 84.3145 73.8398C84.4316 74.0156 84.5 74.1719 84.5195 74.3086C84.5391 74.4062 84.5586 74.5918 84.5781 74.8652C84.5977 75.1387 84.6172 75.4316 84.6367 75.7441C84.6562 76.0371 84.6758 76.3203 84.6953 76.5938C84.7148 76.8672 84.7441 77.0625 84.7832 77.1797C84.7832 77.2188 84.7734 77.3359 84.7539 77.5312C84.7344 77.7266 84.7246 77.9121 84.7246 78.0879C84.7246 78.3027 84.7441 78.4199 84.7832 78.4395C84.7832 78.4785 84.8027 78.5762 84.8418 78.7324C84.9004 78.8887 84.9297 78.9863 84.9297 79.0254C85.0273 79.4746 85.125 79.9629 85.2227 80.4902C85.3398 81.0176 85.3984 81.5254 85.3984 82.0137C85.3984 82.1699 85.3887 82.3262 85.3691 82.4824C85.3691 82.6387 85.3398 82.7949 85.2812 82.9512C85.2422 83.0879 85.1738 83.2051 85.0762 83.3027C84.9785 83.3809 84.832 83.4199 84.6367 83.4199C84.2656 83.4199 83.9824 83.2637 83.7871 82.9512C83.6113 82.6387 83.4551 82.2871 83.3184 81.8965C83.1816 81.4863 83.0352 81.0957 82.8789 80.7246C82.7422 80.334 82.5469 80.0703 82.293 79.9336H79.7734C79.0117 79.8359 78.2305 79.6895 77.4297 79.4941C76.6289 79.2793 75.8184 79.1719 74.998 79.1719C74.666 79.1719 74.4512 79.2988 74.3535 79.5527C74.2754 79.7871 74.2363 80.0508 74.2363 80.3438C74.2363 80.3828 74.2461 80.5 74.2656 80.6953C74.2852 80.8711 74.3047 81.0762 74.3242 81.3105C74.3438 81.5254 74.3633 81.7305 74.3828 81.9258C74.4219 82.1211 74.4609 82.248 74.5 82.3066V88.0781V88.2832C74.5 88.4004 74.5098 88.5371 74.5293 88.6934C74.5684 88.8496 74.6074 89.0059 74.6465 89.1621C74.6855 89.3184 74.7246 89.4648 74.7637 89.6016C74.8223 89.7188 74.8809 89.8066 74.9395 89.8652C74.959 89.8652 75.0273 89.9043 75.1445 89.9824C75.2812 90.0605 75.4277 90.1484 75.584 90.2461C75.7402 90.3438 75.8965 90.4414 76.0527 90.5391C76.209 90.6367 76.3262 90.7148 76.4043 90.7734C76.6973 90.8906 76.9902 90.959 77.2832 90.9785C77.5762 90.9785 77.8496 90.998 78.1035 91.0371C78.3574 91.0762 78.5625 91.1738 78.7188 91.3301C78.875 91.4668 78.9531 91.7402 78.9531 92.1504C78.9531 92.248 78.9434 92.375 78.9238 92.5312C78.9043 92.668 78.8164 92.7559 78.6602 92.7949C78.6211 92.8145 78.5332 92.834 78.3965 92.8535C78.2793 92.873 78.1523 92.8926 78.0156 92.9121C77.8789 92.9316 77.7422 92.9512 77.6055 92.9707C77.4883 92.9902 77.4004 93 77.3418 93H70.2227C70.1445 93.0195 69.9688 93.0391 69.6953 93.0586C69.4414 93.0781 69.1582 93.0977 68.8457 93.1172C68.5527 93.1367 68.2793 93.1562 68.0254 93.1758C67.7715 93.1953 67.6152 93.2051 67.5566 93.2051H67.4102H66.8828C66.6875 93.2051 66.4727 93.1953 66.2383 93.1758C66.0039 93.1562 65.7793 93.1074 65.5645 93.0293C65.3691 92.9512 65.2031 92.8438 65.0664 92.707C64.9297 92.5508 64.8613 92.3457 64.8613 92.0918ZM91.6973 93C91.6973 92.9219 91.6387 92.8145 91.5215 92.6777C91.4238 92.5215 91.3652 92.3945 91.3457 92.2969V92.1797V92.1504C91.3848 92.0723 91.4727 91.9551 91.6094 91.7988C91.7461 91.6426 91.8926 91.4863 92.0488 91.3301C92.2246 91.1543 92.3809 90.998 92.5176 90.8613C92.6738 90.7246 92.7812 90.627 92.8398 90.5684C92.8789 90.5293 93.0059 90.4902 93.2207 90.4512C93.4551 90.3926 93.6211 90.3633 93.7188 90.3633H95.7988C95.8574 90.3633 95.9355 90.3535 96.0332 90.334C96.1504 90.2949 96.2578 90.2656 96.3555 90.2461C96.4727 90.207 96.5703 90.168 96.6484 90.1289C96.7461 90.0898 96.7949 90.0703 96.7949 90.0703C97.0684 89.9336 97.2246 89.7188 97.2637 89.4258C97.3223 89.1133 97.3516 88.8203 97.3516 88.5469V88.0781C97.3516 87.3945 97.332 86.75 97.293 86.1445C97.2734 85.5195 97.2637 84.8652 97.2637 84.1816V83.9766C97.2637 83.918 97.2734 83.8105 97.293 83.6543C97.3125 83.498 97.332 83.332 97.3516 83.1562C97.3906 82.9609 97.4297 82.7852 97.4688 82.6289C97.5078 82.4727 97.5371 82.3652 97.5566 82.3066V69.5332C97.5566 69.1426 97.4883 68.8301 97.3516 68.5957C97.2148 68.3613 97.0391 68.1855 96.8242 68.0684C96.6094 67.9316 96.3555 67.8438 96.0625 67.8047C95.7891 67.7656 95.4961 67.7461 95.1836 67.7461H93.9824C93.4355 67.7461 92.9766 67.6777 92.6055 67.541C92.2344 67.4043 92.0488 67.0723 92.0488 66.5449C92.0488 66.3691 92.0488 66.2129 92.0488 66.0762C92.0684 65.9395 92.1172 65.7539 92.1953 65.5195C93.1328 65.5586 94.0508 65.5293 94.9492 65.4316C95.8477 65.334 96.7559 65.2852 97.6738 65.2852H98.4355C98.5137 65.3047 98.6699 65.3242 98.9043 65.3438C99.1582 65.3633 99.4121 65.3828 99.666 65.4023C99.9395 65.4219 100.193 65.4414 100.428 65.4609C100.662 65.4805 100.828 65.5 100.926 65.5195H114.695C115.281 65.5195 115.701 65.6758 115.955 65.9883C116.209 66.2812 116.395 66.6523 116.512 67.1016V68.7715V70.5C116.512 70.6172 116.492 70.832 116.453 71.1445C116.414 71.4375 116.365 71.7598 116.307 72.1113C116.268 72.4434 116.219 72.7754 116.16 73.1074C116.121 73.4199 116.092 73.6445 116.072 73.7812C116.033 73.8398 115.965 73.9277 115.867 74.0449C115.77 74.1426 115.701 74.1914 115.662 74.1914C115.662 74.2305 115.643 74.25 115.604 74.25H115.574H115.486C115.428 74.25 115.398 74.2305 115.398 74.1914C115.066 73.957 114.812 73.6934 114.637 73.4004C114.461 73.0879 114.314 72.7656 114.197 72.4336C114.08 72.1016 113.973 71.7695 113.875 71.4375C113.777 71.1055 113.631 70.793 113.436 70.5C113.396 70.4219 113.27 70.2949 113.055 70.1191C112.859 69.9238 112.752 69.8164 112.732 69.7969C112.693 69.7578 112.605 69.6504 112.469 69.4746C112.352 69.2988 112.215 69.1133 112.059 68.918C111.922 68.7031 111.785 68.5078 111.648 68.332C111.531 68.1562 111.453 68.0488 111.414 68.0098C111.336 67.834 111.248 67.7461 111.15 67.7461C111.131 67.7461 111.062 67.7363 110.945 67.7168C110.848 67.6973 110.73 67.6777 110.594 67.6582C110.477 67.6191 110.359 67.5898 110.242 67.5703C110.145 67.5508 110.096 67.5312 110.096 67.5117C110.037 67.5117 109.93 67.4922 109.773 67.4531C109.617 67.4141 109.441 67.375 109.246 67.3359C109.07 67.2969 108.904 67.2578 108.748 67.2188C108.592 67.1602 108.494 67.1211 108.455 67.1016H108.309C108.23 67.1016 108.123 67.1309 107.986 67.1895C107.85 67.2285 107.752 67.248 107.693 67.248H107.605C107.547 67.2285 107.381 67.209 107.107 67.1895C106.854 67.1699 106.57 67.1602 106.258 67.1602C105.945 67.1406 105.652 67.1309 105.379 67.1309C105.125 67.1113 104.969 67.1016 104.91 67.1016H104.822C104.471 67.1016 104.178 67.1699 103.943 67.3066C103.709 67.4434 103.514 67.6191 103.357 67.834C103.221 68.0488 103.094 68.293 102.977 68.5664C102.879 68.8203 102.781 69.0742 102.684 69.3281C102.664 69.543 102.625 69.8945 102.566 70.3828C102.527 70.8711 102.479 71.3887 102.42 71.9355C102.381 72.4824 102.342 73 102.303 73.4883C102.264 73.9766 102.244 74.3184 102.244 74.5137V74.748V74.8945C102.244 74.9922 102.254 75.1582 102.273 75.3926C102.293 75.627 102.312 75.8809 102.332 76.1543C102.352 76.4082 102.371 76.6621 102.391 76.916C102.43 77.1504 102.459 77.3066 102.479 77.3848C102.615 77.5605 102.771 77.7363 102.947 77.9121C103.143 78.0879 103.348 78.2051 103.562 78.2637H105.174C105.838 78.2637 106.414 78.2539 106.902 78.2344C107.41 78.2148 108.016 78.1562 108.719 78.0586C108.738 78.0195 108.768 77.9512 108.807 77.8535C108.846 77.7559 108.895 77.6582 108.953 77.5605C109.012 77.4629 109.061 77.375 109.1 77.2969C109.139 77.2188 109.168 77.1699 109.188 77.1504C109.266 77.0137 109.363 76.8184 109.48 76.5645C109.598 76.291 109.715 76.0273 109.832 75.7734C109.949 75.5 110.047 75.2656 110.125 75.0703C110.223 74.875 110.281 74.7676 110.301 74.748C110.34 74.6699 110.379 74.5039 110.418 74.25C110.457 73.9766 110.496 73.8203 110.535 73.7812C110.691 73.6055 110.896 73.4883 111.15 73.4297C111.404 73.3711 111.658 73.3418 111.912 73.3418C112.186 73.3418 112.352 73.4492 112.41 73.6641C112.488 73.8594 112.527 74.084 112.527 74.3379V75.0703V75.4219C112.527 75.5977 112.508 75.7734 112.469 75.9492C112.43 76.1055 112.361 76.2617 112.264 76.418C112.244 76.5938 112.225 76.8867 112.205 77.2969C112.186 77.707 112.166 78.1367 112.146 78.5859C112.127 79.0352 112.107 79.4648 112.088 79.875C112.068 80.2656 112.059 80.5391 112.059 80.6953V81.457V83.2148C112.039 83.2539 112.02 83.3418 112 83.4785C111.98 83.6152 111.961 83.7715 111.941 83.9473C111.941 84.1035 111.932 84.2598 111.912 84.416C111.893 84.5723 111.873 84.6797 111.854 84.7383C111.639 84.8945 111.443 85.0117 111.268 85.0898C111.111 85.168 110.916 85.207 110.682 85.207C110.525 85.207 110.379 85.1484 110.242 85.0312C110.105 84.8945 109.979 84.7285 109.861 84.5332C109.744 84.3379 109.646 84.1426 109.568 83.9473C109.49 83.7324 109.441 83.5371 109.422 83.3613C109.402 83.3027 109.373 83.1758 109.334 82.9805C109.314 82.7656 109.295 82.541 109.275 82.3066C109.256 82.0527 109.236 81.8184 109.217 81.6035C109.197 81.3887 109.188 81.2324 109.188 81.1348C109.129 81.0566 109.021 80.9883 108.865 80.9297C108.729 80.8516 108.592 80.7734 108.455 80.6953C108.338 80.6562 108.152 80.6074 107.898 80.5488C107.645 80.4902 107.371 80.4414 107.078 80.4023C106.805 80.3438 106.541 80.3047 106.287 80.2852C106.053 80.2461 105.896 80.2266 105.818 80.2266C105.76 80.2266 105.652 80.2266 105.496 80.2266C105.359 80.207 105.193 80.1973 104.998 80.1973C104.822 80.1973 104.646 80.1973 104.471 80.1973C104.295 80.1777 104.158 80.168 104.061 80.168C104.002 80.168 103.904 80.1777 103.768 80.1973C103.65 80.1973 103.523 80.1973 103.387 80.1973C103.27 80.1973 103.162 80.207 103.064 80.2266C102.967 80.2266 102.908 80.2266 102.889 80.2266L102.479 80.6953V81.6914C102.479 82.8438 102.439 83.957 102.361 85.0312C102.283 86.0859 102.244 87.1895 102.244 88.3418C102.244 88.9277 102.293 89.3574 102.391 89.6309C102.488 89.9043 102.645 90.0996 102.859 90.2168C103.074 90.334 103.348 90.4219 103.68 90.4805C104.012 90.5391 104.422 90.6367 104.91 90.7734C104.949 90.7734 105.018 90.8027 105.115 90.8613C105.213 90.9199 105.281 90.9785 105.32 91.0371H107.605H109.773C109.812 91.0371 109.9 91.0273 110.037 91.0078C110.174 90.9688 110.32 90.9395 110.477 90.9199C110.633 90.8809 110.77 90.8516 110.887 90.832C111.023 90.793 111.111 90.7734 111.15 90.7734H112.557H113.113C113.152 90.7734 113.221 90.7441 113.318 90.6855C113.416 90.6074 113.514 90.5293 113.611 90.4512C113.729 90.3535 113.826 90.2656 113.904 90.1875C113.982 90.1094 114.031 90.0703 114.051 90.0703C114.188 90.0117 114.295 89.9824 114.373 89.9824C114.471 89.9629 114.549 89.9531 114.607 89.9531C114.666 89.9336 114.725 89.9043 114.783 89.8652C114.842 89.8066 114.9 89.7188 114.959 89.6016C115.174 89.2891 115.33 88.9668 115.428 88.6348C115.525 88.3027 115.652 87.9707 115.809 87.6387C115.887 87.5801 115.984 87.4629 116.102 87.2871C116.219 87.0918 116.287 86.9648 116.307 86.9062C116.326 86.9062 116.385 86.877 116.482 86.8184C116.58 86.7402 116.678 86.6621 116.775 86.584C116.873 86.4863 116.961 86.3984 117.039 86.3203C117.117 86.2227 117.166 86.1543 117.186 86.1152C117.205 86.0566 117.244 85.9785 117.303 85.8809C117.381 85.7637 117.459 85.6465 117.537 85.5293C117.615 85.3926 117.684 85.2754 117.742 85.1777C117.82 85.0605 117.869 84.9824 117.889 84.9434C117.889 84.9238 117.918 84.8848 117.977 84.8262C118.016 84.8066 118.055 84.7773 118.094 84.7383C118.094 84.6992 118.104 84.6797 118.123 84.6797H118.182C118.475 84.6797 118.65 84.7969 118.709 85.0312C118.768 85.2461 118.797 85.4707 118.797 85.7051V86.3203C118.797 86.418 118.807 86.6523 118.826 87.0234C118.846 87.3945 118.855 87.7949 118.855 88.2246C118.875 88.6348 118.895 89.0254 118.914 89.3965C118.934 89.7676 118.943 89.9922 118.943 90.0703V90.1582C118.943 90.4121 118.895 90.7051 118.797 91.0371C118.699 91.3496 118.562 91.6523 118.387 91.9453C118.211 92.2383 117.996 92.4824 117.742 92.6777C117.508 92.873 117.254 92.9805 116.98 93C116.844 92.9805 116.59 92.9609 116.219 92.9414C115.867 92.9219 115.486 92.9023 115.076 92.8828C114.666 92.8633 114.275 92.8438 113.904 92.8242C113.533 92.8047 113.27 92.7754 113.113 92.7363H112.557H112.059C111.961 92.7754 111.736 92.8145 111.385 92.8535C111.033 92.873 110.652 92.8926 110.242 92.9121C109.852 92.9316 109.471 92.9512 109.1 92.9707C108.748 92.9902 108.533 93 108.455 93H97.3516C97.293 93.0195 97.1953 93.0391 97.0586 93.0586C96.9414 93.0781 96.8047 93.0879 96.6484 93.0879C96.5117 93.1074 96.375 93.1172 96.2383 93.1172C96.1016 93.1367 96.0039 93.1465 95.9453 93.1465C95.9453 93.1855 95.877 93.2051 95.7402 93.2051C95.6035 93.2051 95.4766 93.1953 95.3594 93.1758C95.2422 93.1562 95.1641 93.1465 95.125 93.1465C95.0469 93.2051 94.8906 93.2734 94.6562 93.3516C94.4219 93.4297 94.2559 93.4688 94.1582 93.4688C94.0605 93.4688 93.8945 93.4492 93.6602 93.4102C93.4453 93.3711 93.2109 93.3223 92.957 93.2637C92.7031 93.2246 92.459 93.1758 92.2246 93.1172C91.9902 93.0781 91.8145 93.0391 91.6973 93ZM130.662 92.7949C130.662 92.541 130.721 92.3457 130.838 92.209C130.955 92.0527 131.102 91.9258 131.277 91.8281C131.473 91.7305 131.756 91.6523 132.127 91.5938C132.498 91.5156 132.869 91.4375 133.24 91.3594C133.631 91.2617 133.973 91.1445 134.266 91.0078C134.559 90.8516 134.734 90.6367 134.793 90.3633V89.748V89.4551C134.793 89.3184 134.793 89.0156 134.793 88.5469C134.812 88.0586 134.822 87.502 134.822 86.877C134.842 86.2324 134.861 85.5488 134.881 84.8262C134.9 84.1035 134.91 83.4199 134.91 82.7754C134.93 82.1309 134.939 81.5742 134.939 81.1055C134.959 80.6172 134.969 80.2949 134.969 80.1387V75.0703V70.0312C134.871 69.6797 134.637 69.377 134.266 69.123C133.914 68.8496 133.543 68.7129 133.152 68.7129H129.402C129.266 68.7129 129.07 68.7715 128.816 68.8887C128.562 69.0059 128.387 69.084 128.289 69.123C127.547 69.5723 126.951 70.0605 126.502 70.5879C126.053 71.0957 125.604 71.6523 125.154 72.2578C125.115 72.2969 125.057 72.3652 124.979 72.4629C124.92 72.5605 124.852 72.6777 124.773 72.8145C124.715 72.9316 124.646 73.0488 124.568 73.166C124.51 73.2637 124.471 73.332 124.451 73.3711C124.412 73.4688 124.344 73.5957 124.246 73.752C124.148 73.9082 124.041 74.0645 123.924 74.2207C123.807 74.377 123.68 74.5137 123.543 74.6309C123.426 74.748 123.318 74.8066 123.221 74.8066C123.025 74.8066 122.859 74.7578 122.723 74.6602C122.605 74.5625 122.508 74.4355 122.43 74.2793C122.371 74.123 122.322 73.957 122.283 73.7812C122.264 73.5859 122.254 73.4004 122.254 73.2246C122.254 72.7949 122.293 72.3848 122.371 71.9941C122.449 71.6035 122.527 71.1934 122.605 70.7637C122.664 70.5098 122.723 70.1191 122.781 69.5918C122.859 69.0449 122.957 68.5078 123.074 67.9805C123.191 67.4336 123.357 66.9551 123.572 66.5449C123.787 66.1348 124.08 65.9297 124.451 65.9297C124.471 65.9297 124.51 65.9395 124.568 65.959C124.627 65.959 124.676 65.959 124.715 65.959C124.773 65.9785 124.832 65.9883 124.891 65.9883C124.949 66.0273 125.066 66.0957 125.242 66.1934C125.418 66.2715 125.604 66.3594 125.799 66.457C126.014 66.5547 126.209 66.6426 126.385 66.7207C126.561 66.7988 126.668 66.8379 126.707 66.8379C126.727 66.8574 126.785 66.877 126.883 66.8965C127 66.8965 127.117 66.8965 127.234 66.8965C127.371 66.8965 127.498 66.8965 127.615 66.8965C127.732 66.8965 127.811 66.8965 127.85 66.8965C127.85 66.8965 127.898 66.916 127.996 66.9551C128.113 66.9746 128.23 67.0039 128.348 67.043C128.484 67.082 128.602 67.1211 128.699 67.1602C128.816 67.1797 128.885 67.1895 128.904 67.1895C129.881 67.1895 130.848 67.1016 131.805 66.9258C132.781 66.7305 133.758 66.6328 134.734 66.6328C136.453 66.6328 138.152 66.7305 139.832 66.9258C141.531 67.1016 143.23 67.1895 144.93 67.1895H146.424C146.463 67.1699 146.561 67.1406 146.717 67.1016C146.873 67.043 147.039 66.9941 147.215 66.9551C147.391 66.8965 147.566 66.8379 147.742 66.7793C147.918 66.7207 148.045 66.6719 148.123 66.6328C148.299 66.5742 148.445 66.5059 148.562 66.4277C148.68 66.3301 148.787 66.2324 148.885 66.1348C149.002 66.0371 149.129 65.959 149.266 65.9004C149.402 65.8223 149.578 65.7832 149.793 65.7832C150.164 65.7832 150.457 65.959 150.672 66.3105C150.906 66.6426 151.082 67.043 151.199 67.5117C151.336 67.9805 151.434 68.459 151.492 68.9473C151.57 69.416 151.658 69.7773 151.756 70.0312C151.834 70.4414 151.951 70.8613 152.107 71.291C152.283 71.7207 152.371 72.1699 152.371 72.6387C152.371 72.7754 152.352 72.9316 152.312 73.1074C152.293 73.2832 152.244 73.4492 152.166 73.6055C152.088 73.7422 151.98 73.8594 151.844 73.957C151.707 74.0547 151.541 74.1035 151.346 74.1035C151.15 74.1035 150.916 73.957 150.643 73.6641C150.369 73.3516 150.076 73.0098 149.764 72.6387C149.471 72.248 149.178 71.8672 148.885 71.4961C148.611 71.125 148.357 70.8809 148.123 70.7637C148.084 70.7441 147.996 70.6953 147.859 70.6172C147.742 70.5391 147.605 70.4609 147.449 70.3828C147.312 70.3047 147.176 70.2363 147.039 70.1777C146.922 70.0996 146.844 70.0508 146.805 70.0312C146.434 69.8164 146.072 69.582 145.721 69.3281C145.389 69.0742 145.018 68.8691 144.607 68.7129C144.549 68.7129 144.441 68.7129 144.285 68.7129C144.148 68.7129 144.002 68.7129 143.846 68.7129C143.689 68.6934 143.543 68.6836 143.406 68.6836C143.289 68.6836 143.201 68.6836 143.143 68.6836H142.586C142.176 68.6836 141.756 68.7129 141.326 68.7715C140.896 68.8301 140.574 69.0156 140.359 69.3281C140.359 69.4844 140.369 69.7285 140.389 70.0605C140.408 70.3926 140.418 70.7539 140.418 71.1445C140.418 71.5352 140.408 71.8965 140.389 72.2285C140.369 72.5605 140.359 72.7949 140.359 72.9316C140.359 72.9707 140.34 73.0391 140.301 73.1367C140.281 73.2148 140.252 73.3027 140.213 73.4004C140.174 73.498 140.135 73.5957 140.096 73.6934C140.076 73.7715 140.057 73.8203 140.037 73.8398V82.7754C139.861 83.127 139.754 83.4004 139.715 83.5957C139.676 83.791 139.656 84.0547 139.656 84.3867V84.8262C139.656 84.8652 139.666 84.9531 139.686 85.0898C139.725 85.207 139.754 85.3438 139.773 85.5C139.812 85.6367 139.842 85.7734 139.861 85.9102C139.881 86.0273 139.891 86.1055 139.891 86.1445V89.4551C139.949 89.8652 140.047 90.2266 140.184 90.5391C140.32 90.8516 140.613 91.0273 141.062 91.0664C141.141 91.0859 141.297 91.1055 141.531 91.125C141.785 91.1445 142.049 91.1641 142.322 91.1836C142.615 91.2031 142.889 91.2227 143.143 91.2422C143.416 91.2617 143.602 91.2715 143.699 91.2715C143.836 91.3691 143.943 91.5059 144.021 91.6816C144.119 91.8379 144.168 92.0039 144.168 92.1797C144.168 92.3359 144.129 92.4531 144.051 92.5312C143.992 92.6094 143.875 92.7168 143.699 92.8535C142.742 92.834 141.727 92.8438 140.652 92.8828C139.598 92.9023 138.523 92.9316 137.43 92.9707C136.355 92.9902 135.291 93.0098 134.236 93.0293C133.182 93.0684 132.195 93.0879 131.277 93.0879C131.121 93.0879 130.975 93.0781 130.838 93.0586C130.721 93.0391 130.662 92.9512 130.662 92.7949ZM158.875 93C158.875 92.9805 158.885 92.9609 158.904 92.9414C158.904 92.9219 158.904 92.9121 158.904 92.9121C158.924 92.8926 158.934 92.873 158.934 92.8535C158.953 92.8145 159.012 92.7461 159.109 92.6484C159.227 92.5508 159.344 92.4434 159.461 92.3262C159.578 92.209 159.686 92.1016 159.783 92.0039C159.9 91.8867 159.988 91.7988 160.047 91.7402L160.34 91.6816C160.418 91.6621 160.486 91.6426 160.545 91.623C160.623 91.6035 160.682 91.5938 160.721 91.5938C161.072 91.4961 161.453 91.4082 161.863 91.3301C162.293 91.2324 162.693 91.1152 163.064 90.9785C163.436 90.8223 163.748 90.6172 164.002 90.3633C164.275 90.1094 164.432 89.7578 164.471 89.3086V87.082C164.471 86.1055 164.422 85.1387 164.324 84.1816C164.246 83.2246 164.227 82.248 164.266 81.252C164.188 81.0762 164.041 80.7832 163.826 80.373C163.611 79.9434 163.387 79.4941 163.152 79.0254C162.918 78.5566 162.693 78.1172 162.479 77.707C162.283 77.2773 162.146 76.9844 162.068 76.8281C162.049 76.7695 161.98 76.6426 161.863 76.4473C161.746 76.252 161.619 76.0469 161.482 75.832C161.365 75.5977 161.248 75.3828 161.131 75.1875C161.033 74.9922 160.975 74.8652 160.955 74.8066C160.916 74.7676 160.857 74.6504 160.779 74.4551C160.721 74.2598 160.652 74.0547 160.574 73.8398C160.496 73.6055 160.428 73.3906 160.369 73.1953C160.311 72.9805 160.271 72.8535 160.252 72.8145C160.252 72.7363 160.184 72.6094 160.047 72.4336C159.91 72.2578 159.842 72.1504 159.842 72.1113C159.451 71.4863 159.109 70.832 158.816 70.1484C158.543 69.4648 158.211 68.791 157.82 68.127C157.781 68.127 157.742 68.0586 157.703 67.9219C157.664 67.7656 157.615 67.6582 157.557 67.5996C157.42 67.4824 157.156 67.3848 156.766 67.3066C156.375 67.209 155.975 67.0918 155.564 66.9551C155.154 66.8184 154.793 66.6523 154.48 66.457C154.168 66.2422 154.012 65.9688 154.012 65.6367C154.012 65.4805 154.061 65.3633 154.158 65.2852C154.256 65.207 154.373 65.1484 154.51 65.1094C154.646 65.0508 154.783 65.0215 154.92 65.0215C155.076 65.002 155.213 64.9824 155.33 64.9629H157.205H159.344C159.422 64.9824 159.617 65.0117 159.93 65.0508C160.242 65.0703 160.574 65.0996 160.926 65.1387C161.277 65.1582 161.6 65.1777 161.893 65.1973C162.205 65.2168 162.4 65.2266 162.479 65.2266H163.387C163.582 65.2266 163.787 65.2363 164.002 65.2559C164.236 65.2754 164.441 65.3242 164.617 65.4023C164.793 65.4609 164.939 65.5586 165.057 65.6953C165.174 65.832 165.232 66.0176 165.232 66.252C165.232 66.5254 165.145 66.7305 164.969 66.8672C164.793 66.9844 164.598 67.0918 164.383 67.1895C164.188 67.2871 164.002 67.4043 163.826 67.541C163.67 67.6582 163.592 67.8535 163.592 68.127V68.3613C163.65 68.498 163.738 68.7617 163.855 69.1523C163.973 69.5234 164.1 69.9238 164.236 70.3535C164.393 70.7832 164.539 71.1934 164.676 71.584C164.812 71.9551 164.91 72.2188 164.969 72.375C164.969 72.4141 165.008 72.5215 165.086 72.6973C165.164 72.8535 165.252 73.0391 165.35 73.2539C165.447 73.4492 165.535 73.6348 165.613 73.8105C165.711 73.9863 165.77 74.0938 165.789 74.1328C165.809 74.1719 165.838 74.2598 165.877 74.3965C165.936 74.5137 165.994 74.6504 166.053 74.8066C166.111 74.9434 166.16 75.0801 166.199 75.2168C166.238 75.334 166.268 75.4121 166.287 75.4512C166.346 75.5684 166.424 75.7051 166.521 75.8613C166.619 76.0176 166.736 76.1738 166.873 76.3301C167.01 76.4668 167.146 76.584 167.283 76.6816C167.439 76.7793 167.576 76.8281 167.693 76.8281H167.869C167.889 76.7891 167.957 76.7109 168.074 76.5938C168.211 76.4766 168.289 76.4082 168.309 76.3887C168.328 76.3691 168.367 76.3008 168.426 76.1836C168.504 76.0469 168.572 75.9102 168.631 75.7734C168.709 75.6172 168.777 75.4805 168.836 75.3633C168.914 75.2266 168.963 75.1387 168.982 75.0996C169.002 75.0801 169.041 75.002 169.1 74.8652C169.158 74.7285 169.227 74.582 169.305 74.4258C169.383 74.2695 169.451 74.123 169.51 73.9863C169.568 73.8301 169.607 73.7324 169.627 73.6934C169.666 73.6348 169.734 73.4883 169.832 73.2539C169.93 73.0195 169.998 72.873 170.037 72.8145C170.213 72.4824 170.398 72.1406 170.594 71.7891C170.809 71.418 171.004 71.0469 171.18 70.6758C171.375 70.2852 171.531 69.9043 171.648 69.5332C171.785 69.1621 171.854 68.791 171.854 68.4199C171.854 68.1855 171.678 67.9902 171.326 67.834C170.975 67.6582 170.594 67.4922 170.184 67.3359C169.773 67.1602 169.393 66.9844 169.041 66.8086C168.689 66.6133 168.514 66.3691 168.514 66.0762C168.514 65.9199 168.572 65.793 168.689 65.6953C168.826 65.5781 168.973 65.4902 169.129 65.4316C169.305 65.3535 169.471 65.3047 169.627 65.2852C169.803 65.2461 169.939 65.2266 170.037 65.2266H172.527C172.586 65.2266 172.723 65.2266 172.938 65.2266C173.172 65.207 173.416 65.1973 173.67 65.1973C173.924 65.1777 174.158 65.1582 174.373 65.1387C174.588 65.1191 174.715 65.0996 174.754 65.0801C174.793 65.0801 174.91 65.0801 175.105 65.0801C175.32 65.0605 175.555 65.041 175.809 65.0215C176.082 65.002 176.346 64.9922 176.6 64.9922C176.873 64.9727 177.088 64.9629 177.244 64.9629H179.734C179.91 64.9629 180.047 65.0117 180.145 65.1094C180.262 65.207 180.34 65.2754 180.379 65.3145C180.457 65.4512 180.496 65.6074 180.496 65.7832C180.516 65.959 180.525 66.0566 180.525 66.0762C180.525 66.1152 180.506 66.1934 180.467 66.3105C180.447 66.4277 180.398 66.5352 180.32 66.6328C180.242 66.7305 180.115 66.8574 179.939 67.0137C179.783 67.1504 179.627 67.248 179.471 67.3066C179.295 67.3652 179.08 67.4141 178.826 67.4531C178.592 67.4922 178.348 67.5312 178.094 67.5703C177.84 67.6094 177.596 67.668 177.361 67.7461C177.127 67.8242 176.932 67.9512 176.775 68.127L172.322 72.5801C172.283 72.6191 172.205 72.7266 172.088 72.9023C171.971 73.0781 171.893 73.1855 171.854 73.2246C171.795 73.3027 171.678 73.4688 171.502 73.7227C171.326 73.957 171.141 74.2109 170.945 74.4844C170.75 74.7578 170.564 75.0117 170.389 75.2461C170.213 75.4609 170.096 75.5977 170.037 75.6562C169.764 76.1055 169.607 76.5547 169.568 77.0039C169.529 77.4531 169.412 77.9023 169.217 78.3516V80.1387V81.9551C169.217 82.0527 169.217 82.2676 169.217 82.5996C169.236 82.9316 169.246 83.3223 169.246 83.7715C169.266 84.2012 169.285 84.6699 169.305 85.1777C169.324 85.6855 169.344 86.1641 169.363 86.6133C169.383 87.043 169.393 87.4336 169.393 87.7852C169.412 88.1172 169.422 88.332 169.422 88.4297V89.25V89.543C169.441 89.7578 169.666 89.9336 170.096 90.0703C170.525 90.1875 171.004 90.2852 171.531 90.3633C172.078 90.4414 172.596 90.5195 173.084 90.5977C173.592 90.6562 173.924 90.7441 174.08 90.8613C174.139 90.9004 174.217 90.9785 174.314 91.0957C174.432 91.1934 174.549 91.3008 174.666 91.418C174.783 91.5352 174.891 91.6523 174.988 91.7695C175.105 91.8672 175.184 91.9355 175.223 91.9746V92.2383C175.223 92.4141 175.154 92.5508 175.018 92.6484C174.9 92.7266 174.764 92.7949 174.607 92.8535C172.967 92.9316 171.316 92.9902 169.656 93.0293C168.016 93.0684 166.365 93.0879 164.705 93.0879H162.684C162.332 93.1465 162.01 93.2344 161.717 93.3516C161.443 93.4883 161.121 93.5566 160.75 93.5566H160.164C159.891 93.5566 159.607 93.5273 159.314 93.4688C159.021 93.4102 158.875 93.2539 158.875 93ZM206.072 76.1836C206.814 76.1445 207.488 76.1738 208.094 76.2715C208.719 76.3691 209.363 76.418 210.027 76.418H210.584C210.662 76.418 210.838 76.4082 211.111 76.3887C211.385 76.3691 211.668 76.3496 211.961 76.3301C212.273 76.291 212.566 76.2617 212.84 76.2422C213.113 76.2031 213.279 76.1836 213.338 76.1836C213.416 76.1836 213.621 76.2031 213.953 76.2422C214.285 76.2617 214.588 76.2715 214.861 76.2715C215.037 76.2715 215.184 76.2617 215.301 76.2422C215.438 76.2227 215.525 76.2031 215.564 76.1836C215.643 76.1836 215.75 76.1445 215.887 76.0664C216.043 75.9688 216.17 75.8711 216.268 75.7734V74.9531C216.268 73.9766 216.102 73.0195 215.77 72.082C215.438 71.125 215.135 70.1875 214.861 69.2695C214.861 69.2305 214.852 69.1621 214.832 69.0645C214.812 68.9473 214.783 68.8301 214.744 68.7129C214.725 68.5762 214.705 68.459 214.686 68.3613C214.666 68.2637 214.656 68.1953 214.656 68.1562C214.637 68.1367 214.598 68.0684 214.539 67.9512C214.48 67.8145 214.412 67.668 214.334 67.5117C214.256 67.3359 214.178 67.1797 214.1 67.043C214.041 66.9062 213.992 66.8086 213.953 66.75C213.855 66.4766 213.768 66.1543 213.689 65.7832C213.611 65.3926 213.523 65.002 213.426 64.6113C213.328 64.2207 213.211 63.8398 213.074 63.4688C212.957 63.0977 212.811 62.7754 212.635 62.502C212.615 62.4824 212.557 62.4238 212.459 62.3262C212.361 62.209 212.254 62.0918 212.137 61.9746C212.02 61.8379 211.902 61.7109 211.785 61.5938C211.668 61.4766 211.58 61.3984 211.521 61.3594C211.463 61.3398 211.375 61.3105 211.258 61.2715C211.141 61.2129 211.043 61.1836 210.965 61.1836C210.926 61.2031 210.906 61.2129 210.906 61.2129L210.73 61.3887C210.633 61.4863 210.584 61.5645 210.584 61.623C210.428 62.0918 210.271 62.5996 210.115 63.1465C209.959 63.6934 209.783 64.2598 209.588 64.8457C209.412 65.4121 209.217 65.9785 209.002 66.5449C208.807 67.1113 208.592 67.6484 208.357 68.1562C208.338 68.1953 208.289 68.2832 208.211 68.4199C208.152 68.5371 208.084 68.6738 208.006 68.8301C207.947 68.9668 207.889 69.1035 207.83 69.2402C207.791 69.3574 207.771 69.4355 207.771 69.4746C207.713 69.5332 207.635 69.7188 207.537 70.0312C207.439 70.3242 207.332 70.666 207.215 71.0566C207.098 71.4277 206.98 71.8086 206.863 72.1992C206.766 72.5898 206.678 72.8828 206.6 73.0781C206.463 73.4883 206.307 73.918 206.131 74.3672C205.975 74.7969 205.896 75.2266 205.896 75.6562C205.896 75.7539 205.896 75.8613 205.896 75.9785C205.916 76.0762 205.975 76.1445 206.072 76.1836ZM199.861 93C199.744 93 199.529 93 199.217 93C198.904 93.0195 198.572 93.0293 198.221 93.0293C197.869 93.0293 197.527 93.0293 197.195 93.0293C196.863 93.0488 196.629 93.0586 196.492 93.0586C196.453 93.0586 196.365 93.0684 196.229 93.0879C196.111 93.1074 195.975 93.127 195.818 93.1465C195.682 93.166 195.545 93.1758 195.408 93.1758C195.291 93.1953 195.213 93.2051 195.174 93.2051C195.018 93.2051 194.773 93.1953 194.441 93.1758C194.109 93.1758 193.748 93.166 193.357 93.1465C192.986 93.127 192.635 93.1074 192.303 93.0879C191.951 93.0684 191.697 93.0586 191.541 93.0586C191.268 92.9805 191.092 92.8828 191.014 92.7656C190.916 92.6289 190.867 92.4043 190.867 92.0918C190.867 91.8184 190.945 91.6035 191.102 91.4473C191.238 91.291 191.424 91.1738 191.658 91.0957C191.893 91.0176 192.166 90.9688 192.479 90.9492C192.771 90.9297 193.064 90.9199 193.357 90.9199C193.67 90.9199 193.953 90.9199 194.207 90.9199C194.48 90.9004 194.725 90.8711 194.939 90.832C194.979 90.793 195.057 90.7148 195.174 90.5977C195.291 90.4805 195.35 90.4023 195.35 90.3633C195.389 90.3047 195.467 90.2266 195.584 90.1289C195.721 90.0117 195.867 89.8945 196.023 89.7773C196.18 89.6406 196.316 89.5234 196.434 89.4258C196.57 89.3086 196.658 89.2305 196.697 89.1914C197.342 88.625 197.801 88.0098 198.074 87.3457C198.367 86.6621 198.66 85.9492 198.953 85.207C199.578 83.6055 200.271 82.043 201.033 80.5195C201.814 78.9961 202.537 77.4141 203.201 75.7734C203.221 75.7539 203.25 75.6855 203.289 75.5684C203.328 75.4316 203.367 75.2949 203.406 75.1582C203.465 75.0215 203.514 74.8848 203.553 74.748C203.611 74.6113 203.641 74.5137 203.641 74.4551C203.66 74.3965 203.689 74.2891 203.729 74.1328C203.768 73.9766 203.816 73.8105 203.875 73.6348C203.934 73.4395 203.982 73.2637 204.021 73.1074C204.08 72.9512 204.129 72.8535 204.168 72.8145C204.168 72.7949 204.236 72.6973 204.373 72.5215C204.51 72.3262 204.578 72.1895 204.578 72.1113C204.617 72.0527 204.676 71.9453 204.754 71.7891C204.832 71.6133 204.91 71.4375 204.988 71.2617C205.086 71.0664 205.174 70.8906 205.252 70.7344C205.33 70.5586 205.389 70.4414 205.428 70.3828C205.467 70.3438 205.516 70.2266 205.574 70.0312C205.633 69.8359 205.682 69.7188 205.721 69.6797C205.74 69.6602 205.77 69.6113 205.809 69.5332C205.848 69.4551 205.887 69.3672 205.926 69.2695C205.965 69.1523 205.994 69.0547 206.014 68.9766C206.053 68.8789 206.072 68.8105 206.072 68.7715C206.092 68.7129 206.121 68.5762 206.16 68.3613C206.219 68.1465 206.277 67.9219 206.336 67.6875C206.395 67.4336 206.443 67.1992 206.482 66.9844C206.521 66.7695 206.561 66.6426 206.6 66.6035C206.619 66.5059 206.688 66.3789 206.805 66.2227C206.941 66.0664 207.02 65.9688 207.039 65.9297C207.039 65.8906 207.068 65.7734 207.127 65.5781C207.205 65.3828 207.244 65.2656 207.244 65.2266C207.264 65.1875 207.322 65.0801 207.42 64.9043C207.518 64.7285 207.615 64.543 207.713 64.3477C207.811 64.1328 207.898 63.9375 207.977 63.7617C208.074 63.5859 208.133 63.4688 208.152 63.4102C208.172 63.3906 208.201 63.332 208.24 63.2344C208.279 63.1172 208.318 63 208.357 62.8828C208.396 62.7461 208.436 62.6289 208.475 62.5312C208.514 62.4141 208.543 62.3359 208.562 62.2969C208.641 62.2383 208.699 62.1602 208.738 62.0625C208.797 61.9453 208.846 61.8867 208.885 61.8867C208.904 61.8477 208.973 61.75 209.09 61.5938C209.227 61.4375 209.363 61.2715 209.5 61.0957C209.656 60.9004 209.793 60.7246 209.91 60.5684C210.047 60.3926 210.125 60.2852 210.145 60.2461C210.164 60.2461 210.184 60.1973 210.203 60.0996C210.223 60.002 210.252 59.9043 210.291 59.8066C210.33 59.6895 210.359 59.5527 210.379 59.3965C210.477 59.0449 210.584 58.7324 210.701 58.459C210.838 58.166 210.906 57.8242 210.906 57.4336C210.906 57.2383 210.877 57.0527 210.818 56.877C210.76 56.7012 210.691 56.5352 210.613 56.3789C210.555 56.2227 210.496 56.0664 210.438 55.9102C210.379 55.7344 210.35 55.5488 210.35 55.3535V55.0898C210.35 55.0312 210.359 54.9629 210.379 54.8848C210.438 54.8066 210.555 54.748 210.73 54.709C210.926 54.6504 211.141 54.6016 211.375 54.5625C211.609 54.5234 211.844 54.4844 212.078 54.4453C212.312 54.4062 212.498 54.3379 212.635 54.2402C212.986 53.9668 213.299 53.7227 213.572 53.5078C213.846 53.293 214.207 53.1562 214.656 53.0977C214.969 53.0586 215.271 53.1367 215.564 53.332C215.877 53.5273 216.111 53.7422 216.268 53.9766C216.678 54.8555 216.98 55.7637 217.176 56.7012C217.391 57.6191 217.664 58.5176 217.996 59.3965C218.016 59.3965 218.045 59.4453 218.084 59.543C218.143 59.6211 218.201 59.709 218.26 59.8066C218.318 59.9043 218.367 60.002 218.406 60.0996C218.445 60.1973 218.465 60.2461 218.465 60.2461C218.465 60.3242 218.484 60.4902 218.523 60.7441C218.582 60.998 218.641 61.2617 218.699 61.5352C218.758 61.8086 218.807 62.0723 218.846 62.3262C218.904 62.5605 218.943 62.7168 218.963 62.7949C218.982 62.9121 219.012 63.0781 219.051 63.293C219.09 63.4883 219.129 63.6934 219.168 63.9082C219.227 64.123 219.275 64.3184 219.314 64.4941C219.373 64.6699 219.402 64.7773 219.402 64.8164C219.422 64.9141 219.5 65.1484 219.637 65.5195C219.773 65.8711 219.91 66.2617 220.047 66.6914C220.203 67.1211 220.35 67.5215 220.486 67.8926C220.623 68.2637 220.721 68.4883 220.779 68.5664C220.779 68.5859 220.779 68.6348 220.779 68.7129C220.799 68.791 220.809 68.8789 220.809 68.9766C220.828 69.0742 220.848 69.1719 220.867 69.2695C220.887 69.3477 220.906 69.416 220.926 69.4746C220.945 69.5137 220.965 69.5918 220.984 69.709C221.004 69.8066 221.023 69.9238 221.043 70.0605C221.062 70.1777 221.082 70.2949 221.102 70.4121C221.121 70.5098 221.131 70.5684 221.131 70.5879C221.131 70.6074 221.15 70.666 221.189 70.7637C221.248 70.8418 221.307 70.9395 221.365 71.0566C221.424 71.1543 221.482 71.252 221.541 71.3496C221.6 71.4473 221.639 71.4961 221.658 71.4961C221.658 71.5352 221.678 71.6426 221.717 71.8184C221.756 71.9941 221.795 72.1895 221.834 72.4043C221.893 72.5996 221.941 72.7949 221.98 72.9902C222.02 73.166 222.039 73.2832 222.039 73.3418C222.059 73.3613 222.088 73.4199 222.127 73.5176C222.166 73.5957 222.205 73.6836 222.244 73.7812C222.303 73.8594 222.352 73.9473 222.391 74.0449C222.43 74.123 222.449 74.1719 222.449 74.1914C222.469 74.2305 222.498 74.3184 222.537 74.4551C222.576 74.5723 222.615 74.709 222.654 74.8652C222.693 75.0215 222.723 75.168 222.742 75.3047C222.762 75.4219 222.771 75.4902 222.771 75.5098C223.025 76.7598 223.377 78.0098 223.826 79.2598C224.275 80.4902 224.666 81.7207 224.998 82.9512C224.998 82.9902 225.008 83.0781 225.027 83.2148C225.047 83.332 225.066 83.4688 225.086 83.625C225.105 83.7812 225.125 83.9277 225.145 84.0645C225.164 84.2012 225.184 84.2891 225.203 84.3281C225.223 84.3672 225.262 84.4844 225.32 84.6797C225.398 84.875 225.477 85.0898 225.555 85.3242C225.633 85.5391 225.701 85.7539 225.76 85.9688C225.838 86.1641 225.887 86.2812 225.906 86.3203C226.004 86.7109 226.102 87.1504 226.199 87.6387C226.297 88.1074 226.434 88.5664 226.609 89.0156C226.785 89.4453 227.02 89.8359 227.312 90.1875C227.625 90.5391 228.035 90.7832 228.543 90.9199C228.758 90.9785 228.953 91.0176 229.129 91.0371C229.305 91.0371 229.432 91.0371 229.51 91.0371C229.529 91.0371 229.588 91.0469 229.686 91.0664C229.783 91.0664 229.891 91.0762 230.008 91.0957C230.125 91.1152 230.242 91.1348 230.359 91.1543C230.477 91.1738 230.564 91.1934 230.623 91.2129C230.74 91.2715 230.906 91.3301 231.121 91.3887C231.355 91.4473 231.58 91.5254 231.795 91.623C232.029 91.7012 232.225 91.8184 232.381 91.9746C232.557 92.1113 232.645 92.2969 232.645 92.5312C232.645 92.7852 232.547 92.9805 232.352 93.1172C232.176 93.2539 231.961 93.3516 231.707 93.4102C231.473 93.4883 231.219 93.5273 230.945 93.5273C230.691 93.5469 230.477 93.5566 230.301 93.5566C229.031 93.5566 227.771 93.498 226.521 93.3809C225.291 93.2637 224.041 93.2051 222.771 93.2051H218.963C218.475 93.3809 218.074 93.4785 217.762 93.498C217.449 93.5371 217.068 93.5566 216.619 93.5566C216.482 93.5566 216.277 93.5469 216.004 93.5273C215.75 93.5273 215.486 93.498 215.213 93.4395C214.959 93.4004 214.734 93.3223 214.539 93.2051C214.344 93.0879 214.246 92.9219 214.246 92.707V92.6484C214.383 92.375 214.607 92.1309 214.92 91.916C215.232 91.6816 215.516 91.5156 215.77 91.418C215.848 91.418 216.043 91.3887 216.355 91.3301C216.688 91.2715 217.039 91.2129 217.41 91.1543C217.801 91.0762 218.162 91.0078 218.494 90.9492C218.826 90.8711 219.031 90.832 219.109 90.832C219.344 90.7734 219.529 90.6758 219.666 90.5391C219.803 90.3828 219.9 90.2168 219.959 90.041C220.018 89.8652 220.047 89.6797 220.047 89.4844C220.066 89.2891 220.076 89.0938 220.076 88.8984V88.0781C220.057 87.8828 219.988 87.541 219.871 87.0527C219.754 86.5449 219.607 85.9785 219.432 85.3535C219.275 84.709 219.09 84.0352 218.875 83.332C218.66 82.6289 218.445 81.9844 218.23 81.3984C218.035 80.793 217.84 80.2852 217.645 79.875C217.449 79.4453 217.283 79.1914 217.146 79.1133C216.834 78.9375 216.551 78.8301 216.297 78.791C216.043 78.752 215.789 78.7324 215.535 78.7324C215.281 78.7129 215.027 78.6934 214.773 78.6738C214.52 78.6348 214.246 78.5469 213.953 78.4102C213.816 78.4102 213.543 78.4297 213.133 78.4688C212.742 78.5078 212.312 78.5469 211.844 78.5859C211.395 78.6055 210.965 78.6348 210.555 78.6738C210.145 78.6934 209.852 78.7031 209.676 78.7031C209.344 78.7031 208.963 78.6934 208.533 78.6738C208.123 78.6543 207.693 78.6445 207.244 78.6445C206.58 78.6445 205.945 78.7324 205.34 78.9082C204.734 79.0645 204.256 79.4355 203.904 80.0215C203.885 80.1387 203.846 80.3438 203.787 80.6367C203.748 80.9297 203.689 81.2422 203.611 81.5742C203.533 81.9062 203.455 82.2285 203.377 82.541C203.318 82.834 203.26 83.0391 203.201 83.1562C203.084 83.5664 202.947 83.9766 202.791 84.3867C202.635 84.7773 202.479 85.168 202.322 85.5586C202.186 85.9492 202.068 86.3496 201.971 86.7598C201.873 87.1699 201.824 87.5801 201.824 87.9902V88.9863C201.863 89.1816 201.951 89.3574 202.088 89.5137C202.244 89.6504 202.42 89.7773 202.615 89.8945C202.811 89.9922 202.996 90.0801 203.172 90.1582C203.367 90.2363 203.523 90.3047 203.641 90.3633C203.953 90.4805 204.344 90.5684 204.812 90.627C205.281 90.6855 205.73 90.7734 206.16 90.8906C206.609 90.9883 206.99 91.1641 207.303 91.418C207.615 91.6523 207.771 92.0234 207.771 92.5312C207.771 92.8633 207.605 93.0879 207.273 93.2051C206.961 93.3418 206.648 93.459 206.336 93.5566C205.457 93.3027 204.627 93.1465 203.846 93.0879C203.084 93.0293 202.312 93 201.531 93H199.861ZM237.977 93C237.938 93 237.82 93.0195 237.625 93.0586C237.449 93.1172 237.352 93.1465 237.332 93.1465H237.215C236.961 93.1465 236.707 93.1367 236.453 93.1172C236.219 93.0977 236.004 93.0488 235.809 92.9707C235.633 92.8926 235.486 92.7754 235.369 92.6191C235.252 92.4629 235.193 92.248 235.193 91.9746V91.5352C235.213 91.3398 235.447 91.2031 235.896 91.125C236.365 91.0273 236.883 90.9688 237.449 90.9492C238.016 90.9102 238.553 90.8809 239.061 90.8613C239.568 90.8223 239.871 90.7441 239.969 90.627C239.988 90.5293 240.008 90.4414 240.027 90.3633C240.047 90.2852 240.066 90.2168 240.086 90.1582C240.105 90.0996 240.115 90.0508 240.115 90.0117C240.115 89.9336 240.125 89.8164 240.145 89.6602C240.184 89.4844 240.213 89.3086 240.232 89.1328C240.271 88.9375 240.301 88.7617 240.32 88.6055C240.34 88.4492 240.35 88.3418 240.35 88.2832C240.35 88.127 240.359 87.8047 240.379 87.3164C240.398 86.8086 240.418 86.2617 240.438 85.6758C240.457 85.0898 240.477 84.5234 240.496 83.9766C240.516 83.4297 240.525 83.0391 240.525 82.8047C240.525 82.707 240.525 82.5312 240.525 82.2773C240.545 82.0039 240.555 81.7109 240.555 81.3984C240.555 81.0859 240.545 80.8027 240.525 80.5488C240.525 80.2949 240.525 80.0996 240.525 79.9629L240.672 79.582C240.672 79.5625 240.682 79.3672 240.701 78.9961C240.721 78.6055 240.74 78.1465 240.76 77.6191C240.799 77.0918 240.828 76.5547 240.848 76.0078C240.887 75.4609 240.906 75.0117 240.906 74.6602V72.668V70.5879C240.906 70.5098 240.887 70.3926 240.848 70.2363C240.828 70.0801 240.809 69.9238 240.789 69.7676C240.77 69.5918 240.74 69.4453 240.701 69.3281C240.682 69.1914 240.672 69.1035 240.672 69.0645C240.574 68.7715 240.379 68.5664 240.086 68.4492C239.812 68.3125 239.48 68.2148 239.09 68.1562C238.719 68.0977 238.318 68.0684 237.889 68.0684C237.479 68.0488 237.098 68.0098 236.746 67.9512C236.395 67.8926 236.102 67.7949 235.867 67.6582C235.652 67.502 235.545 67.2676 235.545 66.9551C235.545 66.7793 235.604 66.623 235.721 66.4863C235.838 66.3301 235.975 66.1934 236.131 66.0762C236.287 65.959 236.453 65.8711 236.629 65.8125C236.824 65.7344 236.99 65.6953 237.127 65.6953C237.4 65.6953 237.732 65.7344 238.123 65.8125C238.514 65.8906 238.816 65.9102 239.031 65.8711C239.09 65.8711 239.207 65.8613 239.383 65.8418C239.559 65.8223 239.744 65.8027 239.939 65.7832C240.154 65.7637 240.35 65.7441 240.525 65.7246C240.721 65.7051 240.848 65.6953 240.906 65.6953C241.004 65.6953 241.229 65.7051 241.58 65.7246C241.932 65.7441 242.303 65.7637 242.693 65.7832C243.104 65.8027 243.484 65.832 243.836 65.8711C244.188 65.8906 244.412 65.9102 244.51 65.9297H244.861H245.125C245.164 65.9102 245.252 65.8906 245.389 65.8711C245.525 65.832 245.662 65.8027 245.799 65.7832C245.955 65.7637 246.092 65.7441 246.209 65.7246C246.346 65.7051 246.424 65.6953 246.443 65.6953H247.908C247.928 65.6953 247.996 65.6855 248.113 65.666C248.23 65.6465 248.348 65.627 248.465 65.6074C248.602 65.5879 248.719 65.5684 248.816 65.5488C248.934 65.5293 249.002 65.5195 249.021 65.5195H249.139C249.178 65.5195 249.207 65.5195 249.227 65.5195C249.266 65.5 249.305 65.4902 249.344 65.4902C249.578 65.4902 249.812 65.5 250.047 65.5195C250.281 65.5391 250.496 65.5879 250.691 65.666C250.887 65.7246 251.043 65.832 251.16 65.9883C251.297 66.1445 251.365 66.3594 251.365 66.6328C251.365 66.6914 251.346 66.7793 251.307 66.8965C251.268 66.9941 251.248 67.0625 251.248 67.1016C251.092 67.1992 250.848 67.3457 250.516 67.541C250.184 67.7168 249.91 67.8242 249.695 67.8633C249.617 67.8633 249.441 67.8828 249.168 67.9219C248.914 67.9414 248.641 67.9707 248.348 68.0098C248.055 68.0293 247.781 68.0586 247.527 68.0977C247.273 68.1172 247.117 68.127 247.059 68.127C246.902 68.1465 246.766 68.2148 246.648 68.332C246.551 68.4297 246.482 68.5566 246.443 68.7129C246.268 69.5918 246.15 70.4609 246.092 71.3203C246.053 72.1797 246.033 73.0586 246.033 73.957V76.7695V77.707C246.033 77.7266 246.014 77.8438 245.975 78.0586C245.955 78.2539 245.926 78.4785 245.887 78.7324C245.867 78.9668 245.838 79.1914 245.799 79.4062C245.779 79.6211 245.77 79.7578 245.77 79.8164V84.2695V85.9688C245.77 86.0273 245.76 86.1543 245.74 86.3496C245.721 86.5449 245.701 86.75 245.682 86.9648C245.662 87.1797 245.643 87.375 245.623 87.5508C245.604 87.7266 245.594 87.834 245.594 87.873V88.0195V88.2832C245.594 88.3223 245.623 88.4297 245.682 88.6055C245.74 88.7617 245.77 88.8594 245.77 88.8984C245.77 88.9375 245.74 89.0059 245.682 89.1035C245.623 89.1816 245.594 89.25 245.594 89.3086C245.574 89.3672 245.564 89.4258 245.564 89.4844C245.545 89.5234 245.535 89.5723 245.535 89.6309C245.535 89.6699 245.535 89.709 245.535 89.748C245.535 90.1191 245.643 90.4707 245.857 90.8027C246.092 91.1152 246.385 91.2715 246.736 91.2715H246.912C247.479 91.1738 248.064 91.0859 248.67 91.0078C249.295 90.9102 249.891 90.8613 250.457 90.8613H255.408C255.486 90.8613 255.613 90.8516 255.789 90.832C255.984 90.8125 256.17 90.793 256.346 90.7734C256.521 90.7539 256.678 90.7344 256.814 90.7148C256.951 90.6758 257.029 90.6465 257.049 90.627C257.088 90.6074 257.166 90.5488 257.283 90.4512C257.4 90.334 257.527 90.207 257.664 90.0703C257.82 89.9141 257.957 89.7676 258.074 89.6309C258.211 89.4941 258.309 89.3867 258.367 89.3086C258.367 89.2891 258.387 89.2402 258.426 89.1621C258.465 89.0645 258.504 88.9766 258.543 88.8984C258.582 88.8008 258.621 88.7129 258.66 88.6348C258.699 88.5566 258.729 88.5078 258.748 88.4883C258.748 88.4688 258.777 88.4395 258.836 88.4004C258.914 88.3418 258.992 88.2832 259.07 88.2246C259.148 88.166 259.217 88.1172 259.275 88.0781C259.354 88.0391 259.402 88.0195 259.422 88.0195L259.568 87.873C259.607 87.8535 259.686 87.7461 259.803 87.5508C259.92 87.3359 259.979 87.209 259.979 87.1699C260.057 87.0918 260.154 86.9746 260.271 86.8184C260.408 86.6426 260.545 86.4668 260.682 86.291C260.838 86.0957 260.975 85.9199 261.092 85.7637C261.209 85.5879 261.297 85.4707 261.355 85.4121C261.434 85.3145 261.482 85.2559 261.502 85.2363C261.541 85.2168 261.639 85.207 261.795 85.207C262.107 85.207 262.352 85.334 262.527 85.5879C262.703 85.8223 262.83 86.1055 262.908 86.4375C262.986 86.7695 263.025 87.1113 263.025 87.4629C263.045 87.7949 263.055 88.0684 263.055 88.2832C263.055 88.3809 263.055 88.498 263.055 88.6348C263.055 88.7715 263.055 88.9082 263.055 89.0449C263.055 89.1816 263.045 89.2988 263.025 89.3965C263.025 89.4941 263.025 89.543 263.025 89.543C263.025 89.582 262.996 89.6895 262.938 89.8652C262.879 90.0215 262.85 90.1191 262.85 90.1582C262.811 90.6074 262.791 90.998 262.791 91.3301C262.791 91.6426 262.742 91.916 262.645 92.1504C262.566 92.3848 262.41 92.5801 262.176 92.7363C261.961 92.8926 261.6 93.0293 261.092 93.1465C260.916 93.166 260.594 93.1758 260.125 93.1758C259.656 93.1953 259.148 93.2051 258.602 93.2051C258.074 93.2051 257.566 93.2051 257.078 93.2051C256.609 93.2051 256.277 93.2051 256.082 93.2051C255.73 93.2051 255.281 93.2051 254.734 93.2051C254.188 93.2051 253.65 93.2051 253.123 93.2051C252.615 93.2051 252.166 93.1953 251.775 93.1758C251.385 93.1758 251.18 93.166 251.16 93.1465C251.062 93.1465 250.867 93.1367 250.574 93.1172C250.301 93.1172 249.988 93.1074 249.637 93.0879C249.305 93.0879 248.973 93.0781 248.641 93.0586C248.328 93.0391 248.084 93.0195 247.908 93C247.889 93 247.83 92.9902 247.732 92.9707C247.635 92.9512 247.527 92.9316 247.41 92.9121C247.293 92.8926 247.186 92.873 247.088 92.8535C246.99 92.834 246.932 92.8145 246.912 92.7949H246.736H246.443C246.346 92.8145 246.15 92.834 245.857 92.8535C245.564 92.873 245.252 92.8926 244.92 92.9121C244.588 92.9316 244.266 92.9512 243.953 92.9707C243.66 92.9902 243.475 93 243.396 93H241.434C241.395 93 241.258 93.0195 241.023 93.0586C240.809 93.1172 240.691 93.1465 240.672 93.1465C240.535 93.2246 240.369 93.2637 240.174 93.2637C239.998 93.2832 239.861 93.293 239.764 93.293C239.705 93.293 239.588 93.2734 239.412 93.2344C239.236 93.2148 239.041 93.1855 238.826 93.1465C238.631 93.1074 238.445 93.0684 238.27 93.0293C238.094 93.0098 237.996 93 237.977 93ZM266.014 93C266.014 92.9219 265.955 92.8145 265.838 92.6777C265.74 92.5215 265.682 92.3945 265.662 92.2969V92.1797V92.1504C265.701 92.0723 265.789 91.9551 265.926 91.7988C266.062 91.6426 266.209 91.4863 266.365 91.3301C266.541 91.1543 266.697 90.998 266.834 90.8613C266.99 90.7246 267.098 90.627 267.156 90.5684C267.195 90.5293 267.322 90.4902 267.537 90.4512C267.771 90.3926 267.938 90.3633 268.035 90.3633H270.115C270.174 90.3633 270.252 90.3535 270.35 90.334C270.467 90.2949 270.574 90.2656 270.672 90.2461C270.789 90.207 270.887 90.168 270.965 90.1289C271.062 90.0898 271.111 90.0703 271.111 90.0703C271.385 89.9336 271.541 89.7188 271.58 89.4258C271.639 89.1133 271.668 88.8203 271.668 88.5469V88.0781C271.668 87.3945 271.648 86.75 271.609 86.1445C271.59 85.5195 271.58 84.8652 271.58 84.1816V83.9766C271.58 83.918 271.59 83.8105 271.609 83.6543C271.629 83.498 271.648 83.332 271.668 83.1562C271.707 82.9609 271.746 82.7852 271.785 82.6289C271.824 82.4727 271.854 82.3652 271.873 82.3066V69.5332C271.873 69.1426 271.805 68.8301 271.668 68.5957C271.531 68.3613 271.355 68.1855 271.141 68.0684C270.926 67.9316 270.672 67.8438 270.379 67.8047C270.105 67.7656 269.812 67.7461 269.5 67.7461H268.299C267.752 67.7461 267.293 67.6777 266.922 67.541C266.551 67.4043 266.365 67.0723 266.365 66.5449C266.365 66.3691 266.365 66.2129 266.365 66.0762C266.385 65.9395 266.434 65.7539 266.512 65.5195C267.449 65.5586 268.367 65.5293 269.266 65.4316C270.164 65.334 271.072 65.2852 271.99 65.2852H272.752C272.83 65.3047 272.986 65.3242 273.221 65.3438C273.475 65.3633 273.729 65.3828 273.982 65.4023C274.256 65.4219 274.51 65.4414 274.744 65.4609C274.979 65.4805 275.145 65.5 275.242 65.5195H289.012C289.598 65.5195 290.018 65.6758 290.271 65.9883C290.525 66.2812 290.711 66.6523 290.828 67.1016V68.7715V70.5C290.828 70.6172 290.809 70.832 290.77 71.1445C290.73 71.4375 290.682 71.7598 290.623 72.1113C290.584 72.4434 290.535 72.7754 290.477 73.1074C290.438 73.4199 290.408 73.6445 290.389 73.7812C290.35 73.8398 290.281 73.9277 290.184 74.0449C290.086 74.1426 290.018 74.1914 289.979 74.1914C289.979 74.2305 289.959 74.25 289.92 74.25H289.891H289.803C289.744 74.25 289.715 74.2305 289.715 74.1914C289.383 73.957 289.129 73.6934 288.953 73.4004C288.777 73.0879 288.631 72.7656 288.514 72.4336C288.396 72.1016 288.289 71.7695 288.191 71.4375C288.094 71.1055 287.947 70.793 287.752 70.5C287.713 70.4219 287.586 70.2949 287.371 70.1191C287.176 69.9238 287.068 69.8164 287.049 69.7969C287.01 69.7578 286.922 69.6504 286.785 69.4746C286.668 69.2988 286.531 69.1133 286.375 68.918C286.238 68.7031 286.102 68.5078 285.965 68.332C285.848 68.1562 285.77 68.0488 285.73 68.0098C285.652 67.834 285.564 67.7461 285.467 67.7461C285.447 67.7461 285.379 67.7363 285.262 67.7168C285.164 67.6973 285.047 67.6777 284.91 67.6582C284.793 67.6191 284.676 67.5898 284.559 67.5703C284.461 67.5508 284.412 67.5312 284.412 67.5117C284.354 67.5117 284.246 67.4922 284.09 67.4531C283.934 67.4141 283.758 67.375 283.562 67.3359C283.387 67.2969 283.221 67.2578 283.064 67.2188C282.908 67.1602 282.811 67.1211 282.771 67.1016H282.625C282.547 67.1016 282.439 67.1309 282.303 67.1895C282.166 67.2285 282.068 67.248 282.01 67.248H281.922C281.863 67.2285 281.697 67.209 281.424 67.1895C281.17 67.1699 280.887 67.1602 280.574 67.1602C280.262 67.1406 279.969 67.1309 279.695 67.1309C279.441 67.1113 279.285 67.1016 279.227 67.1016H279.139C278.787 67.1016 278.494 67.1699 278.26 67.3066C278.025 67.4434 277.83 67.6191 277.674 67.834C277.537 68.0488 277.41 68.293 277.293 68.5664C277.195 68.8203 277.098 69.0742 277 69.3281C276.98 69.543 276.941 69.8945 276.883 70.3828C276.844 70.8711 276.795 71.3887 276.736 71.9355C276.697 72.4824 276.658 73 276.619 73.4883C276.58 73.9766 276.561 74.3184 276.561 74.5137V74.748V74.8945C276.561 74.9922 276.57 75.1582 276.59 75.3926C276.609 75.627 276.629 75.8809 276.648 76.1543C276.668 76.4082 276.688 76.6621 276.707 76.916C276.746 77.1504 276.775 77.3066 276.795 77.3848C276.932 77.5605 277.088 77.7363 277.264 77.9121C277.459 78.0879 277.664 78.2051 277.879 78.2637H279.49C280.154 78.2637 280.73 78.2539 281.219 78.2344C281.727 78.2148 282.332 78.1562 283.035 78.0586C283.055 78.0195 283.084 77.9512 283.123 77.8535C283.162 77.7559 283.211 77.6582 283.27 77.5605C283.328 77.4629 283.377 77.375 283.416 77.2969C283.455 77.2188 283.484 77.1699 283.504 77.1504C283.582 77.0137 283.68 76.8184 283.797 76.5645C283.914 76.291 284.031 76.0273 284.148 75.7734C284.266 75.5 284.363 75.2656 284.441 75.0703C284.539 74.875 284.598 74.7676 284.617 74.748C284.656 74.6699 284.695 74.5039 284.734 74.25C284.773 73.9766 284.812 73.8203 284.852 73.7812C285.008 73.6055 285.213 73.4883 285.467 73.4297C285.721 73.3711 285.975 73.3418 286.229 73.3418C286.502 73.3418 286.668 73.4492 286.727 73.6641C286.805 73.8594 286.844 74.084 286.844 74.3379V75.0703V75.4219C286.844 75.5977 286.824 75.7734 286.785 75.9492C286.746 76.1055 286.678 76.2617 286.58 76.418C286.561 76.5938 286.541 76.8867 286.521 77.2969C286.502 77.707 286.482 78.1367 286.463 78.5859C286.443 79.0352 286.424 79.4648 286.404 79.875C286.385 80.2656 286.375 80.5391 286.375 80.6953V81.457V83.2148C286.355 83.2539 286.336 83.3418 286.316 83.4785C286.297 83.6152 286.277 83.7715 286.258 83.9473C286.258 84.1035 286.248 84.2598 286.229 84.416C286.209 84.5723 286.189 84.6797 286.17 84.7383C285.955 84.8945 285.76 85.0117 285.584 85.0898C285.428 85.168 285.232 85.207 284.998 85.207C284.842 85.207 284.695 85.1484 284.559 85.0312C284.422 84.8945 284.295 84.7285 284.178 84.5332C284.061 84.3379 283.963 84.1426 283.885 83.9473C283.807 83.7324 283.758 83.5371 283.738 83.3613C283.719 83.3027 283.689 83.1758 283.65 82.9805C283.631 82.7656 283.611 82.541 283.592 82.3066C283.572 82.0527 283.553 81.8184 283.533 81.6035C283.514 81.3887 283.504 81.2324 283.504 81.1348C283.445 81.0566 283.338 80.9883 283.182 80.9297C283.045 80.8516 282.908 80.7734 282.771 80.6953C282.654 80.6562 282.469 80.6074 282.215 80.5488C281.961 80.4902 281.688 80.4414 281.395 80.4023C281.121 80.3438 280.857 80.3047 280.604 80.2852C280.369 80.2461 280.213 80.2266 280.135 80.2266C280.076 80.2266 279.969 80.2266 279.812 80.2266C279.676 80.207 279.51 80.1973 279.314 80.1973C279.139 80.1973 278.963 80.1973 278.787 80.1973C278.611 80.1777 278.475 80.168 278.377 80.168C278.318 80.168 278.221 80.1777 278.084 80.1973C277.967 80.1973 277.84 80.1973 277.703 80.1973C277.586 80.1973 277.479 80.207 277.381 80.2266C277.283 80.2266 277.225 80.2266 277.205 80.2266L276.795 80.6953V81.6914C276.795 82.8438 276.756 83.957 276.678 85.0312C276.6 86.0859 276.561 87.1895 276.561 88.3418C276.561 88.9277 276.609 89.3574 276.707 89.6309C276.805 89.9043 276.961 90.0996 277.176 90.2168C277.391 90.334 277.664 90.4219 277.996 90.4805C278.328 90.5391 278.738 90.6367 279.227 90.7734C279.266 90.7734 279.334 90.8027 279.432 90.8613C279.529 90.9199 279.598 90.9785 279.637 91.0371H281.922H284.09C284.129 91.0371 284.217 91.0273 284.354 91.0078C284.49 90.9688 284.637 90.9395 284.793 90.9199C284.949 90.8809 285.086 90.8516 285.203 90.832C285.34 90.793 285.428 90.7734 285.467 90.7734H286.873H287.43C287.469 90.7734 287.537 90.7441 287.635 90.6855C287.732 90.6074 287.83 90.5293 287.928 90.4512C288.045 90.3535 288.143 90.2656 288.221 90.1875C288.299 90.1094 288.348 90.0703 288.367 90.0703C288.504 90.0117 288.611 89.9824 288.689 89.9824C288.787 89.9629 288.865 89.9531 288.924 89.9531C288.982 89.9336 289.041 89.9043 289.1 89.8652C289.158 89.8066 289.217 89.7188 289.275 89.6016C289.49 89.2891 289.646 88.9668 289.744 88.6348C289.842 88.3027 289.969 87.9707 290.125 87.6387C290.203 87.5801 290.301 87.4629 290.418 87.2871C290.535 87.0918 290.604 86.9648 290.623 86.9062C290.643 86.9062 290.701 86.877 290.799 86.8184C290.896 86.7402 290.994 86.6621 291.092 86.584C291.189 86.4863 291.277 86.3984 291.355 86.3203C291.434 86.2227 291.482 86.1543 291.502 86.1152C291.521 86.0566 291.561 85.9785 291.619 85.8809C291.697 85.7637 291.775 85.6465 291.854 85.5293C291.932 85.3926 292 85.2754 292.059 85.1777C292.137 85.0605 292.186 84.9824 292.205 84.9434C292.205 84.9238 292.234 84.8848 292.293 84.8262C292.332 84.8066 292.371 84.7773 292.41 84.7383C292.41 84.6992 292.42 84.6797 292.439 84.6797H292.498C292.791 84.6797 292.967 84.7969 293.025 85.0312C293.084 85.2461 293.113 85.4707 293.113 85.7051V86.3203C293.113 86.418 293.123 86.6523 293.143 87.0234C293.162 87.3945 293.172 87.7949 293.172 88.2246C293.191 88.6348 293.211 89.0254 293.23 89.3965C293.25 89.7676 293.26 89.9922 293.26 90.0703V90.1582C293.26 90.4121 293.211 90.7051 293.113 91.0371C293.016 91.3496 292.879 91.6523 292.703 91.9453C292.527 92.2383 292.312 92.4824 292.059 92.6777C291.824 92.873 291.57 92.9805 291.297 93C291.16 92.9805 290.906 92.9609 290.535 92.9414C290.184 92.9219 289.803 92.9023 289.393 92.8828C288.982 92.8633 288.592 92.8438 288.221 92.8242C287.85 92.8047 287.586 92.7754 287.43 92.7363H286.873H286.375C286.277 92.7754 286.053 92.8145 285.701 92.8535C285.35 92.873 284.969 92.8926 284.559 92.9121C284.168 92.9316 283.787 92.9512 283.416 92.9707C283.064 92.9902 282.85 93 282.771 93H271.668C271.609 93.0195 271.512 93.0391 271.375 93.0586C271.258 93.0781 271.121 93.0879 270.965 93.0879C270.828 93.1074 270.691 93.1172 270.555 93.1172C270.418 93.1367 270.32 93.1465 270.262 93.1465C270.262 93.1855 270.193 93.2051 270.057 93.2051C269.92 93.2051 269.793 93.1953 269.676 93.1758C269.559 93.1562 269.48 93.1465 269.441 93.1465C269.363 93.2051 269.207 93.2734 268.973 93.3516C268.738 93.4297 268.572 93.4688 268.475 93.4688C268.377 93.4688 268.211 93.4492 267.977 93.4102C267.762 93.3711 267.527 93.3223 267.273 93.2637C267.02 93.2246 266.775 93.1758 266.541 93.1172C266.307 93.0781 266.131 93.0391 266.014 93ZM307.059 73.6348C307.059 73.8301 307.059 74.0938 307.059 74.4258C307.059 74.7578 307.059 75.0898 307.059 75.4219C307.078 75.7344 307.088 76.0273 307.088 76.3008C307.107 76.5547 307.137 76.7012 307.176 76.7402C307.176 76.7402 307.176 76.8086 307.176 76.9453C307.195 77.0625 307.205 77.209 307.205 77.3848C307.225 77.541 307.244 77.707 307.264 77.8828C307.283 78.0391 307.303 78.166 307.322 78.2637C307.342 78.5176 307.381 78.8008 307.439 79.1133C307.498 79.4258 307.693 79.6602 308.025 79.8164C308.084 79.8359 308.172 79.8555 308.289 79.875C308.406 79.875 308.523 79.875 308.641 79.875C308.777 79.875 308.904 79.875 309.021 79.875C309.139 79.875 309.227 79.875 309.285 79.875C310.301 79.875 311.268 79.6016 312.186 79.0547C313.123 78.5078 313.963 77.8535 314.705 77.0918C315.135 76.4668 315.389 75.7441 315.467 74.9238C315.564 74.1035 315.613 73.3223 315.613 72.5801V70.8516C315.457 70.2852 315.203 69.709 314.852 69.123C314.5 68.5176 314.08 68.0488 313.592 67.7168C313.553 67.7168 313.445 67.6973 313.27 67.6582C313.113 67.5996 313.016 67.5508 312.977 67.5117C312.859 67.4531 312.693 67.3848 312.479 67.3066C312.264 67.209 312.117 67.1406 312.039 67.1016C311.766 67.0625 311.492 67.0332 311.219 67.0137C310.965 66.9746 310.711 66.9551 310.457 66.9551C310.203 66.9551 309.939 66.9746 309.666 67.0137C309.412 67.0332 309.148 67.0625 308.875 67.1016C308.738 67.1211 308.592 67.1797 308.436 67.2773C308.299 67.375 308.172 67.4922 308.055 67.6289C307.938 67.7461 307.84 67.8828 307.762 68.0391C307.684 68.1758 307.635 68.3027 307.615 68.4199C307.596 68.5566 307.557 68.752 307.498 69.0059C307.459 69.2598 307.41 69.5234 307.352 69.7969C307.312 70.0508 307.273 70.2852 307.234 70.5C307.195 70.6953 307.176 70.8125 307.176 70.8516C307.137 70.8711 307.107 70.9883 307.088 71.2031C307.088 71.418 307.078 71.6719 307.059 71.9648C307.059 72.2578 307.059 72.5605 307.059 72.873C307.059 73.1855 307.059 73.4395 307.059 73.6348ZM297.332 92.4434C297.332 92.1309 297.547 91.916 297.977 91.7988C298.426 91.6621 298.924 91.5547 299.471 91.4766C300.018 91.3789 300.535 91.2715 301.023 91.1543C301.531 91.0371 301.834 90.8418 301.932 90.5684C301.951 90.3926 301.98 90.0898 302.02 89.6602C302.059 89.2305 302.107 88.7812 302.166 88.3125C302.225 87.8242 302.273 87.375 302.312 86.9648C302.371 86.5547 302.42 86.2715 302.459 86.1152V85.793C302.459 85.1094 302.42 84.416 302.342 83.7129C302.283 83.0098 302.254 82.3066 302.254 81.6035V81.1934C302.254 81.1348 302.264 80.9785 302.283 80.7246C302.303 80.4707 302.322 80.207 302.342 79.9336C302.381 79.6406 302.41 79.377 302.43 79.1426C302.449 78.9082 302.459 78.7617 302.459 78.7031C302.459 78.6836 302.459 78.5176 302.459 78.2051C302.459 77.873 302.459 77.4922 302.459 77.0625C302.479 76.6328 302.488 76.1934 302.488 75.7441C302.488 75.2949 302.488 74.9336 302.488 74.6602C302.488 74.5039 302.488 74.2402 302.488 73.8691C302.488 73.498 302.479 73.1074 302.459 72.6973C302.459 72.2676 302.459 71.8672 302.459 71.4961C302.459 71.1055 302.459 70.8223 302.459 70.6465C302.459 70.1582 302.361 69.7383 302.166 69.3867C301.971 69.0156 301.756 68.625 301.521 68.2148C301.385 67.9805 301.102 67.8145 300.672 67.7168C300.262 67.5996 299.832 67.5117 299.383 67.4531C298.953 67.375 298.562 67.2871 298.211 67.1895C297.859 67.0723 297.684 66.877 297.684 66.6035C297.684 66.5059 297.732 66.3691 297.83 66.1934C297.947 65.998 298.064 65.8613 298.182 65.7832H299.969C300.047 65.7637 300.232 65.7441 300.525 65.7246C300.818 65.6855 301.121 65.6562 301.434 65.6367C301.766 65.5977 302.068 65.5684 302.342 65.5488C302.635 65.5293 302.82 65.5195 302.898 65.5195H304.92C304.939 65.5195 304.998 65.5098 305.096 65.4902C305.213 65.4707 305.33 65.4512 305.447 65.4316C305.584 65.3926 305.701 65.3633 305.799 65.3438C305.916 65.3047 305.994 65.2852 306.033 65.2852H306.355H306.707C306.746 65.2852 306.824 65.2949 306.941 65.3145C307.078 65.3145 307.215 65.3242 307.352 65.3438C307.508 65.3438 307.645 65.3535 307.762 65.373C307.898 65.373 307.986 65.373 308.025 65.373C308.084 65.373 308.221 65.373 308.436 65.373C308.65 65.3535 308.885 65.3438 309.139 65.3438C309.393 65.3242 309.637 65.3145 309.871 65.3145C310.105 65.2949 310.252 65.2852 310.311 65.2852H311.365H312.479C312.498 65.2852 312.566 65.3047 312.684 65.3438C312.801 65.3633 312.918 65.3828 313.035 65.4023C313.172 65.4219 313.289 65.4414 313.387 65.4609C313.504 65.4805 313.572 65.4902 313.592 65.4902C313.631 65.4902 313.738 65.4902 313.914 65.4902C314.09 65.4902 314.275 65.5 314.471 65.5195C314.686 65.5195 314.881 65.5195 315.057 65.5195C315.252 65.5195 315.379 65.5195 315.438 65.5195C315.613 65.5586 315.857 65.666 316.17 65.8418C316.502 66.0176 316.756 66.1543 316.932 66.252C316.971 66.252 317.059 66.2715 317.195 66.3105C317.352 66.3301 317.508 66.3594 317.664 66.3984C317.82 66.4375 317.967 66.4766 318.104 66.5156C318.24 66.5547 318.328 66.584 318.367 66.6035C319.109 67.1699 319.666 67.8535 320.037 68.6543C320.428 69.4355 320.73 70.2656 320.945 71.1445C320.984 71.1445 321.004 71.1836 321.004 71.2617C321.004 71.3398 321.004 71.418 321.004 71.4961C321.004 71.9648 320.975 72.4531 320.916 72.9609C320.877 73.4688 320.799 73.9766 320.682 74.4844C320.564 74.9727 320.398 75.4414 320.184 75.8906C319.988 76.3398 319.734 76.7402 319.422 77.0918C319.109 77.4824 318.738 77.8828 318.309 78.293C317.879 78.7031 317.42 78.9766 316.932 79.1133C316.834 79.1719 316.688 79.2207 316.492 79.2598C316.316 79.2988 316.121 79.3574 315.906 79.4355C315.711 79.5137 315.535 79.6211 315.379 79.7578C315.242 79.875 315.174 80.0312 315.174 80.2266C315.174 80.4609 315.311 80.8223 315.584 81.3105C315.857 81.7793 316.17 82.2773 316.521 82.8047C316.873 83.3125 317.225 83.791 317.576 84.2402C317.928 84.6895 318.191 85.0117 318.367 85.207C318.387 85.2656 318.484 85.4121 318.66 85.6465C318.836 85.8809 319.041 86.1445 319.275 86.4375C319.51 86.7109 319.744 86.9844 319.979 87.2578C320.213 87.5312 320.398 87.7363 320.535 87.873C320.633 87.9707 320.701 88.0586 320.74 88.1367C320.936 88.2734 321.18 88.4688 321.473 88.7227C321.766 88.957 322.049 89.1914 322.322 89.4258C322.615 89.6602 322.869 89.8652 323.084 90.041C323.318 90.2168 323.455 90.3047 323.494 90.3047C323.494 90.3242 323.533 90.3633 323.611 90.4219C323.709 90.4805 323.816 90.5488 323.934 90.627C324.051 90.7051 324.168 90.7832 324.285 90.8613C324.402 90.9199 324.51 90.959 324.607 90.9785C324.705 91.0371 324.852 91.1152 325.047 91.2129C325.262 91.3105 325.467 91.4277 325.662 91.5645C325.857 91.6816 326.023 91.8184 326.16 91.9746C326.297 92.1113 326.346 92.248 326.307 92.3848C326.307 92.4824 326.248 92.5703 326.131 92.6484C326.033 92.7266 325.906 92.7949 325.75 92.8535C325.613 92.8926 325.467 92.9316 325.311 92.9707C325.174 92.9902 325.066 93 324.988 93H316.287C316.111 93 315.906 93 315.672 93C315.457 92.9805 315.242 92.9414 315.027 92.8828C314.832 92.8242 314.656 92.7266 314.5 92.5898C314.363 92.4531 314.295 92.248 314.295 91.9746C314.295 91.8379 314.373 91.7012 314.529 91.5645C314.686 91.4082 314.861 91.2617 315.057 91.125C315.271 90.9883 315.477 90.8516 315.672 90.7148C315.887 90.5781 316.043 90.4414 316.141 90.3047V90.2754V90.0703C316.082 89.9922 316.014 89.8848 315.936 89.748C315.857 89.6113 315.779 89.4746 315.701 89.3379C315.643 89.1816 315.584 89.0547 315.525 88.957C315.467 88.8398 315.438 88.7715 315.438 88.752C315.379 88.6934 315.252 88.5371 315.057 88.2832C314.861 88.0098 314.646 87.7266 314.412 87.4336C314.178 87.1406 313.963 86.8672 313.768 86.6133C313.572 86.3594 313.445 86.1934 313.387 86.1152C313.035 85.627 312.693 85.1875 312.361 84.7969C312.029 84.4062 311.688 84.0352 311.336 83.6836C310.984 83.332 310.604 83 310.193 82.6875C309.803 82.3555 309.363 81.9941 308.875 81.6035C308.719 81.4668 308.572 81.3203 308.436 81.1641C308.318 81.0078 308.143 80.9297 307.908 80.9297H307.762C307.723 80.9688 307.693 81.0078 307.674 81.0469C307.635 81.125 307.615 81.1738 307.615 81.1934C307.596 81.4082 307.557 81.7891 307.498 82.3359C307.459 82.8828 307.41 83.4688 307.352 84.0938C307.312 84.6992 307.273 85.2852 307.234 85.8516C307.195 86.3984 307.176 86.7695 307.176 86.9648C307.117 86.9648 307.078 87.0332 307.059 87.1699C307.059 87.3066 307.059 87.3945 307.059 87.4336C307.059 87.5117 307.059 87.6094 307.059 87.7266C307.078 87.8242 307.117 87.873 307.176 87.873C307.176 87.9707 307.195 88.1367 307.234 88.3711C307.273 88.6055 307.312 88.8594 307.352 89.1328C307.41 89.3867 307.459 89.6309 307.498 89.8652C307.557 90.0801 307.596 90.2266 307.615 90.3047C307.615 90.3633 307.635 90.4512 307.674 90.5684C307.732 90.6855 307.791 90.8027 307.85 90.9199C307.928 91.0371 307.996 91.1445 308.055 91.2422C308.133 91.3398 308.191 91.3887 308.23 91.3887H310.311C310.311 91.4277 310.32 91.4668 310.34 91.5059C310.398 91.6035 310.438 91.6621 310.457 91.6816C310.594 91.8574 310.672 91.9746 310.691 92.0332C310.711 92.0918 310.721 92.209 310.721 92.3848C310.721 92.5996 310.613 92.7461 310.398 92.8242C310.203 92.9023 309.998 92.9609 309.783 93H308.523C307.254 93 306.004 93.0293 304.773 93.0879C303.543 93.166 302.273 93.2051 300.965 93.2051H298.387C298.113 93.2051 297.869 93.1562 297.654 93.0586C297.439 92.9609 297.332 92.7559 297.332 92.4434ZM335.799 92.7949C335.799 92.541 335.857 92.3457 335.975 92.209C336.092 92.0527 336.238 91.9258 336.414 91.8281C336.609 91.7305 336.893 91.6523 337.264 91.5938C337.635 91.5156 338.006 91.4375 338.377 91.3594C338.768 91.2617 339.109 91.1445 339.402 91.0078C339.695 90.8516 339.871 90.6367 339.93 90.3633V89.748V89.4551C339.93 89.3184 339.93 89.0156 339.93 88.5469C339.949 88.0586 339.959 87.502 339.959 86.877C339.979 86.2324 339.998 85.5488 340.018 84.8262C340.037 84.1035 340.047 83.4199 340.047 82.7754C340.066 82.1309 340.076 81.5742 340.076 81.1055C340.096 80.6172 340.105 80.2949 340.105 80.1387V75.0703V70.0312C340.008 69.6797 339.773 69.377 339.402 69.123C339.051 68.8496 338.68 68.7129 338.289 68.7129H334.539C334.402 68.7129 334.207 68.7715 333.953 68.8887C333.699 69.0059 333.523 69.084 333.426 69.123C332.684 69.5723 332.088 70.0605 331.639 70.5879C331.189 71.0957 330.74 71.6523 330.291 72.2578C330.252 72.2969 330.193 72.3652 330.115 72.4629C330.057 72.5605 329.988 72.6777 329.91 72.8145C329.852 72.9316 329.783 73.0488 329.705 73.166C329.646 73.2637 329.607 73.332 329.588 73.3711C329.549 73.4688 329.48 73.5957 329.383 73.752C329.285 73.9082 329.178 74.0645 329.061 74.2207C328.943 74.377 328.816 74.5137 328.68 74.6309C328.562 74.748 328.455 74.8066 328.357 74.8066C328.162 74.8066 327.996 74.7578 327.859 74.6602C327.742 74.5625 327.645 74.4355 327.566 74.2793C327.508 74.123 327.459 73.957 327.42 73.7812C327.4 73.5859 327.391 73.4004 327.391 73.2246C327.391 72.7949 327.43 72.3848 327.508 71.9941C327.586 71.6035 327.664 71.1934 327.742 70.7637C327.801 70.5098 327.859 70.1191 327.918 69.5918C327.996 69.0449 328.094 68.5078 328.211 67.9805C328.328 67.4336 328.494 66.9551 328.709 66.5449C328.924 66.1348 329.217 65.9297 329.588 65.9297C329.607 65.9297 329.646 65.9395 329.705 65.959C329.764 65.959 329.812 65.959 329.852 65.959C329.91 65.9785 329.969 65.9883 330.027 65.9883C330.086 66.0273 330.203 66.0957 330.379 66.1934C330.555 66.2715 330.74 66.3594 330.936 66.457C331.15 66.5547 331.346 66.6426 331.521 66.7207C331.697 66.7988 331.805 66.8379 331.844 66.8379C331.863 66.8574 331.922 66.877 332.02 66.8965C332.137 66.8965 332.254 66.8965 332.371 66.8965C332.508 66.8965 332.635 66.8965 332.752 66.8965C332.869 66.8965 332.947 66.8965 332.986 66.8965C332.986 66.8965 333.035 66.916 333.133 66.9551C333.25 66.9746 333.367 67.0039 333.484 67.043C333.621 67.082 333.738 67.1211 333.836 67.1602C333.953 67.1797 334.021 67.1895 334.041 67.1895C335.018 67.1895 335.984 67.1016 336.941 66.9258C337.918 66.7305 338.895 66.6328 339.871 66.6328C341.59 66.6328 343.289 66.7305 344.969 66.9258C346.668 67.1016 348.367 67.1895 350.066 67.1895H351.561C351.6 67.1699 351.697 67.1406 351.854 67.1016C352.01 67.043 352.176 66.9941 352.352 66.9551C352.527 66.8965 352.703 66.8379 352.879 66.7793C353.055 66.7207 353.182 66.6719 353.26 66.6328C353.436 66.5742 353.582 66.5059 353.699 66.4277C353.816 66.3301 353.924 66.2324 354.021 66.1348C354.139 66.0371 354.266 65.959 354.402 65.9004C354.539 65.8223 354.715 65.7832 354.93 65.7832C355.301 65.7832 355.594 65.959 355.809 66.3105C356.043 66.6426 356.219 67.043 356.336 67.5117C356.473 67.9805 356.57 68.459 356.629 68.9473C356.707 69.416 356.795 69.7773 356.893 70.0312C356.971 70.4414 357.088 70.8613 357.244 71.291C357.42 71.7207 357.508 72.1699 357.508 72.6387C357.508 72.7754 357.488 72.9316 357.449 73.1074C357.43 73.2832 357.381 73.4492 357.303 73.6055C357.225 73.7422 357.117 73.8594 356.98 73.957C356.844 74.0547 356.678 74.1035 356.482 74.1035C356.287 74.1035 356.053 73.957 355.779 73.6641C355.506 73.3516 355.213 73.0098 354.9 72.6387C354.607 72.248 354.314 71.8672 354.021 71.4961C353.748 71.125 353.494 70.8809 353.26 70.7637C353.221 70.7441 353.133 70.6953 352.996 70.6172C352.879 70.5391 352.742 70.4609 352.586 70.3828C352.449 70.3047 352.312 70.2363 352.176 70.1777C352.059 70.0996 351.98 70.0508 351.941 70.0312C351.57 69.8164 351.209 69.582 350.857 69.3281C350.525 69.0742 350.154 68.8691 349.744 68.7129C349.686 68.7129 349.578 68.7129 349.422 68.7129C349.285 68.7129 349.139 68.7129 348.982 68.7129C348.826 68.6934 348.68 68.6836 348.543 68.6836C348.426 68.6836 348.338 68.6836 348.279 68.6836H347.723C347.312 68.6836 346.893 68.7129 346.463 68.7715C346.033 68.8301 345.711 69.0156 345.496 69.3281C345.496 69.4844 345.506 69.7285 345.525 70.0605C345.545 70.3926 345.555 70.7539 345.555 71.1445C345.555 71.5352 345.545 71.8965 345.525 72.2285C345.506 72.5605 345.496 72.7949 345.496 72.9316C345.496 72.9707 345.477 73.0391 345.438 73.1367C345.418 73.2148 345.389 73.3027 345.35 73.4004C345.311 73.498 345.271 73.5957 345.232 73.6934C345.213 73.7715 345.193 73.8203 345.174 73.8398V82.7754C344.998 83.127 344.891 83.4004 344.852 83.5957C344.812 83.791 344.793 84.0547 344.793 84.3867V84.8262C344.793 84.8652 344.803 84.9531 344.822 85.0898C344.861 85.207 344.891 85.3438 344.91 85.5C344.949 85.6367 344.979 85.7734 344.998 85.9102C345.018 86.0273 345.027 86.1055 345.027 86.1445V89.4551C345.086 89.8652 345.184 90.2266 345.32 90.5391C345.457 90.8516 345.75 91.0273 346.199 91.0664C346.277 91.0859 346.434 91.1055 346.668 91.125C346.922 91.1445 347.186 91.1641 347.459 91.1836C347.752 91.2031 348.025 91.2227 348.279 91.2422C348.553 91.2617 348.738 91.2715 348.836 91.2715C348.973 91.3691 349.08 91.5059 349.158 91.6816C349.256 91.8379 349.305 92.0039 349.305 92.1797C349.305 92.3359 349.266 92.4531 349.188 92.5312C349.129 92.6094 349.012 92.7168 348.836 92.8535C347.879 92.834 346.863 92.8438 345.789 92.8828C344.734 92.9023 343.66 92.9316 342.566 92.9707C341.492 92.9902 340.428 93.0098 339.373 93.0293C338.318 93.0684 337.332 93.0879 336.414 93.0879C336.258 93.0879 336.111 93.0781 335.975 93.0586C335.857 93.0391 335.799 92.9512 335.799 92.7949Z" fill="#55FF05"/>
</svg>
