<svg width="354" height="44" viewBox="0 0 354 44" fill="none" xmlns="http://www.w3.org/2000/svg">
<path d="M0.704712 40.8613V40.2168C0.704712 40.1973 0.724243 40.1191 0.763306 39.9824C0.802368 39.8457 0.851196 39.709 0.90979 39.5723C0.968384 39.416 1.01721 39.2793 1.05627 39.1621C1.09534 39.0254 1.11487 38.9375 1.11487 38.8984C1.1344 38.8203 1.15393 38.6348 1.17346 38.3418C1.21252 38.0293 1.25159 37.6973 1.29065 37.3457C1.32971 36.9941 1.35901 36.6523 1.37854 36.3203C1.4176 35.9688 1.43713 35.7148 1.43713 35.5586V30.168C1.43713 30.0508 1.4469 29.8945 1.46643 29.6992C1.50549 29.5039 1.55432 29.3184 1.61292 29.1426C1.69104 28.9473 1.77893 28.7812 1.87659 28.6445C1.99377 28.4883 2.13049 28.4102 2.28674 28.4102C2.63831 28.4102 2.90198 28.498 3.07776 28.6738C3.27307 28.8496 3.41956 29.0645 3.51721 29.3184C3.6344 29.5527 3.71252 29.8164 3.75159 30.1094C3.79065 30.4023 3.82971 30.666 3.86877 30.9004C4.16174 32.3652 4.68909 33.7422 5.45081 35.0312C6.23206 36.3203 7.20862 37.4922 8.38049 38.5469C8.47815 38.625 8.6051 38.7324 8.76135 38.8691C8.93713 39.0059 9.10315 39.1426 9.2594 39.2793C9.45471 39.4551 9.65002 39.6309 9.84534 39.8066C9.94299 39.8652 10.1188 39.9434 10.3727 40.041C10.6266 40.1191 10.9 40.207 11.193 40.3047C11.486 40.4023 11.7594 40.4902 12.0133 40.5684C12.2672 40.6465 12.4528 40.6953 12.5699 40.7148C12.6285 40.7148 12.775 40.7246 13.0094 40.7441C13.2633 40.7441 13.527 40.7539 13.8004 40.7734C14.0739 40.7734 14.3278 40.7832 14.5621 40.8027C14.7965 40.8027 14.943 40.8125 15.0016 40.832C15.0406 40.832 15.1578 40.8516 15.3531 40.8906C15.568 40.9102 15.6852 40.9199 15.7047 40.9199H16.0856C16.3395 40.9199 16.5739 40.8711 16.7887 40.7734C17.0231 40.6562 17.277 40.5684 17.5504 40.5098C17.8239 40.4316 18.0875 40.3828 18.3414 40.3633C18.5953 40.3242 18.8395 40.2266 19.0739 40.0703C19.4059 39.8359 19.7281 39.6211 20.0406 39.4258C20.3727 39.2109 20.6754 38.9863 20.9489 38.752C21.2223 38.5176 21.4664 38.2539 21.6813 37.9609C21.9156 37.6484 22.111 37.2871 22.2672 36.877C22.2672 36.8574 22.277 36.7793 22.2965 36.6426C22.316 36.5059 22.3258 36.3691 22.3258 36.2324C22.3453 36.0762 22.3649 35.9395 22.3844 35.8223C22.4039 35.6855 22.4137 35.5977 22.4137 35.5586C22.4332 35.5195 22.4723 35.4316 22.5309 35.2949C22.609 35.1582 22.6871 35.0215 22.7653 34.8848C22.8629 34.7285 22.941 34.5918 22.9996 34.4746C23.0778 34.3379 23.1168 34.2598 23.1168 34.2402C23.1168 34.2012 23.1266 34.0449 23.1461 33.7715C23.1656 33.498 23.1754 33.2832 23.1754 33.127C23.1754 32.4434 23.068 31.7891 22.8531 31.1641C22.6383 30.5391 22.3453 29.9629 21.9742 29.4355C21.6227 28.8887 21.193 28.4004 20.6852 27.9707C20.1969 27.5215 19.6598 27.1406 19.0739 26.8281C19.0348 26.7891 18.8883 26.7598 18.6344 26.7402C18.3805 26.7012 18.234 26.6621 18.1949 26.623C18.1364 26.6035 17.9899 26.5449 17.7555 26.4473C17.5406 26.3301 17.3063 26.2129 17.0524 26.0957C16.7985 25.959 16.5543 25.8418 16.3199 25.7441C16.1051 25.627 15.9684 25.5488 15.9098 25.5098C15.9098 25.4902 15.8414 25.4609 15.7047 25.4219C15.5875 25.3828 15.4508 25.3438 15.2946 25.3047C15.1383 25.2461 14.9821 25.1973 14.8258 25.1582C14.6891 25.0996 14.611 25.0703 14.5914 25.0703C14.5719 25.0508 14.4938 25.0117 14.3571 24.9531C14.2399 24.875 14.1031 24.8066 13.9469 24.748C13.8102 24.6895 13.6735 24.6406 13.5367 24.6016C13.4196 24.543 13.3317 24.5137 13.2731 24.5137C13.1168 24.4746 12.9313 24.4453 12.7164 24.4258C12.5211 24.4062 12.4039 24.3965 12.3649 24.3965C11.2711 24.1426 10.109 23.7812 8.87854 23.3125C7.6676 22.8242 6.60315 22.2871 5.68518 21.7012C5.64612 21.6816 5.57776 21.623 5.4801 21.5254C5.40198 21.4277 5.31409 21.3301 5.21643 21.2324C5.11877 21.1152 5.02112 21.0078 4.92346 20.9102C4.84534 20.8125 4.79651 20.7637 4.77698 20.7637C4.73792 20.7637 4.65002 20.7344 4.51331 20.6758C4.37659 20.6172 4.30823 20.5781 4.30823 20.5586C4.26917 20.5586 4.2301 20.5293 4.19104 20.4707C4.15198 20.3926 4.11292 20.3535 4.07385 20.3535C4.05432 20.3145 3.99573 20.2168 3.89807 20.0605C3.81995 19.9043 3.73206 19.7383 3.6344 19.5625C3.53674 19.3867 3.43909 19.2207 3.34143 19.0645C3.26331 18.9082 3.21448 18.8105 3.19495 18.7715C2.88245 18.2637 2.55042 17.7559 2.19885 17.248C1.84729 16.7402 1.59338 16.2031 1.43713 15.6367C1.28088 15.0117 1.15393 14.3574 1.05627 13.6738C0.958618 12.9902 0.90979 12.3457 0.90979 11.7402C0.90979 11.291 0.919556 10.8125 0.939087 10.3047C0.958618 9.79688 1.01721 9.33789 1.11487 8.92773C1.15393 8.88867 1.25159 8.78125 1.40784 8.60547C1.56409 8.41016 1.64221 8.2832 1.64221 8.22461C1.68127 8.16602 1.7301 8.08789 1.7887 7.99023C1.84729 7.87305 1.90588 7.75586 1.96448 7.63867C2.0426 7.52148 2.11096 7.42383 2.16956 7.3457C2.22815 7.24805 2.26721 7.18945 2.28674 7.16992C3.04846 5.82227 3.98596 4.65039 5.09924 3.6543C6.21252 2.6582 7.52112 1.93555 9.02502 1.48633C9.06409 1.48633 9.17151 1.4668 9.34729 1.42773C9.52307 1.36914 9.64026 1.33984 9.69885 1.33984C9.77698 1.30078 9.92346 1.25195 10.1383 1.19336C10.3727 1.11523 10.5094 1.07617 10.5485 1.07617C10.568 1.07617 10.6656 1.07617 10.8414 1.07617C11.0172 1.05664 11.2125 1.04688 11.4274 1.04688C11.6617 1.02734 11.8961 1.01758 12.1305 1.01758C12.3649 0.998047 12.5504 0.988281 12.6871 0.988281C12.7653 0.988281 12.8922 0.998047 13.068 1.01758C13.2438 1.03711 13.4293 1.05664 13.6246 1.07617C13.8395 1.07617 14.0348 1.08594 14.2106 1.10547C14.4059 1.125 14.5524 1.13477 14.65 1.13477C14.7867 1.17383 14.943 1.22266 15.1188 1.28125C15.3141 1.32031 15.4313 1.33984 15.4703 1.33984C15.8024 1.35938 16.0856 1.37891 16.3199 1.39844C16.5739 1.39844 16.8278 1.42773 17.0817 1.48633C17.3356 1.52539 17.609 1.60352 17.902 1.7207C18.2145 1.81836 18.6051 1.97461 19.0739 2.18945C19.5621 2.42383 20.0114 2.64844 20.4215 2.86328C20.8512 3.07812 21.1442 3.22461 21.3004 3.30273C21.3395 3.3418 21.4567 3.42969 21.652 3.56641C21.8473 3.68359 21.9449 3.77148 21.9449 3.83008H22.3551C22.5699 3.83008 22.7555 3.78125 22.9117 3.68359C23.068 3.58594 23.2047 3.46875 23.3219 3.33203C23.4586 3.19531 23.5856 3.04883 23.7028 2.89258C23.8199 2.7168 23.9469 2.57031 24.0836 2.45312C24.1227 2.39453 24.2008 2.28711 24.318 2.13086C24.4547 1.97461 24.6012 1.80859 24.7574 1.63281C24.9332 1.45703 25.0895 1.30078 25.2262 1.16406C25.3824 1.00781 25.4899 0.900391 25.5485 0.841797H25.8121C26.027 0.841797 26.1832 0.939453 26.2809 1.13477C26.3785 1.33008 26.4371 1.53516 26.4567 1.75C26.4567 1.76953 26.4664 1.87695 26.486 2.07227C26.5055 2.24805 26.525 2.45312 26.5446 2.6875C26.5641 2.92188 26.5836 3.16602 26.6031 3.41992C26.6227 3.6543 26.6422 3.83984 26.6617 3.97656V4.18164V4.24023C26.6031 4.65039 26.5446 5.22656 26.486 5.96875C26.4274 6.71094 26.359 7.45313 26.2809 8.19531C26.2223 8.9375 26.1637 9.60156 26.1051 10.1875C26.066 10.7539 26.0367 11.0859 26.0172 11.1836C25.9586 11.6914 25.8121 12.1602 25.5778 12.5898C25.3629 13 24.9625 13.2051 24.3766 13.2051C24.2594 13.2051 24.0739 13.1953 23.8199 13.1758C23.5856 13.1563 23.4196 13.0781 23.3219 12.9414C23.0875 12.6484 22.8922 12.3359 22.736 12.0039C22.5992 11.6719 22.4625 11.3496 22.3258 11.0371C22.1891 10.7051 22.0426 10.373 21.8864 10.041C21.7301 9.70898 21.5348 9.39648 21.3004 9.10352C21.027 8.77148 20.7438 8.41992 20.4508 8.04883C20.1774 7.67773 19.8844 7.31641 19.5719 6.96484C19.2594 6.59375 18.9371 6.24219 18.6051 5.91016C18.2731 5.57813 17.9215 5.28516 17.5504 5.03125C17.5114 5.03125 17.443 5.02148 17.3453 5.00195C17.2672 4.96289 17.1793 4.92383 17.0817 4.88477C16.984 4.8457 16.8864 4.80664 16.7887 4.76758C16.7106 4.72852 16.6617 4.69922 16.6422 4.67969C16.6031 4.66016 16.5348 4.61133 16.4371 4.5332C16.3395 4.43555 16.2223 4.33789 16.0856 4.24023C15.9684 4.12305 15.8512 4.02539 15.734 3.94727C15.6168 3.86914 15.5289 3.83008 15.4703 3.83008C15.4703 3.81055 15.4215 3.79102 15.3239 3.77148C15.2262 3.73242 15.109 3.70313 14.9723 3.68359C14.8356 3.66406 14.6891 3.64453 14.5328 3.625C14.3961 3.60547 14.2887 3.58594 14.2106 3.56641C14.1129 3.54687 13.9567 3.52734 13.7418 3.50781C13.5465 3.48828 13.3414 3.46875 13.1266 3.44922C12.9117 3.41016 12.7067 3.38086 12.5114 3.36133C12.3356 3.3418 12.2086 3.32227 12.1305 3.30273H11.8082C10.6559 3.30273 9.68909 3.53711 8.90784 4.00586C8.14612 4.45508 7.46252 5.11914 6.85706 5.99805C6.60315 6.34961 6.37854 6.64258 6.18323 6.87695C5.98792 7.0918 5.8219 7.30664 5.68518 7.52148C5.56799 7.7168 5.4801 7.95117 5.42151 8.22461C5.36292 8.47852 5.33362 8.82031 5.33362 9.25C5.33362 9.34766 5.33362 9.45508 5.33362 9.57227C5.33362 9.66992 5.34338 9.76758 5.36292 9.86523C5.38245 9.98242 5.40198 10.0996 5.42151 10.2168C5.44104 10.3145 5.5094 10.4902 5.62659 10.7441C5.74377 10.998 5.88049 11.2715 6.03674 11.5645C6.19299 11.8379 6.33948 12.1113 6.4762 12.3848C6.63245 12.6387 6.7594 12.8242 6.85706 12.9414C6.85706 12.9805 6.90588 13.0586 7.00354 13.1758C7.12073 13.293 7.24768 13.4297 7.3844 13.5859C7.52112 13.7227 7.64807 13.8594 7.76526 13.9961C7.90198 14.1133 7.99963 14.2012 8.05823 14.2598C8.83948 14.9629 9.68909 15.5391 10.6071 15.9883C11.5446 16.418 12.4918 16.7891 13.4489 17.1016C14.4254 17.3945 15.402 17.668 16.3785 17.9219C17.3746 18.1562 18.3414 18.4395 19.2789 18.7715C19.4352 19.0254 19.65 19.1719 19.9235 19.2109C20.1969 19.2305 20.4703 19.3086 20.7438 19.4453C20.9 19.5625 21.1051 19.6895 21.359 19.8262C21.6129 19.9629 21.8668 20.1094 22.1207 20.2656C22.3942 20.4219 22.6578 20.5879 22.9117 20.7637C23.1852 20.9199 23.4098 21.0859 23.5856 21.2617C23.6442 21.3008 23.7223 21.3691 23.8199 21.4668C23.9176 21.5645 24.025 21.6719 24.1422 21.7891C24.2594 21.8867 24.3668 21.9844 24.4645 22.082C24.5621 22.1797 24.6403 22.2578 24.6989 22.3164C24.6989 22.375 24.7672 22.4922 24.9039 22.668C25.0406 22.8438 25.1188 22.9512 25.1383 22.9902C25.5875 23.498 26.0465 23.9961 26.5153 24.4844C27.0035 24.9531 27.3746 25.5195 27.6285 26.1836C27.6676 26.3398 27.7164 26.5254 27.775 26.7402C27.8531 26.9551 27.9313 27.1699 28.0094 27.3848C28.0875 27.6191 28.1852 27.873 28.3024 28.1465C28.3805 28.5566 28.4293 28.957 28.4489 29.3477C28.4684 29.7188 28.4781 30.0996 28.4781 30.4902C28.4781 30.998 28.4586 31.5059 28.4196 32.0137C28.3805 32.502 28.3414 33 28.3024 33.5078C28.1266 33.9375 27.9606 34.3379 27.8043 34.709C27.6481 35.0801 27.4918 35.4414 27.3356 35.793C27.1793 36.1445 27.0133 36.5059 26.8375 36.877C26.6617 37.2285 26.4664 37.5996 26.2516 37.9902C26.2125 38.0098 26.1344 38.0586 26.0172 38.1367C25.9196 38.1953 25.8512 38.2441 25.8121 38.2832C25.4996 38.5566 25.2262 38.8105 24.9918 39.0449C24.7574 39.2793 24.5231 39.5137 24.2887 39.748C24.0739 39.9824 23.8297 40.2168 23.5563 40.4512C23.3024 40.6855 22.9899 40.9297 22.6188 41.1836C21.9938 41.6133 21.3004 41.9746 20.5387 42.2676C19.777 42.541 18.9957 42.7852 18.1949 43C17.8043 43.0781 17.4918 43.1172 17.2574 43.1172C17.0426 43.1172 16.7692 43.1953 16.4371 43.3516C16.3395 43.3516 16.1735 43.3516 15.9391 43.3516C15.7242 43.3711 15.4996 43.3809 15.2653 43.3809C15.0309 43.3809 14.816 43.3809 14.6207 43.3809C14.4254 43.4004 14.2887 43.4102 14.2106 43.4102C13.2731 43.4102 12.3453 43.3906 11.4274 43.3516C10.5289 43.332 9.64026 43.2148 8.76135 43C8.39026 42.8633 7.98987 42.7461 7.56018 42.6484C7.15002 42.5312 6.7301 42.3945 6.30042 42.2383C6.24182 42.2188 6.18323 42.1895 6.12463 42.1504C6.00745 42.1113 5.92932 42.0723 5.89026 42.0332C5.87073 42.0332 5.81213 42.0234 5.71448 42.0039C5.61682 41.9844 5.5094 41.9746 5.39221 41.9746C5.27502 41.9551 5.15784 41.9355 5.04065 41.916C4.92346 41.8965 4.83557 41.8867 4.77698 41.8867H4.65979H4.45471C4.37659 41.9258 4.22034 42.0039 3.98596 42.1211C3.75159 42.2383 3.48792 42.375 3.19495 42.5312C2.92151 42.668 2.64807 42.7949 2.37463 42.9121C2.12073 43.0293 1.93518 43.1074 1.81799 43.1465C1.73987 43.2051 1.61292 43.2539 1.43713 43.293C1.26135 43.332 1.15393 43.3516 1.11487 43.3516C1.03674 43.3516 0.968384 43.2441 0.90979 43.0293C0.870728 42.8145 0.831665 42.5703 0.792603 42.2969C0.773071 42.0039 0.75354 41.7207 0.734009 41.4473C0.714478 41.1738 0.704712 40.9785 0.704712 40.8613ZM40.5778 31.3984C40.5778 31.6719 40.7047 31.8672 40.9586 31.9844C41.2125 32.1016 41.4469 32.1602 41.6617 32.1602H43.2145C43.4293 32.1602 43.6442 32.1699 43.859 32.1895C44.0739 32.209 44.2887 32.2188 44.5035 32.2188C45.0114 32.2188 45.4508 32.1406 45.8219 31.9844C46.193 31.8086 46.3785 31.4277 46.3785 30.8418V30.3438C46.2028 29.4453 45.9391 28.5566 45.5875 27.6777C45.236 26.7793 44.9039 25.9102 44.5914 25.0703C44.5524 24.9336 44.4938 24.7871 44.4156 24.6309C44.3571 24.4551 44.2789 24.2988 44.1813 24.1621C44.0836 24.0059 43.9762 23.8789 43.859 23.7812C43.7418 23.6836 43.6149 23.6348 43.4781 23.6348C43.2242 23.6348 43.0192 23.7422 42.8629 23.957C42.7262 24.1719 42.609 24.4258 42.5114 24.7188C42.4332 25.0117 42.3649 25.3145 42.3063 25.627C42.2477 25.9199 42.1793 26.1543 42.1012 26.3301C42.0426 26.5059 41.9352 26.8184 41.7789 27.2676C41.6422 27.7168 41.4957 28.1953 41.3395 28.7031C41.1832 29.1914 41.027 29.6602 40.8707 30.1094C40.734 30.5586 40.6364 30.8711 40.5778 31.0469V31.3984ZM33.7516 42.8535H33.6051C33.566 42.8535 33.4684 42.873 33.3121 42.9121C33.1559 42.9316 32.9801 42.9609 32.7848 43C32.5895 43.0195 32.4039 43.0391 32.2281 43.0586C32.0719 43.0781 31.9742 43.0879 31.9352 43.0879H31.7594C31.6422 43.0879 31.5446 43.0391 31.4664 42.9414C31.3883 42.8438 31.3297 42.7363 31.2906 42.6191C31.2516 42.4824 31.2321 42.3555 31.2321 42.2383C31.2125 42.1016 31.2028 42.0137 31.2028 41.9746V41.8867C31.2028 41.5352 31.3199 41.3008 31.5543 41.1836C31.8082 41.0664 32.0524 40.959 32.2867 40.8613C32.3258 40.8613 32.4235 40.832 32.5797 40.7734C32.736 40.6953 32.902 40.6172 33.0778 40.5391C33.2731 40.4609 33.4489 40.3926 33.6051 40.334C33.7614 40.2559 33.859 40.1973 33.8981 40.1582C33.9176 40.1387 33.9762 40.0898 34.0739 40.0117C34.1715 39.9141 34.2789 39.8066 34.3961 39.6895C34.5133 39.5723 34.6207 39.4551 34.7184 39.3379C34.8356 39.2207 34.9332 39.123 35.0114 39.0449C35.0309 39.0059 35.0602 38.957 35.0992 38.8984C35.1774 38.7812 35.2164 38.6934 35.2164 38.6348C35.2164 38.5957 35.236 38.4785 35.275 38.2832C35.3336 38.0879 35.3824 37.9707 35.4215 37.9316C35.9489 36.877 36.4762 35.8125 37.0035 34.7383C37.5309 33.6445 38.0289 32.5508 38.4977 31.457C38.5563 31.3984 38.6344 31.2324 38.7321 30.959C38.8492 30.666 38.9274 30.4609 38.9664 30.3438C38.986 30.3047 39.0348 30.1875 39.1129 29.9922C39.191 29.7773 39.2692 29.5625 39.3473 29.3477C39.4254 29.1133 39.4938 28.8984 39.5524 28.7031C39.6305 28.5078 39.6696 28.3906 39.6696 28.3516C39.6891 28.293 39.7477 28.1562 39.8453 27.9414C39.9625 27.7266 40.0797 27.4922 40.1969 27.2383C40.3336 26.9844 40.4508 26.7402 40.5485 26.5059C40.6656 26.2715 40.7438 26.125 40.7828 26.0664C40.9391 25.7148 41.0856 25.4023 41.2223 25.1289C41.3785 24.8359 41.525 24.4941 41.6617 24.1035C41.7399 23.9473 41.8375 23.7715 41.9547 23.5762C42.0914 23.3809 42.2184 23.1758 42.3356 22.9609C42.4528 22.7266 42.5504 22.502 42.6285 22.2871C42.7262 22.0723 42.775 21.8672 42.775 21.6719V21.2617C42.775 21.1836 42.7457 21.0566 42.6871 20.8809C42.6481 20.6855 42.6285 20.5781 42.6285 20.5586C42.6285 20.4219 42.7067 20.2461 42.8629 20.0312C43.0192 19.8164 43.1364 19.6797 43.2145 19.6211C43.2535 19.6016 43.3414 19.5625 43.4781 19.5039C43.6344 19.4453 43.7906 19.377 43.9469 19.2988C44.1031 19.2207 44.2399 19.1523 44.3571 19.0938C44.4938 19.0352 44.5719 18.9961 44.5914 18.9766C44.6305 18.9375 44.7086 18.8594 44.8258 18.7422C44.943 18.625 45.0699 18.498 45.2067 18.3613C45.3629 18.2051 45.4996 18.0586 45.6168 17.9219C45.7535 17.7656 45.8512 17.6582 45.9098 17.5996C45.9293 17.5801 45.9684 17.5215 46.027 17.4238C46.0856 17.3066 46.1539 17.1992 46.2321 17.1016C46.3102 16.9844 46.3981 16.8867 46.4957 16.8086C46.5934 16.7109 46.7008 16.6719 46.818 16.6914C47.0133 16.75 47.1793 16.9258 47.316 17.2188C47.4723 17.5117 47.5992 17.834 47.6969 18.1855C47.8141 18.5176 47.9117 18.8496 47.9899 19.1816C48.068 19.4941 48.1364 19.709 48.1949 19.8262C48.2145 19.9238 48.2438 20.0605 48.2828 20.2363C48.3414 20.4121 48.3903 20.5879 48.4293 20.7637C48.4879 20.9395 48.5367 21.0957 48.5758 21.2324C48.6149 21.3691 48.6344 21.4473 48.6344 21.4668C48.6539 21.5254 48.6832 21.6621 48.7223 21.877C48.7614 22.0918 48.8004 22.3262 48.8395 22.5801C48.8981 22.834 48.9469 23.0684 48.986 23.2832C49.025 23.4785 49.0446 23.5957 49.0446 23.6348C49.0641 23.6934 49.1129 23.8789 49.191 24.1914C49.2887 24.5039 49.3961 24.8652 49.5133 25.2754C49.6305 25.6855 49.7477 26.0957 49.8649 26.5059C49.9821 26.8965 50.0797 27.209 50.1578 27.4434C50.3141 27.9707 50.5094 28.498 50.7438 29.0254C50.9781 29.5332 51.1539 30.0508 51.2711 30.5781C51.3688 31.0273 51.4274 31.3887 51.4469 31.6621C51.486 31.916 51.5836 32.2285 51.7399 32.5996C51.7594 32.6387 51.7985 32.7266 51.8571 32.8633C51.9352 32.9805 52.0133 33.1172 52.0914 33.2734C52.1696 33.4102 52.2379 33.5469 52.2965 33.6836C52.3551 33.8203 52.3942 33.918 52.4137 33.9766C52.4137 34.0156 52.4235 34.084 52.443 34.1816C52.4625 34.2793 52.4821 34.3965 52.5016 34.5332C52.5406 34.6504 52.5699 34.7676 52.5895 34.8848C52.609 34.9824 52.6285 35.0508 52.6481 35.0898C52.6481 35.1094 52.6676 35.1777 52.7067 35.2949C52.7457 35.3926 52.7946 35.5098 52.8531 35.6465C52.9117 35.7637 52.9606 35.8809 52.9996 35.998C53.0582 36.0957 53.0973 36.1445 53.1168 36.1445C53.2145 36.6523 53.3414 37.1992 53.4977 37.7852C53.6539 38.3711 53.8981 38.8887 54.2301 39.3379C54.3864 39.5723 54.6696 39.7676 55.0797 39.9238C55.5094 40.0801 55.9391 40.2363 56.3688 40.3926C56.818 40.5488 57.2086 40.7246 57.5406 40.9199C57.8727 41.1152 58.0387 41.3691 58.0387 41.6816C58.0387 42.0137 57.9508 42.2773 57.775 42.4727C57.6188 42.6484 57.4137 42.7852 57.1598 42.8828C56.9059 42.9805 56.6227 43.0391 56.3102 43.0586C55.9977 43.0781 55.7047 43.0879 55.4313 43.0879H54.8453H54.2301C53.9176 43.0879 53.3707 43.0781 52.5895 43.0586C51.8082 43.0391 50.9684 43.0195 50.0699 43C49.191 42.9609 48.3512 42.9316 47.5504 42.9121C46.7692 42.873 46.2223 42.8535 45.9098 42.8535C45.6949 42.7754 45.568 42.6875 45.5289 42.5898C45.4899 42.4727 45.4703 42.3066 45.4703 42.0918V41.8867C45.4703 41.8477 45.4801 41.8086 45.4996 41.7695C45.6754 41.3984 45.9196 41.1543 46.2321 41.0371C46.5446 40.9004 46.8668 40.793 47.1989 40.7148C47.5504 40.6367 47.8922 40.5488 48.2242 40.4512C48.5563 40.334 48.8297 40.0996 49.0446 39.748L49.1031 39.543L49.0446 39.3379C49.025 39.1621 48.9762 38.918 48.8981 38.6055C48.8395 38.293 48.7711 37.9805 48.693 37.668C48.6344 37.3555 48.5758 37.082 48.5172 36.8477C48.4586 36.5938 48.4196 36.4473 48.4 36.4082C48.361 36.3691 48.3024 36.2715 48.2242 36.1152C48.1461 35.959 48.0582 35.7832 47.9606 35.5879C47.8824 35.3926 47.7946 35.207 47.6969 35.0312C47.6188 34.8359 47.5504 34.6895 47.4918 34.5918C47.277 34.2598 46.9742 34.0645 46.5836 34.0059C46.2125 33.9277 45.8414 33.8887 45.4703 33.8887H44.8844C44.1813 33.8887 43.5172 33.9375 42.8922 34.0352C42.2867 34.1328 41.6422 34.1816 40.9586 34.1816C40.8219 34.1816 40.6852 34.1719 40.5485 34.1523C40.4117 34.1328 40.275 34.123 40.1383 34.123C40.0016 34.2598 39.9332 34.3672 39.9332 34.4453C39.8942 34.4648 39.8453 34.543 39.7867 34.6797C39.7477 34.7969 39.6989 34.9336 39.6403 35.0898C39.6012 35.2266 39.5524 35.3633 39.4938 35.5C39.4547 35.6172 39.4352 35.6855 39.4352 35.7051C39.4352 35.7441 39.3668 35.8613 39.2301 36.0566C39.1129 36.252 39.025 36.3691 38.9664 36.4082C38.7321 36.8965 38.5953 37.4043 38.5563 37.9316C38.5172 38.4395 38.4977 38.9668 38.4977 39.5137C38.4977 39.8262 38.5953 40.0605 38.7906 40.2168C38.986 40.3535 39.2301 40.4609 39.5231 40.5391C39.816 40.6172 40.1285 40.6855 40.4606 40.7441C40.7926 40.7832 41.1051 40.8516 41.3981 40.9492C41.691 41.0273 41.9352 41.1543 42.1305 41.3301C42.3258 41.5059 42.4235 41.7598 42.4235 42.0918C42.4235 42.7363 42.1207 43.1367 41.5153 43.293C41.4371 43.293 41.2906 43.2832 41.0758 43.2637C40.8805 43.2441 40.6754 43.2246 40.4606 43.2051C40.2457 43.1855 40.0406 43.166 39.8453 43.1465C39.65 43.127 39.5133 43.1074 39.4352 43.0879H37.3551H36.5348C36.4762 43.0879 36.3199 43.0781 36.066 43.0586C35.8121 43.0391 35.5289 43.0195 35.2164 43C34.9039 42.9609 34.6207 42.9316 34.3668 42.9121C34.1129 42.873 33.9567 42.8535 33.8981 42.8535H33.7516ZM61.2614 42.0918C61.2614 41.7793 61.3688 41.5352 61.5836 41.3594C61.7985 41.1641 62.0621 41.0176 62.3746 40.9199C62.6871 40.8223 63.0094 40.7539 63.3414 40.7148C63.6735 40.6562 63.9469 40.6074 64.1617 40.5684C64.2203 40.5488 64.318 40.5293 64.4547 40.5098C64.611 40.4902 64.7672 40.4805 64.9235 40.4805C65.0992 40.4609 65.2555 40.4414 65.3922 40.4219C65.5485 40.4023 65.6461 40.3828 65.6852 40.3633L65.9781 39.4551C65.9781 39.377 65.9781 39.0938 65.9781 38.6055C65.9977 38.0977 66.0074 37.5215 66.0074 36.877C66.0074 36.2324 66.0074 35.5977 66.0074 34.9727C66.027 34.3281 66.0367 33.8105 66.0367 33.4199C66.0367 33.0684 66.0367 32.6094 66.0367 32.043C66.0367 31.4766 66.027 30.8711 66.0074 30.2266C66.0074 29.582 66.0074 28.9277 66.0074 28.2637C66.0074 27.5996 65.9977 26.9941 65.9781 26.4473C65.9781 25.8809 65.9781 25.4121 65.9781 25.041C65.9781 24.6504 65.9781 24.4062 65.9781 24.3086C65.9781 24.1719 65.9586 23.9277 65.9196 23.5762C65.9 23.2051 65.8707 22.8242 65.8317 22.4336C65.8121 22.0234 65.7828 21.6426 65.7438 21.291C65.7047 20.9199 65.6852 20.6758 65.6852 20.5586C65.6656 20.3242 65.6364 20.041 65.5973 19.709C65.5582 19.377 65.5094 19.0547 65.4508 18.7422C65.4117 18.4297 65.3727 18.166 65.3336 17.9512C65.2946 17.7168 65.275 17.5898 65.275 17.5703L64.7477 17.1602C64.65 17.1602 64.4742 17.1504 64.2203 17.1309C63.986 17.1113 63.7321 17.0918 63.4586 17.0723C63.1852 17.0332 62.9215 17.0039 62.6676 16.9844C62.4137 16.9648 62.2477 16.9551 62.1696 16.9551C61.9547 16.877 61.7692 16.7695 61.6129 16.6328C61.4762 16.4766 61.4078 16.3105 61.4078 16.1348C61.4078 15.8613 61.4957 15.6367 61.6715 15.4609C61.8668 15.2656 62.1012 15.1094 62.3746 14.9922C62.6481 14.875 62.9313 14.7969 63.2242 14.7578C63.5172 14.6992 63.7711 14.6699 63.986 14.6699C64.4547 14.6699 64.8746 14.7187 65.2457 14.8164C65.6364 14.8945 66.0465 14.9336 66.4762 14.9336C66.5934 14.9336 66.7106 14.9336 66.8278 14.9336C66.9645 14.9336 67.1207 14.9238 67.2965 14.9043C67.4723 14.8848 67.6969 14.8555 67.9703 14.8164C68.2438 14.7773 68.5953 14.7285 69.025 14.6699H70.6364C71.027 14.6699 71.3688 14.6602 71.6617 14.6406C71.9742 14.6016 72.2574 14.5625 72.5114 14.5234C72.7848 14.4844 73.0485 14.4551 73.3024 14.4355C73.5563 14.3965 73.8199 14.377 74.0934 14.377C74.152 14.377 74.2301 14.3867 74.3278 14.4062C74.4449 14.4062 74.5524 14.4062 74.65 14.4062H75.0602C75.0797 14.4453 75.1871 14.4844 75.3824 14.5234C75.4606 14.543 75.5485 14.5527 75.6461 14.5527H75.9098H76.1149C76.1344 14.5527 76.2125 14.5527 76.3492 14.5527C76.486 14.5527 76.6324 14.543 76.7887 14.5234C76.9449 14.5039 77.0914 14.4941 77.2281 14.4941C77.3844 14.4746 77.4821 14.4453 77.5211 14.4062H79.9235H82.1793C82.2184 14.4453 82.2965 14.4746 82.4137 14.4941C82.5504 14.5137 82.6871 14.5332 82.8239 14.5527C82.9801 14.5527 83.1266 14.5723 83.2633 14.6113C83.4 14.6309 83.4977 14.6504 83.5563 14.6699C83.6539 14.709 83.8102 14.7578 84.025 14.8164C84.2399 14.875 84.3766 14.9824 84.4352 15.1387C84.4742 15.7637 84.5621 16.3691 84.6989 16.9551C84.8551 17.5215 84.9332 18.1074 84.9332 18.7129C84.9332 18.7715 84.9235 18.8887 84.9039 19.0645C84.9039 19.2402 84.8746 19.3281 84.816 19.3281C84.816 19.4062 84.7965 19.5527 84.7574 19.7676C84.7379 19.9824 84.7086 20.207 84.6696 20.4414C84.6305 20.6758 84.5914 20.9004 84.5524 21.1152C84.5133 21.3301 84.4742 21.4766 84.4352 21.5547L84.2594 21.6719C84.2399 21.6719 84.2008 21.6523 84.1422 21.6133C84.1031 21.5742 84.0641 21.5547 84.025 21.5547C83.6149 21.3789 83.2731 21.1641 82.9996 20.9102C82.7457 20.6367 82.5211 20.3438 82.3258 20.0312C82.15 19.7188 81.9742 19.3965 81.7985 19.0645C81.6227 18.7129 81.4176 18.3809 81.1832 18.0684C80.8903 17.6973 80.6168 17.3945 80.3629 17.1602C80.109 16.9258 79.8356 16.7402 79.5426 16.6035C79.2496 16.4473 78.9274 16.3398 78.5758 16.2812C78.2438 16.2227 77.8434 16.1934 77.3746 16.1934C76.359 16.1934 75.3531 16.2422 74.3571 16.3398C73.361 16.418 72.3551 16.5352 71.3395 16.6914C71.1246 16.9062 70.9879 17.1211 70.9293 17.3359C70.8707 17.5312 70.8414 17.7363 70.8414 17.9512C70.8414 18.127 70.8512 18.3125 70.8707 18.5078C70.8903 18.7031 70.9 18.9082 70.9 19.123C70.861 19.3184 70.8317 19.6504 70.8121 20.1191C70.7926 20.5684 70.7731 21.0566 70.7535 21.584C70.734 22.0918 70.7145 22.5801 70.6949 23.0488C70.6754 23.5176 70.6559 23.8496 70.6364 24.0449C70.5387 24.1426 70.4703 24.2891 70.4313 24.4844C70.3922 24.6797 70.3727 24.875 70.3727 25.0703V25.6562C70.4117 25.6562 70.4606 25.7148 70.5192 25.832C70.5973 25.9492 70.6364 26.0273 70.6364 26.0664C70.6949 26.2812 70.734 26.4766 70.7535 26.6523C70.7926 26.8281 70.8414 26.9844 70.9 27.1211C70.9586 27.2578 71.0465 27.3652 71.1637 27.4434C71.2809 27.5215 71.4762 27.5703 71.7496 27.5898L72.1598 27.6484C72.2574 27.668 72.3551 27.6875 72.4528 27.707C72.5699 27.707 72.6578 27.707 72.7164 27.707C73.2047 27.707 73.6832 27.668 74.152 27.5898C74.6403 27.4922 75.109 27.4238 75.5582 27.3848C75.7535 27.3652 75.9977 27.3555 76.2906 27.3555C76.6031 27.3359 76.9059 27.3066 77.1989 27.2676C77.5504 27.248 77.902 27.2188 78.2535 27.1797L78.693 26.7402L79.3082 24.5137C79.4254 24.416 79.5035 24.3184 79.5426 24.2207C79.6012 24.1035 79.6598 23.9961 79.7184 23.8984C79.777 23.8008 79.8453 23.7227 79.9235 23.6641C80.0211 23.6055 80.1481 23.5762 80.3043 23.5762C80.4606 23.5762 80.5973 23.6641 80.7145 23.8398C80.8317 24.0156 80.9 24.1719 80.9196 24.3086C80.9391 24.4062 80.9586 24.5918 80.9781 24.8652C80.9977 25.1387 81.0172 25.4316 81.0367 25.7441C81.0563 26.0371 81.0758 26.3203 81.0953 26.5938C81.1149 26.8672 81.1442 27.0625 81.1832 27.1797C81.1832 27.2188 81.1735 27.3359 81.1539 27.5312C81.1344 27.7266 81.1246 27.9121 81.1246 28.0879C81.1246 28.3027 81.1442 28.4199 81.1832 28.4395C81.1832 28.4785 81.2028 28.5762 81.2418 28.7324C81.3004 28.8887 81.3297 28.9863 81.3297 29.0254C81.4274 29.4746 81.525 29.9629 81.6227 30.4902C81.7399 31.0176 81.7985 31.5254 81.7985 32.0137C81.7985 32.1699 81.7887 32.3262 81.7692 32.4824C81.7692 32.6387 81.7399 32.7949 81.6813 32.9512C81.6422 33.0879 81.5739 33.2051 81.4762 33.3027C81.3785 33.3809 81.2321 33.4199 81.0367 33.4199C80.6656 33.4199 80.3824 33.2637 80.1871 32.9512C80.0114 32.6387 79.8551 32.2871 79.7184 31.8965C79.5817 31.4863 79.4352 31.0957 79.2789 30.7246C79.1422 30.334 78.9469 30.0703 78.693 29.9336H76.1735C75.4117 29.8359 74.6305 29.6895 73.8297 29.4941C73.0289 29.2793 72.2184 29.1719 71.3981 29.1719C71.066 29.1719 70.8512 29.2988 70.7535 29.5527C70.6754 29.7871 70.6364 30.0508 70.6364 30.3438C70.6364 30.3828 70.6461 30.5 70.6656 30.6953C70.6852 30.8711 70.7047 31.0762 70.7242 31.3105C70.7438 31.5254 70.7633 31.7305 70.7828 31.9258C70.8219 32.1211 70.861 32.248 70.9 32.3066V38.0781V38.2832C70.9 38.4004 70.9098 38.5371 70.9293 38.6934C70.9684 38.8496 71.0074 39.0059 71.0465 39.1621C71.0856 39.3184 71.1246 39.4648 71.1637 39.6016C71.2223 39.7188 71.2809 39.8066 71.3395 39.8652C71.359 39.8652 71.4274 39.9043 71.5446 39.9824C71.6813 40.0605 71.8278 40.1484 71.984 40.2461C72.1403 40.3438 72.2965 40.4414 72.4528 40.5391C72.609 40.6367 72.7262 40.7148 72.8043 40.7734C73.0973 40.8906 73.3903 40.959 73.6832 40.9785C73.9762 40.9785 74.2496 40.998 74.5035 41.0371C74.7574 41.0762 74.9625 41.1738 75.1188 41.3301C75.275 41.4668 75.3531 41.7402 75.3531 42.1504C75.3531 42.248 75.3434 42.375 75.3239 42.5312C75.3043 42.668 75.2164 42.7559 75.0602 42.7949C75.0211 42.8145 74.9332 42.834 74.7965 42.8535C74.6793 42.873 74.5524 42.8926 74.4156 42.9121C74.2789 42.9316 74.1422 42.9512 74.0055 42.9707C73.8883 42.9902 73.8004 43 73.7418 43H66.6227C66.5446 43.0195 66.3688 43.0391 66.0953 43.0586C65.8414 43.0781 65.5582 43.0977 65.2457 43.1172C64.9528 43.1367 64.6793 43.1562 64.4254 43.1758C64.1715 43.1953 64.0153 43.2051 63.9567 43.2051H63.8102H63.2828C63.0875 43.2051 62.8727 43.1953 62.6383 43.1758C62.4039 43.1562 62.1793 43.1074 61.9645 43.0293C61.7692 42.9512 61.6031 42.8438 61.4664 42.707C61.3297 42.5508 61.2614 42.3457 61.2614 42.0918ZM88.0973 43C88.0973 42.9219 88.0387 42.8145 87.9215 42.6777C87.8239 42.5215 87.7653 42.3945 87.7457 42.2969V42.1797V42.1504C87.7848 42.0723 87.8727 41.9551 88.0094 41.7988C88.1461 41.6426 88.2926 41.4863 88.4489 41.3301C88.6246 41.1543 88.7809 40.998 88.9176 40.8613C89.0739 40.7246 89.1813 40.627 89.2399 40.5684C89.2789 40.5293 89.4059 40.4902 89.6207 40.4512C89.8551 40.3926 90.0211 40.3633 90.1188 40.3633H92.1989C92.2574 40.3633 92.3356 40.3535 92.4332 40.334C92.5504 40.2949 92.6578 40.2656 92.7555 40.2461C92.8727 40.207 92.9703 40.168 93.0485 40.1289C93.1461 40.0898 93.1949 40.0703 93.1949 40.0703C93.4684 39.9336 93.6246 39.7188 93.6637 39.4258C93.7223 39.1133 93.7516 38.8203 93.7516 38.5469V38.0781C93.7516 37.3945 93.7321 36.75 93.693 36.1445C93.6735 35.5195 93.6637 34.8652 93.6637 34.1816V33.9766C93.6637 33.918 93.6735 33.8105 93.693 33.6543C93.7125 33.498 93.7321 33.332 93.7516 33.1562C93.7906 32.9609 93.8297 32.7852 93.8688 32.6289C93.9078 32.4727 93.9371 32.3652 93.9567 32.3066V19.5332C93.9567 19.1426 93.8883 18.8301 93.7516 18.5957C93.6149 18.3613 93.4391 18.1855 93.2242 18.0684C93.0094 17.9316 92.7555 17.8438 92.4625 17.8047C92.1891 17.7656 91.8961 17.7461 91.5836 17.7461H90.3824C89.8356 17.7461 89.3766 17.6777 89.0055 17.541C88.6344 17.4043 88.4489 17.0723 88.4489 16.5449C88.4489 16.3691 88.4489 16.2129 88.4489 16.0762C88.4684 15.9395 88.5172 15.7539 88.5953 15.5195C89.5328 15.5586 90.4508 15.5293 91.3492 15.4316C92.2477 15.334 93.1559 15.2852 94.0739 15.2852H94.8356C94.9137 15.3047 95.0699 15.3242 95.3043 15.3438C95.5582 15.3633 95.8121 15.3828 96.066 15.4023C96.3395 15.4219 96.5934 15.4414 96.8278 15.4609C97.0621 15.4805 97.2281 15.5 97.3258 15.5195H111.095C111.681 15.5195 112.101 15.6758 112.355 15.9883C112.609 16.2812 112.795 16.6523 112.912 17.1016V18.7715V20.5C112.912 20.6172 112.892 20.832 112.853 21.1445C112.814 21.4375 112.765 21.7598 112.707 22.1113C112.668 22.4434 112.619 22.7754 112.56 23.1074C112.521 23.4199 112.492 23.6445 112.472 23.7812C112.433 23.8398 112.365 23.9277 112.267 24.0449C112.17 24.1426 112.101 24.1914 112.062 24.1914C112.062 24.2305 112.043 24.25 112.004 24.25H111.974H111.886C111.828 24.25 111.798 24.2305 111.798 24.1914C111.466 23.957 111.213 23.6934 111.037 23.4004C110.861 23.0879 110.714 22.7656 110.597 22.4336C110.48 22.1016 110.373 21.7695 110.275 21.4375C110.177 21.1055 110.031 20.793 109.836 20.5C109.797 20.4219 109.67 20.2949 109.455 20.1191C109.259 19.9238 109.152 19.8164 109.132 19.7969C109.093 19.7578 109.005 19.6504 108.869 19.4746C108.752 19.2988 108.615 19.1133 108.459 18.918C108.322 18.7031 108.185 18.5078 108.048 18.332C107.931 18.1562 107.853 18.0488 107.814 18.0098C107.736 17.834 107.648 17.7461 107.55 17.7461C107.531 17.7461 107.463 17.7363 107.345 17.7168C107.248 17.6973 107.13 17.6777 106.994 17.6582C106.877 17.6191 106.759 17.5898 106.642 17.5703C106.545 17.5508 106.496 17.5312 106.496 17.5117C106.437 17.5117 106.33 17.4922 106.173 17.4531C106.017 17.4141 105.841 17.375 105.646 17.3359C105.47 17.2969 105.304 17.2578 105.148 17.2188C104.992 17.1602 104.894 17.1211 104.855 17.1016H104.709C104.63 17.1016 104.523 17.1309 104.386 17.1895C104.25 17.2285 104.152 17.248 104.093 17.248H104.005C103.947 17.2285 103.781 17.209 103.507 17.1895C103.254 17.1699 102.97 17.1602 102.658 17.1602C102.345 17.1406 102.052 17.1309 101.779 17.1309C101.525 17.1113 101.369 17.1016 101.31 17.1016H101.222C100.871 17.1016 100.578 17.1699 100.343 17.3066C100.109 17.4434 99.9137 17.6191 99.7574 17.834C99.6207 18.0488 99.4938 18.293 99.3766 18.5664C99.2789 18.8203 99.1813 19.0742 99.0836 19.3281C99.0641 19.543 99.025 19.8945 98.9664 20.3828C98.9274 20.8711 98.8785 21.3887 98.8199 21.9355C98.7809 22.4824 98.7418 23 98.7028 23.4883C98.6637 23.9766 98.6442 24.3184 98.6442 24.5137V24.748V24.8945C98.6442 24.9922 98.6539 25.1582 98.6735 25.3926C98.693 25.627 98.7125 25.8809 98.7321 26.1543C98.7516 26.4082 98.7711 26.6621 98.7906 26.916C98.8297 27.1504 98.859 27.3066 98.8785 27.3848C99.0153 27.5605 99.1715 27.7363 99.3473 27.9121C99.5426 28.0879 99.7477 28.2051 99.9625 28.2637H101.574C102.238 28.2637 102.814 28.2539 103.302 28.2344C103.81 28.2148 104.416 28.1562 105.119 28.0586C105.138 28.0195 105.168 27.9512 105.207 27.8535C105.246 27.7559 105.295 27.6582 105.353 27.5605C105.412 27.4629 105.461 27.375 105.5 27.2969C105.539 27.2188 105.568 27.1699 105.588 27.1504C105.666 27.0137 105.763 26.8184 105.88 26.5645C105.998 26.291 106.115 26.0273 106.232 25.7734C106.349 25.5 106.447 25.2656 106.525 25.0703C106.623 24.875 106.681 24.7676 106.701 24.748C106.74 24.6699 106.779 24.5039 106.818 24.25C106.857 23.9766 106.896 23.8203 106.935 23.7812C107.091 23.6055 107.297 23.4883 107.55 23.4297C107.804 23.3711 108.058 23.3418 108.312 23.3418C108.586 23.3418 108.752 23.4492 108.81 23.6641C108.888 23.8594 108.927 24.084 108.927 24.3379V25.0703V25.4219C108.927 25.5977 108.908 25.7734 108.869 25.9492C108.83 26.1055 108.761 26.2617 108.664 26.418C108.644 26.5938 108.625 26.8867 108.605 27.2969C108.586 27.707 108.566 28.1367 108.547 28.5859C108.527 29.0352 108.507 29.4648 108.488 29.875C108.468 30.2656 108.459 30.5391 108.459 30.6953V31.457V33.2148C108.439 33.2539 108.42 33.3418 108.4 33.4785C108.38 33.6152 108.361 33.7715 108.341 33.9473C108.341 34.1035 108.332 34.2598 108.312 34.416C108.293 34.5723 108.273 34.6797 108.254 34.7383C108.039 34.8945 107.843 35.0117 107.668 35.0898C107.511 35.168 107.316 35.207 107.082 35.207C106.925 35.207 106.779 35.1484 106.642 35.0312C106.505 34.8945 106.379 34.7285 106.261 34.5332C106.144 34.3379 106.047 34.1426 105.968 33.9473C105.89 33.7324 105.841 33.5371 105.822 33.3613C105.802 33.3027 105.773 33.1758 105.734 32.9805C105.714 32.7656 105.695 32.541 105.675 32.3066C105.656 32.0527 105.636 31.8184 105.617 31.6035C105.597 31.3887 105.588 31.2324 105.588 31.1348C105.529 31.0566 105.422 30.9883 105.265 30.9297C105.129 30.8516 104.992 30.7734 104.855 30.6953C104.738 30.6562 104.552 30.6074 104.298 30.5488C104.045 30.4902 103.771 30.4414 103.478 30.4023C103.205 30.3438 102.941 30.3047 102.687 30.2852C102.453 30.2461 102.297 30.2266 102.218 30.2266C102.16 30.2266 102.052 30.2266 101.896 30.2266C101.759 30.207 101.593 30.1973 101.398 30.1973C101.222 30.1973 101.047 30.1973 100.871 30.1973C100.695 30.1777 100.558 30.168 100.461 30.168C100.402 30.168 100.304 30.1777 100.168 30.1973C100.05 30.1973 99.9235 30.1973 99.7867 30.1973C99.6696 30.1973 99.5621 30.207 99.4645 30.2266C99.3668 30.2266 99.3082 30.2266 99.2887 30.2266L98.8785 30.6953V31.6914C98.8785 32.8438 98.8395 33.957 98.7614 35.0312C98.6832 36.0859 98.6442 37.1895 98.6442 38.3418C98.6442 38.9277 98.693 39.3574 98.7906 39.6309C98.8883 39.9043 99.0446 40.0996 99.2594 40.2168C99.4742 40.334 99.7477 40.4219 100.08 40.4805C100.412 40.5391 100.822 40.6367 101.31 40.7734C101.349 40.7734 101.418 40.8027 101.515 40.8613C101.613 40.9199 101.681 40.9785 101.72 41.0371H104.005H106.173C106.213 41.0371 106.3 41.0273 106.437 41.0078C106.574 40.9688 106.72 40.9395 106.877 40.9199C107.033 40.8809 107.17 40.8516 107.287 40.832C107.423 40.793 107.511 40.7734 107.55 40.7734H108.957H109.513C109.552 40.7734 109.621 40.7441 109.718 40.6855C109.816 40.6074 109.914 40.5293 110.011 40.4512C110.129 40.3535 110.226 40.2656 110.304 40.1875C110.382 40.1094 110.431 40.0703 110.451 40.0703C110.588 40.0117 110.695 39.9824 110.773 39.9824C110.871 39.9629 110.949 39.9531 111.007 39.9531C111.066 39.9336 111.125 39.9043 111.183 39.8652C111.242 39.8066 111.3 39.7188 111.359 39.6016C111.574 39.2891 111.73 38.9668 111.828 38.6348C111.925 38.3027 112.052 37.9707 112.209 37.6387C112.287 37.5801 112.384 37.4629 112.502 37.2871C112.619 37.0918 112.687 36.9648 112.707 36.9062C112.726 36.9062 112.785 36.877 112.882 36.8184C112.98 36.7402 113.078 36.6621 113.175 36.584C113.273 36.4863 113.361 36.3984 113.439 36.3203C113.517 36.2227 113.566 36.1543 113.586 36.1152C113.605 36.0566 113.644 35.9785 113.703 35.8809C113.781 35.7637 113.859 35.6465 113.937 35.5293C114.015 35.3926 114.084 35.2754 114.142 35.1777C114.22 35.0605 114.269 34.9824 114.289 34.9434C114.289 34.9238 114.318 34.8848 114.377 34.8262C114.416 34.8066 114.455 34.7773 114.494 34.7383C114.494 34.6992 114.504 34.6797 114.523 34.6797H114.582C114.875 34.6797 115.05 34.7969 115.109 35.0312C115.168 35.2461 115.197 35.4707 115.197 35.7051V36.3203C115.197 36.418 115.207 36.6523 115.226 37.0234C115.246 37.3945 115.255 37.7949 115.255 38.2246C115.275 38.6348 115.295 39.0254 115.314 39.3965C115.334 39.7676 115.343 39.9922 115.343 40.0703V40.1582C115.343 40.4121 115.295 40.7051 115.197 41.0371C115.099 41.3496 114.963 41.6523 114.787 41.9453C114.611 42.2383 114.396 42.4824 114.142 42.6777C113.908 42.873 113.654 42.9805 113.38 43C113.244 42.9805 112.99 42.9609 112.619 42.9414C112.267 42.9219 111.886 42.9023 111.476 42.8828C111.066 42.8633 110.675 42.8438 110.304 42.8242C109.933 42.8047 109.67 42.7754 109.513 42.7363H108.957H108.459C108.361 42.7754 108.136 42.8145 107.785 42.8535C107.433 42.873 107.052 42.8926 106.642 42.9121C106.252 42.9316 105.871 42.9512 105.5 42.9707C105.148 42.9902 104.933 43 104.855 43H93.7516C93.693 43.0195 93.5953 43.0391 93.4586 43.0586C93.3414 43.0781 93.2047 43.0879 93.0485 43.0879C92.9117 43.1074 92.775 43.1172 92.6383 43.1172C92.5016 43.1367 92.4039 43.1465 92.3453 43.1465C92.3453 43.1855 92.277 43.2051 92.1403 43.2051C92.0035 43.2051 91.8766 43.1953 91.7594 43.1758C91.6422 43.1562 91.5641 43.1465 91.525 43.1465C91.4469 43.2051 91.2906 43.2734 91.0563 43.3516C90.8219 43.4297 90.6559 43.4688 90.5582 43.4688C90.4606 43.4688 90.2946 43.4492 90.0602 43.4102C89.8453 43.3711 89.611 43.3223 89.3571 43.2637C89.1031 43.2246 88.859 43.1758 88.6246 43.1172C88.3903 43.0781 88.2145 43.0391 88.0973 43ZM127.062 42.7949C127.062 42.541 127.121 42.3457 127.238 42.209C127.355 42.0527 127.502 41.9258 127.677 41.8281C127.873 41.7305 128.156 41.6523 128.527 41.5938C128.898 41.5156 129.269 41.4375 129.64 41.3594C130.031 41.2617 130.373 41.1445 130.666 41.0078C130.959 40.8516 131.134 40.6367 131.193 40.3633V39.748V39.4551C131.193 39.3184 131.193 39.0156 131.193 38.5469C131.213 38.0586 131.222 37.502 131.222 36.877C131.242 36.2324 131.261 35.5488 131.281 34.8262C131.3 34.1035 131.31 33.4199 131.31 32.7754C131.33 32.1309 131.339 31.5742 131.339 31.1055C131.359 30.6172 131.369 30.2949 131.369 30.1387V25.0703V20.0312C131.271 19.6797 131.037 19.377 130.666 19.123C130.314 18.8496 129.943 18.7129 129.552 18.7129H125.802C125.666 18.7129 125.47 18.7715 125.216 18.8887C124.963 19.0059 124.787 19.084 124.689 19.123C123.947 19.5723 123.351 20.0605 122.902 20.5879C122.453 21.0957 122.004 21.6523 121.554 22.2578C121.515 22.2969 121.457 22.3652 121.379 22.4629C121.32 22.5605 121.252 22.6777 121.173 22.8145C121.115 22.9316 121.047 23.0488 120.968 23.166C120.91 23.2637 120.871 23.332 120.851 23.3711C120.812 23.4688 120.744 23.5957 120.646 23.752C120.548 23.9082 120.441 24.0645 120.324 24.2207C120.207 24.377 120.08 24.5137 119.943 24.6309C119.826 24.748 119.718 24.8066 119.621 24.8066C119.425 24.8066 119.259 24.7578 119.123 24.6602C119.005 24.5625 118.908 24.4355 118.83 24.2793C118.771 24.123 118.722 23.957 118.683 23.7812C118.664 23.5859 118.654 23.4004 118.654 23.2246C118.654 22.7949 118.693 22.3848 118.771 21.9941C118.849 21.6035 118.927 21.1934 119.005 20.7637C119.064 20.5098 119.123 20.1191 119.181 19.5918C119.259 19.0449 119.357 18.5078 119.474 17.9805C119.591 17.4336 119.757 16.9551 119.972 16.5449C120.187 16.1348 120.48 15.9297 120.851 15.9297C120.871 15.9297 120.91 15.9395 120.968 15.959C121.027 15.959 121.076 15.959 121.115 15.959C121.173 15.9785 121.232 15.9883 121.291 15.9883C121.349 16.0273 121.466 16.0957 121.642 16.1934C121.818 16.2715 122.004 16.3594 122.199 16.457C122.414 16.5547 122.609 16.6426 122.785 16.7207C122.961 16.7988 123.068 16.8379 123.107 16.8379C123.127 16.8574 123.185 16.877 123.283 16.8965C123.4 16.8965 123.517 16.8965 123.634 16.8965C123.771 16.8965 123.898 16.8965 124.015 16.8965C124.132 16.8965 124.211 16.8965 124.25 16.8965C124.25 16.8965 124.298 16.916 124.396 16.9551C124.513 16.9746 124.63 17.0039 124.748 17.043C124.884 17.082 125.002 17.1211 125.099 17.1602C125.216 17.1797 125.285 17.1895 125.304 17.1895C126.281 17.1895 127.248 17.1016 128.205 16.9258C129.181 16.7305 130.158 16.6328 131.134 16.6328C132.853 16.6328 134.552 16.7305 136.232 16.9258C137.931 17.1016 139.63 17.1895 141.33 17.1895H142.824C142.863 17.1699 142.961 17.1406 143.117 17.1016C143.273 17.043 143.439 16.9941 143.615 16.9551C143.791 16.8965 143.966 16.8379 144.142 16.7793C144.318 16.7207 144.445 16.6719 144.523 16.6328C144.699 16.5742 144.845 16.5059 144.963 16.4277C145.08 16.3301 145.187 16.2324 145.285 16.1348C145.402 16.0371 145.529 15.959 145.666 15.9004C145.802 15.8223 145.978 15.7832 146.193 15.7832C146.564 15.7832 146.857 15.959 147.072 16.3105C147.306 16.6426 147.482 17.043 147.599 17.5117C147.736 17.9805 147.834 18.459 147.892 18.9473C147.97 19.416 148.058 19.7773 148.156 20.0312C148.234 20.4414 148.351 20.8613 148.507 21.291C148.683 21.7207 148.771 22.1699 148.771 22.6387C148.771 22.7754 148.752 22.9316 148.713 23.1074C148.693 23.2832 148.644 23.4492 148.566 23.6055C148.488 23.7422 148.38 23.8594 148.244 23.957C148.107 24.0547 147.941 24.1035 147.746 24.1035C147.55 24.1035 147.316 23.957 147.043 23.6641C146.769 23.3516 146.476 23.0098 146.164 22.6387C145.871 22.248 145.578 21.8672 145.285 21.4961C145.011 21.125 144.757 20.8809 144.523 20.7637C144.484 20.7441 144.396 20.6953 144.259 20.6172C144.142 20.5391 144.005 20.4609 143.849 20.3828C143.713 20.3047 143.576 20.2363 143.439 20.1777C143.322 20.0996 143.244 20.0508 143.205 20.0312C142.834 19.8164 142.472 19.582 142.121 19.3281C141.789 19.0742 141.418 18.8691 141.007 18.7129C140.949 18.7129 140.841 18.7129 140.685 18.7129C140.548 18.7129 140.402 18.7129 140.246 18.7129C140.089 18.6934 139.943 18.6836 139.806 18.6836C139.689 18.6836 139.601 18.6836 139.543 18.6836H138.986C138.576 18.6836 138.156 18.7129 137.726 18.7715C137.297 18.8301 136.974 19.0156 136.759 19.3281C136.759 19.4844 136.769 19.7285 136.789 20.0605C136.808 20.3926 136.818 20.7539 136.818 21.1445C136.818 21.5352 136.808 21.8965 136.789 22.2285C136.769 22.5605 136.759 22.7949 136.759 22.9316C136.759 22.9707 136.74 23.0391 136.701 23.1367C136.681 23.2148 136.652 23.3027 136.613 23.4004C136.574 23.498 136.535 23.5957 136.496 23.6934C136.476 23.7715 136.457 23.8203 136.437 23.8398V32.7754C136.261 33.127 136.154 33.4004 136.115 33.5957C136.076 33.791 136.056 34.0547 136.056 34.3867V34.8262C136.056 34.8652 136.066 34.9531 136.086 35.0898C136.125 35.207 136.154 35.3438 136.173 35.5C136.213 35.6367 136.242 35.7734 136.261 35.9102C136.281 36.0273 136.291 36.1055 136.291 36.1445V39.4551C136.349 39.8652 136.447 40.2266 136.584 40.5391C136.72 40.8516 137.013 41.0273 137.463 41.0664C137.541 41.0859 137.697 41.1055 137.931 41.125C138.185 41.1445 138.449 41.1641 138.722 41.1836C139.015 41.2031 139.289 41.2227 139.543 41.2422C139.816 41.2617 140.002 41.2715 140.099 41.2715C140.236 41.3691 140.343 41.5059 140.422 41.6816C140.519 41.8379 140.568 42.0039 140.568 42.1797C140.568 42.3359 140.529 42.4531 140.451 42.5312C140.392 42.6094 140.275 42.7168 140.099 42.8535C139.142 42.834 138.127 42.8438 137.052 42.8828C135.998 42.9023 134.923 42.9316 133.83 42.9707C132.755 42.9902 131.691 43.0098 130.636 43.0293C129.582 43.0684 128.595 43.0879 127.677 43.0879C127.521 43.0879 127.375 43.0781 127.238 43.0586C127.121 43.0391 127.062 42.9512 127.062 42.7949ZM155.275 43C155.275 42.9805 155.285 42.9609 155.304 42.9414C155.304 42.9219 155.304 42.9121 155.304 42.9121C155.324 42.8926 155.334 42.873 155.334 42.8535C155.353 42.8145 155.412 42.7461 155.509 42.6484C155.627 42.5508 155.744 42.4434 155.861 42.3262C155.978 42.209 156.086 42.1016 156.183 42.0039C156.3 41.8867 156.388 41.7988 156.447 41.7402L156.74 41.6816C156.818 41.6621 156.886 41.6426 156.945 41.623C157.023 41.6035 157.082 41.5938 157.121 41.5938C157.472 41.4961 157.853 41.4082 158.263 41.3301C158.693 41.2324 159.093 41.1152 159.464 40.9785C159.836 40.8223 160.148 40.6172 160.402 40.3633C160.675 40.1094 160.832 39.7578 160.871 39.3086V37.082C160.871 36.1055 160.822 35.1387 160.724 34.1816C160.646 33.2246 160.627 32.248 160.666 31.252C160.588 31.0762 160.441 30.7832 160.226 30.373C160.011 29.9434 159.787 29.4941 159.552 29.0254C159.318 28.5566 159.093 28.1172 158.879 27.707C158.683 27.2773 158.547 26.9844 158.468 26.8281C158.449 26.7695 158.38 26.6426 158.263 26.4473C158.146 26.252 158.019 26.0469 157.882 25.832C157.765 25.5977 157.648 25.3828 157.531 25.1875C157.433 24.9922 157.375 24.8652 157.355 24.8066C157.316 24.7676 157.257 24.6504 157.179 24.4551C157.121 24.2598 157.052 24.0547 156.974 23.8398C156.896 23.6055 156.828 23.3906 156.769 23.1953C156.711 22.9805 156.672 22.8535 156.652 22.8145C156.652 22.7363 156.584 22.6094 156.447 22.4336C156.31 22.2578 156.242 22.1504 156.242 22.1113C155.851 21.4863 155.509 20.832 155.216 20.1484C154.943 19.4648 154.611 18.791 154.22 18.127C154.181 18.127 154.142 18.0586 154.103 17.9219C154.064 17.7656 154.015 17.6582 153.957 17.5996C153.82 17.4824 153.556 17.3848 153.166 17.3066C152.775 17.209 152.375 17.0918 151.964 16.9551C151.554 16.8184 151.193 16.6523 150.88 16.457C150.568 16.2422 150.412 15.9688 150.412 15.6367C150.412 15.4805 150.461 15.3633 150.558 15.2852C150.656 15.207 150.773 15.1484 150.91 15.1094C151.047 15.0508 151.183 15.0215 151.32 15.0215C151.476 15.002 151.613 14.9824 151.73 14.9629H153.605H155.744C155.822 14.9824 156.017 15.0117 156.33 15.0508C156.642 15.0703 156.974 15.0996 157.326 15.1387C157.677 15.1582 158 15.1777 158.293 15.1973C158.605 15.2168 158.8 15.2266 158.879 15.2266H159.787C159.982 15.2266 160.187 15.2363 160.402 15.2559C160.636 15.2754 160.841 15.3242 161.017 15.4023C161.193 15.4609 161.339 15.5586 161.457 15.6953C161.574 15.832 161.632 16.0176 161.632 16.252C161.632 16.5254 161.545 16.7305 161.369 16.8672C161.193 16.9844 160.998 17.0918 160.783 17.1895C160.588 17.2871 160.402 17.4043 160.226 17.541C160.07 17.6582 159.992 17.8535 159.992 18.127V18.3613C160.05 18.498 160.138 18.7617 160.255 19.1523C160.373 19.5234 160.5 19.9238 160.636 20.3535C160.793 20.7832 160.939 21.1934 161.076 21.584C161.213 21.9551 161.31 22.2188 161.369 22.375C161.369 22.4141 161.408 22.5215 161.486 22.6973C161.564 22.8535 161.652 23.0391 161.75 23.2539C161.847 23.4492 161.935 23.6348 162.013 23.8105C162.111 23.9863 162.17 24.0938 162.189 24.1328C162.209 24.1719 162.238 24.2598 162.277 24.3965C162.336 24.5137 162.394 24.6504 162.453 24.8066C162.511 24.9434 162.56 25.0801 162.599 25.2168C162.638 25.334 162.668 25.4121 162.687 25.4512C162.746 25.5684 162.824 25.7051 162.922 25.8613C163.019 26.0176 163.136 26.1738 163.273 26.3301C163.41 26.4668 163.547 26.584 163.683 26.6816C163.839 26.7793 163.976 26.8281 164.093 26.8281H164.269C164.289 26.7891 164.357 26.7109 164.474 26.5938C164.611 26.4766 164.689 26.4082 164.709 26.3887C164.728 26.3691 164.767 26.3008 164.826 26.1836C164.904 26.0469 164.972 25.9102 165.031 25.7734C165.109 25.6172 165.177 25.4805 165.236 25.3633C165.314 25.2266 165.363 25.1387 165.382 25.0996C165.402 25.0801 165.441 25.002 165.5 24.8652C165.558 24.7285 165.627 24.582 165.705 24.4258C165.783 24.2695 165.851 24.123 165.91 23.9863C165.968 23.8301 166.007 23.7324 166.027 23.6934C166.066 23.6348 166.134 23.4883 166.232 23.2539C166.33 23.0195 166.398 22.873 166.437 22.8145C166.613 22.4824 166.798 22.1406 166.994 21.7891C167.209 21.418 167.404 21.0469 167.58 20.6758C167.775 20.2852 167.931 19.9043 168.048 19.5332C168.185 19.1621 168.254 18.791 168.254 18.4199C168.254 18.1855 168.078 17.9902 167.726 17.834C167.375 17.6582 166.994 17.4922 166.584 17.3359C166.173 17.1602 165.793 16.9844 165.441 16.8086C165.089 16.6133 164.914 16.3691 164.914 16.0762C164.914 15.9199 164.972 15.793 165.089 15.6953C165.226 15.5781 165.373 15.4902 165.529 15.4316C165.705 15.3535 165.871 15.3047 166.027 15.2852C166.203 15.2461 166.339 15.2266 166.437 15.2266H168.927C168.986 15.2266 169.123 15.2266 169.338 15.2266C169.572 15.207 169.816 15.1973 170.07 15.1973C170.324 15.1777 170.558 15.1582 170.773 15.1387C170.988 15.1191 171.115 15.0996 171.154 15.0801C171.193 15.0801 171.31 15.0801 171.505 15.0801C171.72 15.0605 171.955 15.041 172.209 15.0215C172.482 15.002 172.746 14.9922 173 14.9922C173.273 14.9727 173.488 14.9629 173.644 14.9629H176.134C176.31 14.9629 176.447 15.0117 176.545 15.1094C176.662 15.207 176.74 15.2754 176.779 15.3145C176.857 15.4512 176.896 15.6074 176.896 15.7832C176.916 15.959 176.925 16.0566 176.925 16.0762C176.925 16.1152 176.906 16.1934 176.867 16.3105C176.847 16.4277 176.798 16.5352 176.72 16.6328C176.642 16.7305 176.515 16.8574 176.339 17.0137C176.183 17.1504 176.027 17.248 175.871 17.3066C175.695 17.3652 175.48 17.4141 175.226 17.4531C174.992 17.4922 174.748 17.5312 174.494 17.5703C174.24 17.6094 173.996 17.668 173.761 17.7461C173.527 17.8242 173.332 17.9512 173.175 18.127L168.722 22.5801C168.683 22.6191 168.605 22.7266 168.488 22.9023C168.371 23.0781 168.293 23.1855 168.254 23.2246C168.195 23.3027 168.078 23.4688 167.902 23.7227C167.726 23.957 167.541 24.2109 167.345 24.4844C167.15 24.7578 166.964 25.0117 166.789 25.2461C166.613 25.4609 166.496 25.5977 166.437 25.6562C166.164 26.1055 166.007 26.5547 165.968 27.0039C165.929 27.4531 165.812 27.9023 165.617 28.3516V30.1387V31.9551C165.617 32.0527 165.617 32.2676 165.617 32.5996C165.636 32.9316 165.646 33.3223 165.646 33.7715C165.666 34.2012 165.685 34.6699 165.705 35.1777C165.724 35.6855 165.744 36.1641 165.763 36.6133C165.783 37.043 165.793 37.4336 165.793 37.7852C165.812 38.1172 165.822 38.332 165.822 38.4297V39.25V39.543C165.841 39.7578 166.066 39.9336 166.496 40.0703C166.925 40.1875 167.404 40.2852 167.931 40.3633C168.478 40.4414 168.996 40.5195 169.484 40.5977C169.992 40.6562 170.324 40.7441 170.48 40.8613C170.539 40.9004 170.617 40.9785 170.714 41.0957C170.832 41.1934 170.949 41.3008 171.066 41.418C171.183 41.5352 171.291 41.6523 171.388 41.7695C171.505 41.8672 171.584 41.9355 171.623 41.9746V42.2383C171.623 42.4141 171.554 42.5508 171.418 42.6484C171.3 42.7266 171.164 42.7949 171.007 42.8535C169.367 42.9316 167.716 42.9902 166.056 43.0293C164.416 43.0684 162.765 43.0879 161.105 43.0879H159.084C158.732 43.1465 158.41 43.2344 158.117 43.3516C157.843 43.4883 157.521 43.5566 157.15 43.5566H156.564C156.291 43.5566 156.007 43.5273 155.714 43.4688C155.422 43.4102 155.275 43.2539 155.275 43ZM202.472 26.1836C203.214 26.1445 203.888 26.1738 204.494 26.2715C205.119 26.3691 205.763 26.418 206.427 26.418H206.984C207.062 26.418 207.238 26.4082 207.511 26.3887C207.785 26.3691 208.068 26.3496 208.361 26.3301C208.673 26.291 208.966 26.2617 209.24 26.2422C209.513 26.2031 209.679 26.1836 209.738 26.1836C209.816 26.1836 210.021 26.2031 210.353 26.2422C210.685 26.2617 210.988 26.2715 211.261 26.2715C211.437 26.2715 211.584 26.2617 211.701 26.2422C211.838 26.2227 211.925 26.2031 211.964 26.1836C212.043 26.1836 212.15 26.1445 212.287 26.0664C212.443 25.9688 212.57 25.8711 212.668 25.7734V24.9531C212.668 23.9766 212.502 23.0195 212.17 22.082C211.838 21.125 211.535 20.1875 211.261 19.2695C211.261 19.2305 211.252 19.1621 211.232 19.0645C211.213 18.9473 211.183 18.8301 211.144 18.7129C211.125 18.5762 211.105 18.459 211.086 18.3613C211.066 18.2637 211.056 18.1953 211.056 18.1562C211.037 18.1367 210.998 18.0684 210.939 17.9512C210.88 17.8145 210.812 17.668 210.734 17.5117C210.656 17.3359 210.578 17.1797 210.5 17.043C210.441 16.9062 210.392 16.8086 210.353 16.75C210.255 16.4766 210.168 16.1543 210.089 15.7832C210.011 15.3926 209.923 15.002 209.826 14.6113C209.728 14.2207 209.611 13.8398 209.474 13.4688C209.357 13.0977 209.211 12.7754 209.035 12.502C209.015 12.4824 208.957 12.4238 208.859 12.3262C208.761 12.209 208.654 12.0918 208.537 11.9746C208.42 11.8379 208.302 11.7109 208.185 11.5938C208.068 11.4766 207.98 11.3984 207.922 11.3594C207.863 11.3398 207.775 11.3105 207.658 11.2715C207.541 11.2129 207.443 11.1836 207.365 11.1836C207.326 11.2031 207.306 11.2129 207.306 11.2129L207.13 11.3887C207.033 11.4863 206.984 11.5645 206.984 11.623C206.828 12.0918 206.672 12.5996 206.515 13.1465C206.359 13.6934 206.183 14.2598 205.988 14.8457C205.812 15.4121 205.617 15.9785 205.402 16.5449C205.207 17.1113 204.992 17.6484 204.757 18.1562C204.738 18.1953 204.689 18.2832 204.611 18.4199C204.552 18.5371 204.484 18.6738 204.406 18.8301C204.347 18.9668 204.289 19.1035 204.23 19.2402C204.191 19.3574 204.172 19.4355 204.172 19.4746C204.113 19.5332 204.035 19.7188 203.937 20.0312C203.839 20.3242 203.732 20.666 203.615 21.0566C203.498 21.4277 203.38 21.8086 203.263 22.1992C203.166 22.5898 203.078 22.8828 203 23.0781C202.863 23.4883 202.707 23.918 202.531 24.3672C202.375 24.7969 202.297 25.2266 202.297 25.6562C202.297 25.7539 202.297 25.8613 202.297 25.9785C202.316 26.0762 202.375 26.1445 202.472 26.1836ZM196.261 43C196.144 43 195.929 43 195.617 43C195.304 43.0195 194.972 43.0293 194.621 43.0293C194.269 43.0293 193.927 43.0293 193.595 43.0293C193.263 43.0488 193.029 43.0586 192.892 43.0586C192.853 43.0586 192.765 43.0684 192.629 43.0879C192.511 43.1074 192.375 43.127 192.218 43.1465C192.082 43.166 191.945 43.1758 191.808 43.1758C191.691 43.1953 191.613 43.2051 191.574 43.2051C191.418 43.2051 191.173 43.1953 190.841 43.1758C190.509 43.1758 190.148 43.166 189.757 43.1465C189.386 43.127 189.035 43.1074 188.703 43.0879C188.351 43.0684 188.097 43.0586 187.941 43.0586C187.668 42.9805 187.492 42.8828 187.414 42.7656C187.316 42.6289 187.267 42.4043 187.267 42.0918C187.267 41.8184 187.345 41.6035 187.502 41.4473C187.638 41.291 187.824 41.1738 188.058 41.0957C188.293 41.0176 188.566 40.9688 188.879 40.9492C189.172 40.9297 189.464 40.9199 189.757 40.9199C190.07 40.9199 190.353 40.9199 190.607 40.9199C190.88 40.9004 191.125 40.8711 191.339 40.832C191.379 40.793 191.457 40.7148 191.574 40.5977C191.691 40.4805 191.75 40.4023 191.75 40.3633C191.789 40.3047 191.867 40.2266 191.984 40.1289C192.121 40.0117 192.267 39.8945 192.423 39.7773C192.58 39.6406 192.716 39.5234 192.834 39.4258C192.97 39.3086 193.058 39.2305 193.097 39.1914C193.742 38.625 194.201 38.0098 194.474 37.3457C194.767 36.6621 195.06 35.9492 195.353 35.207C195.978 33.6055 196.672 32.043 197.433 30.5195C198.214 28.9961 198.937 27.4141 199.601 25.7734C199.621 25.7539 199.65 25.6855 199.689 25.5684C199.728 25.4316 199.767 25.2949 199.806 25.1582C199.865 25.0215 199.914 24.8848 199.953 24.748C200.011 24.6113 200.041 24.5137 200.041 24.4551C200.06 24.3965 200.089 24.2891 200.129 24.1328C200.168 23.9766 200.216 23.8105 200.275 23.6348C200.334 23.4395 200.382 23.2637 200.422 23.1074C200.48 22.9512 200.529 22.8535 200.568 22.8145C200.568 22.7949 200.636 22.6973 200.773 22.5215C200.91 22.3262 200.978 22.1895 200.978 22.1113C201.017 22.0527 201.076 21.9453 201.154 21.7891C201.232 21.6133 201.31 21.4375 201.388 21.2617C201.486 21.0664 201.574 20.8906 201.652 20.7344C201.73 20.5586 201.789 20.4414 201.828 20.3828C201.867 20.3438 201.916 20.2266 201.974 20.0312C202.033 19.8359 202.082 19.7188 202.121 19.6797C202.14 19.6602 202.17 19.6113 202.209 19.5332C202.248 19.4551 202.287 19.3672 202.326 19.2695C202.365 19.1523 202.394 19.0547 202.414 18.9766C202.453 18.8789 202.472 18.8105 202.472 18.7715C202.492 18.7129 202.521 18.5762 202.56 18.3613C202.619 18.1465 202.677 17.9219 202.736 17.6875C202.795 17.4336 202.843 17.1992 202.882 16.9844C202.922 16.7695 202.961 16.6426 203 16.6035C203.019 16.5059 203.088 16.3789 203.205 16.2227C203.341 16.0664 203.42 15.9688 203.439 15.9297C203.439 15.8906 203.468 15.7734 203.527 15.5781C203.605 15.3828 203.644 15.2656 203.644 15.2266C203.664 15.1875 203.722 15.0801 203.82 14.9043C203.918 14.7285 204.015 14.543 204.113 14.3477C204.211 14.1328 204.298 13.9375 204.377 13.7617C204.474 13.5859 204.533 13.4688 204.552 13.4102C204.572 13.3906 204.601 13.332 204.64 13.2344C204.679 13.1172 204.718 13 204.757 12.8828C204.797 12.7461 204.836 12.6289 204.875 12.5312C204.914 12.4141 204.943 12.3359 204.963 12.2969C205.041 12.2383 205.099 12.1602 205.138 12.0625C205.197 11.9453 205.246 11.8867 205.285 11.8867C205.304 11.8477 205.373 11.75 205.49 11.5938C205.627 11.4375 205.763 11.2715 205.9 11.0957C206.056 10.9004 206.193 10.7246 206.31 10.5684C206.447 10.3926 206.525 10.2852 206.545 10.2461C206.564 10.2461 206.584 10.1973 206.603 10.0996C206.623 10.002 206.652 9.9043 206.691 9.80664C206.73 9.68945 206.759 9.55273 206.779 9.39648C206.877 9.04492 206.984 8.73242 207.101 8.45898C207.238 8.16602 207.306 7.82422 207.306 7.43359C207.306 7.23828 207.277 7.05273 207.218 6.87695C207.16 6.70117 207.091 6.53516 207.013 6.37891C206.955 6.22266 206.896 6.06641 206.838 5.91016C206.779 5.73438 206.75 5.54883 206.75 5.35352V5.08984C206.75 5.03125 206.759 4.96289 206.779 4.88477C206.838 4.80664 206.955 4.74805 207.13 4.70898C207.326 4.65039 207.541 4.60156 207.775 4.5625C208.009 4.52344 208.244 4.48437 208.478 4.44531C208.713 4.40625 208.898 4.33789 209.035 4.24023C209.386 3.9668 209.699 3.72266 209.972 3.50781C210.246 3.29297 210.607 3.15625 211.056 3.09766C211.369 3.05859 211.672 3.13672 211.964 3.33203C212.277 3.52734 212.511 3.74219 212.668 3.97656C213.078 4.85547 213.38 5.76367 213.576 6.70117C213.791 7.61914 214.064 8.51758 214.396 9.39648C214.416 9.39648 214.445 9.44531 214.484 9.54297C214.543 9.62109 214.601 9.70898 214.66 9.80664C214.718 9.9043 214.767 10.002 214.806 10.0996C214.845 10.1973 214.865 10.2461 214.865 10.2461C214.865 10.3242 214.884 10.4902 214.923 10.7441C214.982 10.998 215.041 11.2617 215.099 11.5352C215.158 11.8086 215.207 12.0723 215.246 12.3262C215.304 12.5605 215.343 12.7168 215.363 12.7949C215.382 12.9121 215.412 13.0781 215.451 13.293C215.49 13.4883 215.529 13.6934 215.568 13.9082C215.627 14.123 215.675 14.3184 215.714 14.4941C215.773 14.6699 215.802 14.7773 215.802 14.8164C215.822 14.9141 215.9 15.1484 216.037 15.5195C216.173 15.8711 216.31 16.2617 216.447 16.6914C216.603 17.1211 216.75 17.5215 216.886 17.8926C217.023 18.2637 217.121 18.4883 217.179 18.5664C217.179 18.5859 217.179 18.6348 217.179 18.7129C217.199 18.791 217.209 18.8789 217.209 18.9766C217.228 19.0742 217.248 19.1719 217.267 19.2695C217.287 19.3477 217.306 19.416 217.326 19.4746C217.345 19.5137 217.365 19.5918 217.384 19.709C217.404 19.8066 217.423 19.9238 217.443 20.0605C217.463 20.1777 217.482 20.2949 217.502 20.4121C217.521 20.5098 217.531 20.5684 217.531 20.5879C217.531 20.6074 217.55 20.666 217.589 20.7637C217.648 20.8418 217.707 20.9395 217.765 21.0566C217.824 21.1543 217.882 21.252 217.941 21.3496C218 21.4473 218.039 21.4961 218.058 21.4961C218.058 21.5352 218.078 21.6426 218.117 21.8184C218.156 21.9941 218.195 22.1895 218.234 22.4043C218.293 22.5996 218.341 22.7949 218.38 22.9902C218.42 23.166 218.439 23.2832 218.439 23.3418C218.459 23.3613 218.488 23.4199 218.527 23.5176C218.566 23.5957 218.605 23.6836 218.644 23.7812C218.703 23.8594 218.752 23.9473 218.791 24.0449C218.83 24.123 218.849 24.1719 218.849 24.1914C218.869 24.2305 218.898 24.3184 218.937 24.4551C218.976 24.5723 219.015 24.709 219.054 24.8652C219.093 25.0215 219.123 25.168 219.142 25.3047C219.162 25.4219 219.172 25.4902 219.172 25.5098C219.425 26.7598 219.777 28.0098 220.226 29.2598C220.675 30.4902 221.066 31.7207 221.398 32.9512C221.398 32.9902 221.408 33.0781 221.427 33.2148C221.447 33.332 221.466 33.4688 221.486 33.625C221.505 33.7812 221.525 33.9277 221.545 34.0645C221.564 34.2012 221.584 34.2891 221.603 34.3281C221.623 34.3672 221.662 34.4844 221.72 34.6797C221.798 34.875 221.877 35.0898 221.955 35.3242C222.033 35.5391 222.101 35.7539 222.16 35.9688C222.238 36.1641 222.287 36.2812 222.306 36.3203C222.404 36.7109 222.502 37.1504 222.599 37.6387C222.697 38.1074 222.834 38.5664 223.009 39.0156C223.185 39.4453 223.42 39.8359 223.713 40.1875C224.025 40.5391 224.435 40.7832 224.943 40.9199C225.158 40.9785 225.353 41.0176 225.529 41.0371C225.705 41.0371 225.832 41.0371 225.91 41.0371C225.929 41.0371 225.988 41.0469 226.086 41.0664C226.183 41.0664 226.291 41.0762 226.408 41.0957C226.525 41.1152 226.642 41.1348 226.759 41.1543C226.877 41.1738 226.964 41.1934 227.023 41.2129C227.14 41.2715 227.306 41.3301 227.521 41.3887C227.755 41.4473 227.98 41.5254 228.195 41.623C228.429 41.7012 228.625 41.8184 228.781 41.9746C228.957 42.1113 229.045 42.2969 229.045 42.5312C229.045 42.7852 228.947 42.9805 228.752 43.1172C228.576 43.2539 228.361 43.3516 228.107 43.4102C227.873 43.4883 227.619 43.5273 227.345 43.5273C227.091 43.5469 226.877 43.5566 226.701 43.5566C225.431 43.5566 224.172 43.498 222.922 43.3809C221.691 43.2637 220.441 43.2051 219.172 43.2051H215.363C214.875 43.3809 214.474 43.4785 214.162 43.498C213.849 43.5371 213.468 43.5566 213.019 43.5566C212.882 43.5566 212.677 43.5469 212.404 43.5273C212.15 43.5273 211.886 43.498 211.613 43.4395C211.359 43.4004 211.134 43.3223 210.939 43.2051C210.744 43.0879 210.646 42.9219 210.646 42.707V42.6484C210.783 42.375 211.007 42.1309 211.32 41.916C211.632 41.6816 211.916 41.5156 212.17 41.418C212.248 41.418 212.443 41.3887 212.755 41.3301C213.088 41.2715 213.439 41.2129 213.81 41.1543C214.201 41.0762 214.562 41.0078 214.894 40.9492C215.226 40.8711 215.431 40.832 215.509 40.832C215.744 40.7734 215.929 40.6758 216.066 40.5391C216.203 40.3828 216.3 40.2168 216.359 40.041C216.418 39.8652 216.447 39.6797 216.447 39.4844C216.466 39.2891 216.476 39.0938 216.476 38.8984V38.0781C216.457 37.8828 216.388 37.541 216.271 37.0527C216.154 36.5449 216.007 35.9785 215.832 35.3535C215.675 34.709 215.49 34.0352 215.275 33.332C215.06 32.6289 214.845 31.9844 214.63 31.3984C214.435 30.793 214.24 30.2852 214.045 29.875C213.849 29.4453 213.683 29.1914 213.547 29.1133C213.234 28.9375 212.951 28.8301 212.697 28.791C212.443 28.752 212.189 28.7324 211.935 28.7324C211.681 28.7129 211.427 28.6934 211.173 28.6738C210.92 28.6348 210.646 28.5469 210.353 28.4102C210.216 28.4102 209.943 28.4297 209.533 28.4688C209.142 28.5078 208.713 28.5469 208.244 28.5859C207.795 28.6055 207.365 28.6348 206.955 28.6738C206.545 28.6934 206.252 28.7031 206.076 28.7031C205.744 28.7031 205.363 28.6934 204.933 28.6738C204.523 28.6543 204.093 28.6445 203.644 28.6445C202.98 28.6445 202.345 28.7324 201.74 28.9082C201.134 29.0645 200.656 29.4355 200.304 30.0215C200.285 30.1387 200.246 30.3438 200.187 30.6367C200.148 30.9297 200.089 31.2422 200.011 31.5742C199.933 31.9062 199.855 32.2285 199.777 32.541C199.718 32.834 199.66 33.0391 199.601 33.1562C199.484 33.5664 199.347 33.9766 199.191 34.3867C199.035 34.7773 198.879 35.168 198.722 35.5586C198.586 35.9492 198.468 36.3496 198.371 36.7598C198.273 37.1699 198.224 37.5801 198.224 37.9902V38.9863C198.263 39.1816 198.351 39.3574 198.488 39.5137C198.644 39.6504 198.82 39.7773 199.015 39.8945C199.211 39.9922 199.396 40.0801 199.572 40.1582C199.767 40.2363 199.923 40.3047 200.041 40.3633C200.353 40.4805 200.744 40.5684 201.213 40.627C201.681 40.6855 202.13 40.7734 202.56 40.8906C203.009 40.9883 203.39 41.1641 203.703 41.418C204.015 41.6523 204.172 42.0234 204.172 42.5312C204.172 42.8633 204.005 43.0879 203.673 43.2051C203.361 43.3418 203.048 43.459 202.736 43.5566C201.857 43.3027 201.027 43.1465 200.246 43.0879C199.484 43.0293 198.713 43 197.931 43H196.261ZM234.377 43C234.338 43 234.22 43.0195 234.025 43.0586C233.849 43.1172 233.752 43.1465 233.732 43.1465H233.615C233.361 43.1465 233.107 43.1367 232.853 43.1172C232.619 43.0977 232.404 43.0488 232.209 42.9707C232.033 42.8926 231.886 42.7754 231.769 42.6191C231.652 42.4629 231.593 42.248 231.593 41.9746V41.5352C231.613 41.3398 231.847 41.2031 232.297 41.125C232.765 41.0273 233.283 40.9688 233.849 40.9492C234.416 40.9102 234.953 40.8809 235.461 40.8613C235.968 40.8223 236.271 40.7441 236.369 40.627C236.388 40.5293 236.408 40.4414 236.427 40.3633C236.447 40.2852 236.466 40.2168 236.486 40.1582C236.505 40.0996 236.515 40.0508 236.515 40.0117C236.515 39.9336 236.525 39.8164 236.545 39.6602C236.584 39.4844 236.613 39.3086 236.632 39.1328C236.672 38.9375 236.701 38.7617 236.72 38.6055C236.74 38.4492 236.75 38.3418 236.75 38.2832C236.75 38.127 236.759 37.8047 236.779 37.3164C236.798 36.8086 236.818 36.2617 236.838 35.6758C236.857 35.0898 236.877 34.5234 236.896 33.9766C236.916 33.4297 236.925 33.0391 236.925 32.8047C236.925 32.707 236.925 32.5312 236.925 32.2773C236.945 32.0039 236.955 31.7109 236.955 31.3984C236.955 31.0859 236.945 30.8027 236.925 30.5488C236.925 30.2949 236.925 30.0996 236.925 29.9629L237.072 29.582C237.072 29.5625 237.082 29.3672 237.101 28.9961C237.121 28.6055 237.14 28.1465 237.16 27.6191C237.199 27.0918 237.228 26.5547 237.248 26.0078C237.287 25.4609 237.306 25.0117 237.306 24.6602V22.668V20.5879C237.306 20.5098 237.287 20.3926 237.248 20.2363C237.228 20.0801 237.209 19.9238 237.189 19.7676C237.17 19.5918 237.14 19.4453 237.101 19.3281C237.082 19.1914 237.072 19.1035 237.072 19.0645C236.974 18.7715 236.779 18.5664 236.486 18.4492C236.213 18.3125 235.88 18.2148 235.49 18.1562C235.119 18.0977 234.718 18.0684 234.289 18.0684C233.879 18.0488 233.498 18.0098 233.146 17.9512C232.795 17.8926 232.502 17.7949 232.267 17.6582C232.052 17.502 231.945 17.2676 231.945 16.9551C231.945 16.7793 232.004 16.623 232.121 16.4863C232.238 16.3301 232.375 16.1934 232.531 16.0762C232.687 15.959 232.853 15.8711 233.029 15.8125C233.224 15.7344 233.39 15.6953 233.527 15.6953C233.8 15.6953 234.132 15.7344 234.523 15.8125C234.914 15.8906 235.216 15.9102 235.431 15.8711C235.49 15.8711 235.607 15.8613 235.783 15.8418C235.959 15.8223 236.144 15.8027 236.339 15.7832C236.554 15.7637 236.75 15.7441 236.925 15.7246C237.121 15.7051 237.248 15.6953 237.306 15.6953C237.404 15.6953 237.629 15.7051 237.98 15.7246C238.332 15.7441 238.703 15.7637 239.093 15.7832C239.504 15.8027 239.884 15.832 240.236 15.8711C240.588 15.8906 240.812 15.9102 240.91 15.9297H241.261H241.525C241.564 15.9102 241.652 15.8906 241.789 15.8711C241.925 15.832 242.062 15.8027 242.199 15.7832C242.355 15.7637 242.492 15.7441 242.609 15.7246C242.746 15.7051 242.824 15.6953 242.843 15.6953H244.308C244.328 15.6953 244.396 15.6855 244.513 15.666C244.63 15.6465 244.748 15.627 244.865 15.6074C245.002 15.5879 245.119 15.5684 245.216 15.5488C245.334 15.5293 245.402 15.5195 245.422 15.5195H245.539C245.578 15.5195 245.607 15.5195 245.627 15.5195C245.666 15.5 245.705 15.4902 245.744 15.4902C245.978 15.4902 246.213 15.5 246.447 15.5195C246.681 15.5391 246.896 15.5879 247.091 15.666C247.287 15.7246 247.443 15.832 247.56 15.9883C247.697 16.1445 247.765 16.3594 247.765 16.6328C247.765 16.6914 247.746 16.7793 247.707 16.8965C247.668 16.9941 247.648 17.0625 247.648 17.1016C247.492 17.1992 247.248 17.3457 246.916 17.541C246.584 17.7168 246.31 17.8242 246.095 17.8633C246.017 17.8633 245.841 17.8828 245.568 17.9219C245.314 17.9414 245.041 17.9707 244.748 18.0098C244.455 18.0293 244.181 18.0586 243.927 18.0977C243.673 18.1172 243.517 18.127 243.459 18.127C243.302 18.1465 243.166 18.2148 243.048 18.332C242.951 18.4297 242.882 18.5566 242.843 18.7129C242.668 19.5918 242.55 20.4609 242.492 21.3203C242.453 22.1797 242.433 23.0586 242.433 23.957V26.7695V27.707C242.433 27.7266 242.414 27.8438 242.375 28.0586C242.355 28.2539 242.326 28.4785 242.287 28.7324C242.267 28.9668 242.238 29.1914 242.199 29.4062C242.179 29.6211 242.17 29.7578 242.17 29.8164V34.2695V35.9688C242.17 36.0273 242.16 36.1543 242.14 36.3496C242.121 36.5449 242.101 36.75 242.082 36.9648C242.062 37.1797 242.043 37.375 242.023 37.5508C242.004 37.7266 241.994 37.834 241.994 37.873V38.0195V38.2832C241.994 38.3223 242.023 38.4297 242.082 38.6055C242.14 38.7617 242.17 38.8594 242.17 38.8984C242.17 38.9375 242.14 39.0059 242.082 39.1035C242.023 39.1816 241.994 39.25 241.994 39.3086C241.974 39.3672 241.964 39.4258 241.964 39.4844C241.945 39.5234 241.935 39.5723 241.935 39.6309C241.935 39.6699 241.935 39.709 241.935 39.748C241.935 40.1191 242.043 40.4707 242.257 40.8027C242.492 41.1152 242.785 41.2715 243.136 41.2715H243.312C243.879 41.1738 244.464 41.0859 245.07 41.0078C245.695 40.9102 246.291 40.8613 246.857 40.8613H251.808C251.886 40.8613 252.013 40.8516 252.189 40.832C252.384 40.8125 252.57 40.793 252.746 40.7734C252.922 40.7539 253.078 40.7344 253.214 40.7148C253.351 40.6758 253.429 40.6465 253.449 40.627C253.488 40.6074 253.566 40.5488 253.683 40.4512C253.8 40.334 253.927 40.207 254.064 40.0703C254.22 39.9141 254.357 39.7676 254.474 39.6309C254.611 39.4941 254.709 39.3867 254.767 39.3086C254.767 39.2891 254.787 39.2402 254.826 39.1621C254.865 39.0645 254.904 38.9766 254.943 38.8984C254.982 38.8008 255.021 38.7129 255.06 38.6348C255.099 38.5566 255.129 38.5078 255.148 38.4883C255.148 38.4688 255.177 38.4395 255.236 38.4004C255.314 38.3418 255.392 38.2832 255.47 38.2246C255.548 38.166 255.617 38.1172 255.675 38.0781C255.754 38.0391 255.802 38.0195 255.822 38.0195L255.968 37.873C256.007 37.8535 256.086 37.7461 256.203 37.5508C256.32 37.3359 256.379 37.209 256.379 37.1699C256.457 37.0918 256.554 36.9746 256.672 36.8184C256.808 36.6426 256.945 36.4668 257.082 36.291C257.238 36.0957 257.375 35.9199 257.492 35.7637C257.609 35.5879 257.697 35.4707 257.755 35.4121C257.834 35.3145 257.882 35.2559 257.902 35.2363C257.941 35.2168 258.039 35.207 258.195 35.207C258.507 35.207 258.752 35.334 258.927 35.5879C259.103 35.8223 259.23 36.1055 259.308 36.4375C259.386 36.7695 259.425 37.1113 259.425 37.4629C259.445 37.7949 259.455 38.0684 259.455 38.2832C259.455 38.3809 259.455 38.498 259.455 38.6348C259.455 38.7715 259.455 38.9082 259.455 39.0449C259.455 39.1816 259.445 39.2988 259.425 39.3965C259.425 39.4941 259.425 39.543 259.425 39.543C259.425 39.582 259.396 39.6895 259.338 39.8652C259.279 40.0215 259.25 40.1191 259.25 40.1582C259.211 40.6074 259.191 40.998 259.191 41.3301C259.191 41.6426 259.142 41.916 259.045 42.1504C258.966 42.3848 258.81 42.5801 258.576 42.7363C258.361 42.8926 258 43.0293 257.492 43.1465C257.316 43.166 256.994 43.1758 256.525 43.1758C256.056 43.1953 255.548 43.2051 255.002 43.2051C254.474 43.2051 253.966 43.2051 253.478 43.2051C253.009 43.2051 252.677 43.2051 252.482 43.2051C252.13 43.2051 251.681 43.2051 251.134 43.2051C250.588 43.2051 250.05 43.2051 249.523 43.2051C249.015 43.2051 248.566 43.1953 248.175 43.1758C247.785 43.1758 247.58 43.166 247.56 43.1465C247.463 43.1465 247.267 43.1367 246.974 43.1172C246.701 43.1172 246.388 43.1074 246.037 43.0879C245.705 43.0879 245.373 43.0781 245.041 43.0586C244.728 43.0391 244.484 43.0195 244.308 43C244.289 43 244.23 42.9902 244.132 42.9707C244.035 42.9512 243.927 42.9316 243.81 42.9121C243.693 42.8926 243.586 42.873 243.488 42.8535C243.39 42.834 243.332 42.8145 243.312 42.7949H243.136H242.843C242.746 42.8145 242.55 42.834 242.257 42.8535C241.964 42.873 241.652 42.8926 241.32 42.9121C240.988 42.9316 240.666 42.9512 240.353 42.9707C240.06 42.9902 239.875 43 239.797 43H237.834C237.795 43 237.658 43.0195 237.423 43.0586C237.209 43.1172 237.091 43.1465 237.072 43.1465C236.935 43.2246 236.769 43.2637 236.574 43.2637C236.398 43.2832 236.261 43.293 236.164 43.293C236.105 43.293 235.988 43.2734 235.812 43.2344C235.636 43.2148 235.441 43.1855 235.226 43.1465C235.031 43.1074 234.845 43.0684 234.67 43.0293C234.494 43.0098 234.396 43 234.377 43ZM262.414 43C262.414 42.9219 262.355 42.8145 262.238 42.6777C262.14 42.5215 262.082 42.3945 262.062 42.2969V42.1797V42.1504C262.101 42.0723 262.189 41.9551 262.326 41.7988C262.463 41.6426 262.609 41.4863 262.765 41.3301C262.941 41.1543 263.097 40.998 263.234 40.8613C263.39 40.7246 263.498 40.627 263.556 40.5684C263.595 40.5293 263.722 40.4902 263.937 40.4512C264.172 40.3926 264.338 40.3633 264.435 40.3633H266.515C266.574 40.3633 266.652 40.3535 266.75 40.334C266.867 40.2949 266.974 40.2656 267.072 40.2461C267.189 40.207 267.287 40.168 267.365 40.1289C267.463 40.0898 267.511 40.0703 267.511 40.0703C267.785 39.9336 267.941 39.7188 267.98 39.4258C268.039 39.1133 268.068 38.8203 268.068 38.5469V38.0781C268.068 37.3945 268.048 36.75 268.009 36.1445C267.99 35.5195 267.98 34.8652 267.98 34.1816V33.9766C267.98 33.918 267.99 33.8105 268.009 33.6543C268.029 33.498 268.048 33.332 268.068 33.1562C268.107 32.9609 268.146 32.7852 268.185 32.6289C268.224 32.4727 268.254 32.3652 268.273 32.3066V19.5332C268.273 19.1426 268.205 18.8301 268.068 18.5957C267.931 18.3613 267.755 18.1855 267.541 18.0684C267.326 17.9316 267.072 17.8438 266.779 17.8047C266.505 17.7656 266.213 17.7461 265.9 17.7461H264.699C264.152 17.7461 263.693 17.6777 263.322 17.541C262.951 17.4043 262.765 17.0723 262.765 16.5449C262.765 16.3691 262.765 16.2129 262.765 16.0762C262.785 15.9395 262.834 15.7539 262.912 15.5195C263.849 15.5586 264.767 15.5293 265.666 15.4316C266.564 15.334 267.472 15.2852 268.39 15.2852H269.152C269.23 15.3047 269.386 15.3242 269.621 15.3438C269.875 15.3633 270.129 15.3828 270.382 15.4023C270.656 15.4219 270.91 15.4414 271.144 15.4609C271.379 15.4805 271.545 15.5 271.642 15.5195H285.412C285.998 15.5195 286.418 15.6758 286.672 15.9883C286.925 16.2812 287.111 16.6523 287.228 17.1016V18.7715V20.5C287.228 20.6172 287.209 20.832 287.17 21.1445C287.13 21.4375 287.082 21.7598 287.023 22.1113C286.984 22.4434 286.935 22.7754 286.877 23.1074C286.838 23.4199 286.808 23.6445 286.789 23.7812C286.75 23.8398 286.681 23.9277 286.584 24.0449C286.486 24.1426 286.418 24.1914 286.379 24.1914C286.379 24.2305 286.359 24.25 286.32 24.25H286.291H286.203C286.144 24.25 286.115 24.2305 286.115 24.1914C285.783 23.957 285.529 23.6934 285.353 23.4004C285.177 23.0879 285.031 22.7656 284.914 22.4336C284.797 22.1016 284.689 21.7695 284.591 21.4375C284.494 21.1055 284.347 20.793 284.152 20.5C284.113 20.4219 283.986 20.2949 283.771 20.1191C283.576 19.9238 283.468 19.8164 283.449 19.7969C283.41 19.7578 283.322 19.6504 283.185 19.4746C283.068 19.2988 282.931 19.1133 282.775 18.918C282.638 18.7031 282.502 18.5078 282.365 18.332C282.248 18.1562 282.17 18.0488 282.13 18.0098C282.052 17.834 281.964 17.7461 281.867 17.7461C281.847 17.7461 281.779 17.7363 281.662 17.7168C281.564 17.6973 281.447 17.6777 281.31 17.6582C281.193 17.6191 281.076 17.5898 280.959 17.5703C280.861 17.5508 280.812 17.5312 280.812 17.5117C280.754 17.5117 280.646 17.4922 280.49 17.4531C280.334 17.4141 280.158 17.375 279.963 17.3359C279.787 17.2969 279.621 17.2578 279.464 17.2188C279.308 17.1602 279.211 17.1211 279.172 17.1016H279.025C278.947 17.1016 278.839 17.1309 278.703 17.1895C278.566 17.2285 278.468 17.248 278.41 17.248H278.322C278.263 17.2285 278.097 17.209 277.824 17.1895C277.57 17.1699 277.287 17.1602 276.974 17.1602C276.662 17.1406 276.369 17.1309 276.095 17.1309C275.841 17.1113 275.685 17.1016 275.627 17.1016H275.539C275.187 17.1016 274.894 17.1699 274.66 17.3066C274.425 17.4434 274.23 17.6191 274.074 17.834C273.937 18.0488 273.81 18.293 273.693 18.5664C273.595 18.8203 273.498 19.0742 273.4 19.3281C273.38 19.543 273.341 19.8945 273.283 20.3828C273.244 20.8711 273.195 21.3887 273.136 21.9355C273.097 22.4824 273.058 23 273.019 23.4883C272.98 23.9766 272.961 24.3184 272.961 24.5137V24.748V24.8945C272.961 24.9922 272.97 25.1582 272.99 25.3926C273.009 25.627 273.029 25.8809 273.048 26.1543C273.068 26.4082 273.088 26.6621 273.107 26.916C273.146 27.1504 273.175 27.3066 273.195 27.3848C273.332 27.5605 273.488 27.7363 273.664 27.9121C273.859 28.0879 274.064 28.2051 274.279 28.2637H275.89C276.554 28.2637 277.13 28.2539 277.619 28.2344C278.127 28.2148 278.732 28.1562 279.435 28.0586C279.455 28.0195 279.484 27.9512 279.523 27.8535C279.562 27.7559 279.611 27.6582 279.67 27.5605C279.728 27.4629 279.777 27.375 279.816 27.2969C279.855 27.2188 279.884 27.1699 279.904 27.1504C279.982 27.0137 280.08 26.8184 280.197 26.5645C280.314 26.291 280.431 26.0273 280.548 25.7734C280.666 25.5 280.763 25.2656 280.841 25.0703C280.939 24.875 280.998 24.7676 281.017 24.748C281.056 24.6699 281.095 24.5039 281.134 24.25C281.173 23.9766 281.213 23.8203 281.252 23.7812C281.408 23.6055 281.613 23.4883 281.867 23.4297C282.121 23.3711 282.375 23.3418 282.629 23.3418C282.902 23.3418 283.068 23.4492 283.127 23.6641C283.205 23.8594 283.244 24.084 283.244 24.3379V25.0703V25.4219C283.244 25.5977 283.224 25.7734 283.185 25.9492C283.146 26.1055 283.078 26.2617 282.98 26.418C282.961 26.5938 282.941 26.8867 282.922 27.2969C282.902 27.707 282.882 28.1367 282.863 28.5859C282.843 29.0352 282.824 29.4648 282.804 29.875C282.785 30.2656 282.775 30.5391 282.775 30.6953V31.457V33.2148C282.755 33.2539 282.736 33.3418 282.716 33.4785C282.697 33.6152 282.677 33.7715 282.658 33.9473C282.658 34.1035 282.648 34.2598 282.629 34.416C282.609 34.5723 282.589 34.6797 282.57 34.7383C282.355 34.8945 282.16 35.0117 281.984 35.0898C281.828 35.168 281.632 35.207 281.398 35.207C281.242 35.207 281.095 35.1484 280.959 35.0312C280.822 34.8945 280.695 34.7285 280.578 34.5332C280.461 34.3379 280.363 34.1426 280.285 33.9473C280.207 33.7324 280.158 33.5371 280.138 33.3613C280.119 33.3027 280.089 33.1758 280.05 32.9805C280.031 32.7656 280.011 32.541 279.992 32.3066C279.972 32.0527 279.953 31.8184 279.933 31.6035C279.914 31.3887 279.904 31.2324 279.904 31.1348C279.845 31.0566 279.738 30.9883 279.582 30.9297C279.445 30.8516 279.308 30.7734 279.172 30.6953C279.054 30.6562 278.869 30.6074 278.615 30.5488C278.361 30.4902 278.088 30.4414 277.795 30.4023C277.521 30.3438 277.257 30.3047 277.004 30.2852C276.769 30.2461 276.613 30.2266 276.535 30.2266C276.476 30.2266 276.369 30.2266 276.213 30.2266C276.076 30.207 275.91 30.1973 275.714 30.1973C275.539 30.1973 275.363 30.1973 275.187 30.1973C275.011 30.1777 274.875 30.168 274.777 30.168C274.718 30.168 274.621 30.1777 274.484 30.1973C274.367 30.1973 274.24 30.1973 274.103 30.1973C273.986 30.1973 273.879 30.207 273.781 30.2266C273.683 30.2266 273.625 30.2266 273.605 30.2266L273.195 30.6953V31.6914C273.195 32.8438 273.156 33.957 273.078 35.0312C273 36.0859 272.961 37.1895 272.961 38.3418C272.961 38.9277 273.009 39.3574 273.107 39.6309C273.205 39.9043 273.361 40.0996 273.576 40.2168C273.791 40.334 274.064 40.4219 274.396 40.4805C274.728 40.5391 275.138 40.6367 275.627 40.7734C275.666 40.7734 275.734 40.8027 275.832 40.8613C275.929 40.9199 275.998 40.9785 276.037 41.0371H278.322H280.49C280.529 41.0371 280.617 41.0273 280.754 41.0078C280.89 40.9688 281.037 40.9395 281.193 40.9199C281.349 40.8809 281.486 40.8516 281.603 40.832C281.74 40.793 281.828 40.7734 281.867 40.7734H283.273H283.83C283.869 40.7734 283.937 40.7441 284.035 40.6855C284.132 40.6074 284.23 40.5293 284.328 40.4512C284.445 40.3535 284.543 40.2656 284.621 40.1875C284.699 40.1094 284.748 40.0703 284.767 40.0703C284.904 40.0117 285.011 39.9824 285.089 39.9824C285.187 39.9629 285.265 39.9531 285.324 39.9531C285.382 39.9336 285.441 39.9043 285.5 39.8652C285.558 39.8066 285.617 39.7188 285.675 39.6016C285.89 39.2891 286.047 38.9668 286.144 38.6348C286.242 38.3027 286.369 37.9707 286.525 37.6387C286.603 37.5801 286.701 37.4629 286.818 37.2871C286.935 37.0918 287.004 36.9648 287.023 36.9062C287.043 36.9062 287.101 36.877 287.199 36.8184C287.297 36.7402 287.394 36.6621 287.492 36.584C287.589 36.4863 287.677 36.3984 287.755 36.3203C287.834 36.2227 287.882 36.1543 287.902 36.1152C287.922 36.0566 287.961 35.9785 288.019 35.8809C288.097 35.7637 288.175 35.6465 288.254 35.5293C288.332 35.3926 288.4 35.2754 288.459 35.1777C288.537 35.0605 288.586 34.9824 288.605 34.9434C288.605 34.9238 288.634 34.8848 288.693 34.8262C288.732 34.8066 288.771 34.7773 288.81 34.7383C288.81 34.6992 288.82 34.6797 288.839 34.6797H288.898C289.191 34.6797 289.367 34.7969 289.425 35.0312C289.484 35.2461 289.513 35.4707 289.513 35.7051V36.3203C289.513 36.418 289.523 36.6523 289.543 37.0234C289.562 37.3945 289.572 37.7949 289.572 38.2246C289.591 38.6348 289.611 39.0254 289.63 39.3965C289.65 39.7676 289.66 39.9922 289.66 40.0703V40.1582C289.66 40.4121 289.611 40.7051 289.513 41.0371C289.416 41.3496 289.279 41.6523 289.103 41.9453C288.927 42.2383 288.713 42.4824 288.459 42.6777C288.224 42.873 287.97 42.9805 287.697 43C287.56 42.9805 287.306 42.9609 286.935 42.9414C286.584 42.9219 286.203 42.9023 285.793 42.8828C285.382 42.8633 284.992 42.8438 284.621 42.8242C284.25 42.8047 283.986 42.7754 283.83 42.7363H283.273H282.775C282.677 42.7754 282.453 42.8145 282.101 42.8535C281.75 42.873 281.369 42.8926 280.959 42.9121C280.568 42.9316 280.187 42.9512 279.816 42.9707C279.464 42.9902 279.25 43 279.172 43H268.068C268.009 43.0195 267.912 43.0391 267.775 43.0586C267.658 43.0781 267.521 43.0879 267.365 43.0879C267.228 43.1074 267.091 43.1172 266.955 43.1172C266.818 43.1367 266.72 43.1465 266.662 43.1465C266.662 43.1855 266.593 43.2051 266.457 43.2051C266.32 43.2051 266.193 43.1953 266.076 43.1758C265.959 43.1562 265.88 43.1465 265.841 43.1465C265.763 43.2051 265.607 43.2734 265.373 43.3516C265.138 43.4297 264.972 43.4688 264.875 43.4688C264.777 43.4688 264.611 43.4492 264.377 43.4102C264.162 43.3711 263.927 43.3223 263.673 43.2637C263.42 43.2246 263.175 43.1758 262.941 43.1172C262.707 43.0781 262.531 43.0391 262.414 43ZM303.459 23.6348C303.459 23.8301 303.459 24.0938 303.459 24.4258C303.459 24.7578 303.459 25.0898 303.459 25.4219C303.478 25.7344 303.488 26.0273 303.488 26.3008C303.507 26.5547 303.537 26.7012 303.576 26.7402C303.576 26.7402 303.576 26.8086 303.576 26.9453C303.595 27.0625 303.605 27.209 303.605 27.3848C303.625 27.541 303.644 27.707 303.664 27.8828C303.683 28.0391 303.703 28.166 303.722 28.2637C303.742 28.5176 303.781 28.8008 303.839 29.1133C303.898 29.4258 304.093 29.6602 304.425 29.8164C304.484 29.8359 304.572 29.8555 304.689 29.875C304.806 29.875 304.923 29.875 305.041 29.875C305.177 29.875 305.304 29.875 305.422 29.875C305.539 29.875 305.627 29.875 305.685 29.875C306.701 29.875 307.668 29.6016 308.586 29.0547C309.523 28.5078 310.363 27.8535 311.105 27.0918C311.535 26.4668 311.789 25.7441 311.867 24.9238C311.964 24.1035 312.013 23.3223 312.013 22.5801V20.8516C311.857 20.2852 311.603 19.709 311.252 19.123C310.9 18.5176 310.48 18.0488 309.992 17.7168C309.953 17.7168 309.845 17.6973 309.67 17.6582C309.513 17.5996 309.416 17.5508 309.377 17.5117C309.259 17.4531 309.093 17.3848 308.879 17.3066C308.664 17.209 308.517 17.1406 308.439 17.1016C308.166 17.0625 307.892 17.0332 307.619 17.0137C307.365 16.9746 307.111 16.9551 306.857 16.9551C306.603 16.9551 306.339 16.9746 306.066 17.0137C305.812 17.0332 305.548 17.0625 305.275 17.1016C305.138 17.1211 304.992 17.1797 304.836 17.2773C304.699 17.375 304.572 17.4922 304.455 17.6289C304.338 17.7461 304.24 17.8828 304.162 18.0391C304.084 18.1758 304.035 18.3027 304.015 18.4199C303.996 18.5566 303.957 18.752 303.898 19.0059C303.859 19.2598 303.81 19.5234 303.752 19.7969C303.713 20.0508 303.673 20.2852 303.634 20.5C303.595 20.6953 303.576 20.8125 303.576 20.8516C303.537 20.8711 303.507 20.9883 303.488 21.2031C303.488 21.418 303.478 21.6719 303.459 21.9648C303.459 22.2578 303.459 22.5605 303.459 22.873C303.459 23.1855 303.459 23.4395 303.459 23.6348ZM293.732 42.4434C293.732 42.1309 293.947 41.916 294.377 41.7988C294.826 41.6621 295.324 41.5547 295.871 41.4766C296.418 41.3789 296.935 41.2715 297.423 41.1543C297.931 41.0371 298.234 40.8418 298.332 40.5684C298.351 40.3926 298.38 40.0898 298.42 39.6602C298.459 39.2305 298.507 38.7812 298.566 38.3125C298.625 37.8242 298.673 37.375 298.713 36.9648C298.771 36.5547 298.82 36.2715 298.859 36.1152V35.793C298.859 35.1094 298.82 34.416 298.742 33.7129C298.683 33.0098 298.654 32.3066 298.654 31.6035V31.1934C298.654 31.1348 298.664 30.9785 298.683 30.7246C298.703 30.4707 298.722 30.207 298.742 29.9336C298.781 29.6406 298.81 29.377 298.83 29.1426C298.849 28.9082 298.859 28.7617 298.859 28.7031C298.859 28.6836 298.859 28.5176 298.859 28.2051C298.859 27.873 298.859 27.4922 298.859 27.0625C298.879 26.6328 298.888 26.1934 298.888 25.7441C298.888 25.2949 298.888 24.9336 298.888 24.6602C298.888 24.5039 298.888 24.2402 298.888 23.8691C298.888 23.498 298.879 23.1074 298.859 22.6973C298.859 22.2676 298.859 21.8672 298.859 21.4961C298.859 21.1055 298.859 20.8223 298.859 20.6465C298.859 20.1582 298.761 19.7383 298.566 19.3867C298.371 19.0156 298.156 18.625 297.922 18.2148C297.785 17.9805 297.502 17.8145 297.072 17.7168C296.662 17.5996 296.232 17.5117 295.783 17.4531C295.353 17.375 294.963 17.2871 294.611 17.1895C294.259 17.0723 294.084 16.877 294.084 16.6035C294.084 16.5059 294.132 16.3691 294.23 16.1934C294.347 15.998 294.464 15.8613 294.582 15.7832H296.369C296.447 15.7637 296.632 15.7441 296.925 15.7246C297.218 15.6855 297.521 15.6562 297.834 15.6367C298.166 15.5977 298.468 15.5684 298.742 15.5488C299.035 15.5293 299.22 15.5195 299.298 15.5195H301.32C301.339 15.5195 301.398 15.5098 301.496 15.4902C301.613 15.4707 301.73 15.4512 301.847 15.4316C301.984 15.3926 302.101 15.3633 302.199 15.3438C302.316 15.3047 302.394 15.2852 302.433 15.2852H302.755H303.107C303.146 15.2852 303.224 15.2949 303.341 15.3145C303.478 15.3145 303.615 15.3242 303.752 15.3438C303.908 15.3438 304.045 15.3535 304.162 15.373C304.298 15.373 304.386 15.373 304.425 15.373C304.484 15.373 304.621 15.373 304.836 15.373C305.05 15.3535 305.285 15.3438 305.539 15.3438C305.793 15.3242 306.037 15.3145 306.271 15.3145C306.505 15.2949 306.652 15.2852 306.711 15.2852H307.765H308.879C308.898 15.2852 308.966 15.3047 309.084 15.3438C309.201 15.3633 309.318 15.3828 309.435 15.4023C309.572 15.4219 309.689 15.4414 309.787 15.4609C309.904 15.4805 309.972 15.4902 309.992 15.4902C310.031 15.4902 310.138 15.4902 310.314 15.4902C310.49 15.4902 310.675 15.5 310.871 15.5195C311.086 15.5195 311.281 15.5195 311.457 15.5195C311.652 15.5195 311.779 15.5195 311.838 15.5195C312.013 15.5586 312.257 15.666 312.57 15.8418C312.902 16.0176 313.156 16.1543 313.332 16.252C313.371 16.252 313.459 16.2715 313.595 16.3105C313.752 16.3301 313.908 16.3594 314.064 16.3984C314.22 16.4375 314.367 16.4766 314.504 16.5156C314.64 16.5547 314.728 16.584 314.767 16.6035C315.509 17.1699 316.066 17.8535 316.437 18.6543C316.828 19.4355 317.13 20.2656 317.345 21.1445C317.384 21.1445 317.404 21.1836 317.404 21.2617C317.404 21.3398 317.404 21.418 317.404 21.4961C317.404 21.9648 317.375 22.4531 317.316 22.9609C317.277 23.4688 317.199 23.9766 317.082 24.4844C316.964 24.9727 316.798 25.4414 316.584 25.8906C316.388 26.3398 316.134 26.7402 315.822 27.0918C315.509 27.4824 315.138 27.8828 314.709 28.293C314.279 28.7031 313.82 28.9766 313.332 29.1133C313.234 29.1719 313.088 29.2207 312.892 29.2598C312.716 29.2988 312.521 29.3574 312.306 29.4355C312.111 29.5137 311.935 29.6211 311.779 29.7578C311.642 29.875 311.574 30.0312 311.574 30.2266C311.574 30.4609 311.711 30.8223 311.984 31.3105C312.257 31.7793 312.57 32.2773 312.922 32.8047C313.273 33.3125 313.625 33.791 313.976 34.2402C314.328 34.6895 314.591 35.0117 314.767 35.207C314.787 35.2656 314.884 35.4121 315.06 35.6465C315.236 35.8809 315.441 36.1445 315.675 36.4375C315.91 36.7109 316.144 36.9844 316.379 37.2578C316.613 37.5312 316.798 37.7363 316.935 37.873C317.033 37.9707 317.101 38.0586 317.14 38.1367C317.336 38.2734 317.58 38.4688 317.873 38.7227C318.166 38.957 318.449 39.1914 318.722 39.4258C319.015 39.6602 319.269 39.8652 319.484 40.041C319.718 40.2168 319.855 40.3047 319.894 40.3047C319.894 40.3242 319.933 40.3633 320.011 40.4219C320.109 40.4805 320.216 40.5488 320.334 40.627C320.451 40.7051 320.568 40.7832 320.685 40.8613C320.802 40.9199 320.91 40.959 321.007 40.9785C321.105 41.0371 321.252 41.1152 321.447 41.2129C321.662 41.3105 321.867 41.4277 322.062 41.5645C322.257 41.6816 322.423 41.8184 322.56 41.9746C322.697 42.1113 322.746 42.248 322.707 42.3848C322.707 42.4824 322.648 42.5703 322.531 42.6484C322.433 42.7266 322.306 42.7949 322.15 42.8535C322.013 42.8926 321.867 42.9316 321.711 42.9707C321.574 42.9902 321.466 43 321.388 43H312.687C312.511 43 312.306 43 312.072 43C311.857 42.9805 311.642 42.9414 311.427 42.8828C311.232 42.8242 311.056 42.7266 310.9 42.5898C310.763 42.4531 310.695 42.248 310.695 41.9746C310.695 41.8379 310.773 41.7012 310.929 41.5645C311.086 41.4082 311.261 41.2617 311.457 41.125C311.672 40.9883 311.877 40.8516 312.072 40.7148C312.287 40.5781 312.443 40.4414 312.541 40.3047V40.2754V40.0703C312.482 39.9922 312.414 39.8848 312.336 39.748C312.257 39.6113 312.179 39.4746 312.101 39.3379C312.043 39.1816 311.984 39.0547 311.925 38.957C311.867 38.8398 311.838 38.7715 311.838 38.752C311.779 38.6934 311.652 38.5371 311.457 38.2832C311.261 38.0098 311.047 37.7266 310.812 37.4336C310.578 37.1406 310.363 36.8672 310.168 36.6133C309.972 36.3594 309.845 36.1934 309.787 36.1152C309.435 35.627 309.093 35.1875 308.761 34.7969C308.429 34.4062 308.088 34.0352 307.736 33.6836C307.384 33.332 307.004 33 306.593 32.6875C306.203 32.3555 305.763 31.9941 305.275 31.6035C305.119 31.4668 304.972 31.3203 304.836 31.1641C304.718 31.0078 304.543 30.9297 304.308 30.9297H304.162C304.123 30.9688 304.093 31.0078 304.074 31.0469C304.035 31.125 304.015 31.1738 304.015 31.1934C303.996 31.4082 303.957 31.7891 303.898 32.3359C303.859 32.8828 303.81 33.4688 303.752 34.0938C303.713 34.6992 303.673 35.2852 303.634 35.8516C303.595 36.3984 303.576 36.7695 303.576 36.9648C303.517 36.9648 303.478 37.0332 303.459 37.1699C303.459 37.3066 303.459 37.3945 303.459 37.4336C303.459 37.5117 303.459 37.6094 303.459 37.7266C303.478 37.8242 303.517 37.873 303.576 37.873C303.576 37.9707 303.595 38.1367 303.634 38.3711C303.673 38.6055 303.713 38.8594 303.752 39.1328C303.81 39.3867 303.859 39.6309 303.898 39.8652C303.957 40.0801 303.996 40.2266 304.015 40.3047C304.015 40.3633 304.035 40.4512 304.074 40.5684C304.132 40.6855 304.191 40.8027 304.25 40.9199C304.328 41.0371 304.396 41.1445 304.455 41.2422C304.533 41.3398 304.591 41.3887 304.63 41.3887H306.711C306.711 41.4277 306.72 41.4668 306.74 41.5059C306.798 41.6035 306.838 41.6621 306.857 41.6816C306.994 41.8574 307.072 41.9746 307.091 42.0332C307.111 42.0918 307.121 42.209 307.121 42.3848C307.121 42.5996 307.013 42.7461 306.798 42.8242C306.603 42.9023 306.398 42.9609 306.183 43H304.923C303.654 43 302.404 43.0293 301.173 43.0879C299.943 43.166 298.673 43.2051 297.365 43.2051H294.787C294.513 43.2051 294.269 43.1562 294.054 43.0586C293.839 42.9609 293.732 42.7559 293.732 42.4434ZM332.199 42.7949C332.199 42.541 332.257 42.3457 332.375 42.209C332.492 42.0527 332.638 41.9258 332.814 41.8281C333.009 41.7305 333.293 41.6523 333.664 41.5938C334.035 41.5156 334.406 41.4375 334.777 41.3594C335.168 41.2617 335.509 41.1445 335.802 41.0078C336.095 40.8516 336.271 40.6367 336.33 40.3633V39.748V39.4551C336.33 39.3184 336.33 39.0156 336.33 38.5469C336.349 38.0586 336.359 37.502 336.359 36.877C336.379 36.2324 336.398 35.5488 336.418 34.8262C336.437 34.1035 336.447 33.4199 336.447 32.7754C336.466 32.1309 336.476 31.5742 336.476 31.1055C336.496 30.6172 336.505 30.2949 336.505 30.1387V25.0703V20.0312C336.408 19.6797 336.173 19.377 335.802 19.123C335.451 18.8496 335.08 18.7129 334.689 18.7129H330.939C330.802 18.7129 330.607 18.7715 330.353 18.8887C330.099 19.0059 329.923 19.084 329.826 19.123C329.084 19.5723 328.488 20.0605 328.039 20.5879C327.589 21.0957 327.14 21.6523 326.691 22.2578C326.652 22.2969 326.593 22.3652 326.515 22.4629C326.457 22.5605 326.388 22.6777 326.31 22.8145C326.252 22.9316 326.183 23.0488 326.105 23.166C326.047 23.2637 326.007 23.332 325.988 23.3711C325.949 23.4688 325.88 23.5957 325.783 23.752C325.685 23.9082 325.578 24.0645 325.461 24.2207C325.343 24.377 325.216 24.5137 325.08 24.6309C324.963 24.748 324.855 24.8066 324.757 24.8066C324.562 24.8066 324.396 24.7578 324.259 24.6602C324.142 24.5625 324.045 24.4355 323.966 24.2793C323.908 24.123 323.859 23.957 323.82 23.7812C323.8 23.5859 323.791 23.4004 323.791 23.2246C323.791 22.7949 323.83 22.3848 323.908 21.9941C323.986 21.6035 324.064 21.1934 324.142 20.7637C324.201 20.5098 324.259 20.1191 324.318 19.5918C324.396 19.0449 324.494 18.5078 324.611 17.9805C324.728 17.4336 324.894 16.9551 325.109 16.5449C325.324 16.1348 325.617 15.9297 325.988 15.9297C326.007 15.9297 326.047 15.9395 326.105 15.959C326.164 15.959 326.213 15.959 326.252 15.959C326.31 15.9785 326.369 15.9883 326.427 15.9883C326.486 16.0273 326.603 16.0957 326.779 16.1934C326.955 16.2715 327.14 16.3594 327.336 16.457C327.55 16.5547 327.746 16.6426 327.922 16.7207C328.097 16.7988 328.205 16.8379 328.244 16.8379C328.263 16.8574 328.322 16.877 328.42 16.8965C328.537 16.8965 328.654 16.8965 328.771 16.8965C328.908 16.8965 329.035 16.8965 329.152 16.8965C329.269 16.8965 329.347 16.8965 329.386 16.8965C329.386 16.8965 329.435 16.916 329.533 16.9551C329.65 16.9746 329.767 17.0039 329.884 17.043C330.021 17.082 330.138 17.1211 330.236 17.1602C330.353 17.1797 330.422 17.1895 330.441 17.1895C331.418 17.1895 332.384 17.1016 333.341 16.9258C334.318 16.7305 335.295 16.6328 336.271 16.6328C337.99 16.6328 339.689 16.7305 341.369 16.9258C343.068 17.1016 344.767 17.1895 346.466 17.1895H347.961C348 17.1699 348.097 17.1406 348.254 17.1016C348.41 17.043 348.576 16.9941 348.752 16.9551C348.927 16.8965 349.103 16.8379 349.279 16.7793C349.455 16.7207 349.582 16.6719 349.66 16.6328C349.836 16.5742 349.982 16.5059 350.099 16.4277C350.216 16.3301 350.324 16.2324 350.422 16.1348C350.539 16.0371 350.666 15.959 350.802 15.9004C350.939 15.8223 351.115 15.7832 351.33 15.7832C351.701 15.7832 351.994 15.959 352.209 16.3105C352.443 16.6426 352.619 17.043 352.736 17.5117C352.873 17.9805 352.97 18.459 353.029 18.9473C353.107 19.416 353.195 19.7773 353.293 20.0312C353.371 20.4414 353.488 20.8613 353.644 21.291C353.82 21.7207 353.908 22.1699 353.908 22.6387C353.908 22.7754 353.888 22.9316 353.849 23.1074C353.83 23.2832 353.781 23.4492 353.703 23.6055C353.625 23.7422 353.517 23.8594 353.38 23.957C353.244 24.0547 353.078 24.1035 352.882 24.1035C352.687 24.1035 352.453 23.957 352.179 23.6641C351.906 23.3516 351.613 23.0098 351.3 22.6387C351.007 22.248 350.714 21.8672 350.422 21.4961C350.148 21.125 349.894 20.8809 349.66 20.7637C349.621 20.7441 349.533 20.6953 349.396 20.6172C349.279 20.5391 349.142 20.4609 348.986 20.3828C348.849 20.3047 348.713 20.2363 348.576 20.1777C348.459 20.0996 348.38 20.0508 348.341 20.0312C347.97 19.8164 347.609 19.582 347.257 19.3281C346.925 19.0742 346.554 18.8691 346.144 18.7129C346.086 18.7129 345.978 18.7129 345.822 18.7129C345.685 18.7129 345.539 18.7129 345.382 18.7129C345.226 18.6934 345.08 18.6836 344.943 18.6836C344.826 18.6836 344.738 18.6836 344.679 18.6836H344.123C343.713 18.6836 343.293 18.7129 342.863 18.7715C342.433 18.8301 342.111 19.0156 341.896 19.3281C341.896 19.4844 341.906 19.7285 341.925 20.0605C341.945 20.3926 341.955 20.7539 341.955 21.1445C341.955 21.5352 341.945 21.8965 341.925 22.2285C341.906 22.5605 341.896 22.7949 341.896 22.9316C341.896 22.9707 341.877 23.0391 341.838 23.1367C341.818 23.2148 341.789 23.3027 341.75 23.4004C341.711 23.498 341.672 23.5957 341.632 23.6934C341.613 23.7715 341.593 23.8203 341.574 23.8398V32.7754C341.398 33.127 341.291 33.4004 341.252 33.5957C341.213 33.791 341.193 34.0547 341.193 34.3867V34.8262C341.193 34.8652 341.203 34.9531 341.222 35.0898C341.261 35.207 341.291 35.3438 341.31 35.5C341.349 35.6367 341.379 35.7734 341.398 35.9102C341.418 36.0273 341.427 36.1055 341.427 36.1445V39.4551C341.486 39.8652 341.584 40.2266 341.72 40.5391C341.857 40.8516 342.15 41.0273 342.599 41.0664C342.677 41.0859 342.834 41.1055 343.068 41.125C343.322 41.1445 343.586 41.1641 343.859 41.1836C344.152 41.2031 344.425 41.2227 344.679 41.2422C344.953 41.2617 345.138 41.2715 345.236 41.2715C345.373 41.3691 345.48 41.5059 345.558 41.6816C345.656 41.8379 345.705 42.0039 345.705 42.1797C345.705 42.3359 345.666 42.4531 345.588 42.5312C345.529 42.6094 345.412 42.7168 345.236 42.8535C344.279 42.834 343.263 42.8438 342.189 42.8828C341.134 42.9023 340.06 42.9316 338.966 42.9707C337.892 42.9902 336.828 43.0098 335.773 43.0293C334.718 43.0684 333.732 43.0879 332.814 43.0879C332.658 43.0879 332.511 43.0781 332.375 43.0586C332.257 43.0391 332.199 42.9512 332.199 42.7949Z" fill="#2D2D2D"/>
</svg>
