<svg width="500" height="500" viewBox="0 0 500 500" fill="none" xmlns="http://www.w3.org/2000/svg">
<rect width="500" height="500" fill="black"/>
<path d="M150 253.896C150.13 286.112 176.377 312.514 208.62 312.514C240.943 312.514 267.239 286.219 267.239 253.896V245.62C267.239 232.311 278.068 221.482 291.378 221.482C304.689 221.482 315.516 232.311 315.516 245.62C315.516 249.429 318.604 252.517 322.413 252.517H343.103C346.914 252.517 350 249.429 350 245.62C350 213.297 323.704 187 291.38 187C259.057 187 232.759 213.297 232.759 245.62V253.896C232.759 267.207 221.93 278.032 208.622 278.032C195.313 278.032 184.484 267.207 184.484 253.896C184.484 250.087 181.396 246.999 177.587 246.999H156.897C153.088 247.001 150 250.087 150 253.896Z" fill="white"/>
<path d="M75.3047 277.861V277.217C75.3047 277.197 75.3242 277.119 75.3633 276.982C75.4023 276.846 75.4512 276.709 75.5098 276.572C75.5684 276.416 75.6172 276.279 75.6562 276.162C75.6953 276.025 75.7148 275.938 75.7148 275.898C75.7344 275.82 75.7539 275.635 75.7734 275.342C75.8125 275.029 75.8516 274.697 75.8906 274.346C75.9297 273.994 75.959 273.652 75.9785 273.32C76.0176 272.969 76.0371 272.715 76.0371 272.559V267.168C76.0371 267.051 76.0469 266.895 76.0664 266.699C76.1055 266.504 76.1543 266.318 76.2129 266.143C76.291 265.947 76.3789 265.781 76.4766 265.645C76.5938 265.488 76.7305 265.41 76.8867 265.41C77.2383 265.41 77.502 265.498 77.6777 265.674C77.873 265.85 78.0195 266.064 78.1172 266.318C78.2344 266.553 78.3125 266.816 78.3516 267.109C78.3906 267.402 78.4297 267.666 78.4688 267.9C78.7617 269.365 79.2891 270.742 80.0508 272.031C80.832 273.32 81.8086 274.492 82.9805 275.547C83.0781 275.625 83.2051 275.732 83.3613 275.869C83.5371 276.006 83.7031 276.143 83.8594 276.279C84.0547 276.455 84.25 276.631 84.4453 276.807C84.543 276.865 84.7188 276.943 84.9727 277.041C85.2266 277.119 85.5 277.207 85.793 277.305C86.0859 277.402 86.3594 277.49 86.6133 277.568C86.8672 277.646 87.0527 277.695 87.1699 277.715C87.2285 277.715 87.375 277.725 87.6094 277.744C87.8633 277.744 88.127 277.754 88.4004 277.773C88.6738 277.773 88.9277 277.783 89.1621 277.803C89.3965 277.803 89.543 277.812 89.6016 277.832C89.6406 277.832 89.7578 277.852 89.9531 277.891C90.168 277.91 90.2852 277.92 90.3047 277.92H90.6855C90.9395 277.92 91.1738 277.871 91.3887 277.773C91.623 277.656 91.877 277.568 92.1504 277.51C92.4238 277.432 92.6875 277.383 92.9414 277.363C93.1953 277.324 93.4395 277.227 93.6738 277.07C94.0059 276.836 94.3281 276.621 94.6406 276.426C94.9727 276.211 95.2754 275.986 95.5488 275.752C95.8223 275.518 96.0664 275.254 96.2812 274.961C96.5156 274.648 96.7109 274.287 96.8672 273.877C96.8672 273.857 96.877 273.779 96.8965 273.643C96.916 273.506 96.9258 273.369 96.9258 273.232C96.9453 273.076 96.9648 272.939 96.9844 272.822C97.0039 272.686 97.0137 272.598 97.0137 272.559C97.0332 272.52 97.0723 272.432 97.1309 272.295C97.209 272.158 97.2871 272.021 97.3652 271.885C97.4629 271.729 97.541 271.592 97.5996 271.475C97.6777 271.338 97.7168 271.26 97.7168 271.24C97.7168 271.201 97.7266 271.045 97.7461 270.771C97.7656 270.498 97.7754 270.283 97.7754 270.127C97.7754 269.443 97.668 268.789 97.4531 268.164C97.2383 267.539 96.9453 266.963 96.5742 266.436C96.2227 265.889 95.793 265.4 95.2852 264.971C94.7969 264.521 94.2598 264.141 93.6738 263.828C93.6348 263.789 93.4883 263.76 93.2344 263.74C92.9805 263.701 92.834 263.662 92.7949 263.623C92.7363 263.604 92.5898 263.545 92.3555 263.447C92.1406 263.33 91.9062 263.213 91.6523 263.096C91.3984 262.959 91.1543 262.842 90.9199 262.744C90.7051 262.627 90.5684 262.549 90.5098 262.51C90.5098 262.49 90.4414 262.461 90.3047 262.422C90.1875 262.383 90.0508 262.344 89.8945 262.305C89.7383 262.246 89.582 262.197 89.4258 262.158C89.2891 262.1 89.2109 262.07 89.1914 262.07C89.1719 262.051 89.0938 262.012 88.957 261.953C88.8398 261.875 88.7031 261.807 88.5469 261.748C88.4102 261.689 88.2734 261.641 88.1367 261.602C88.0195 261.543 87.9316 261.514 87.873 261.514C87.7168 261.475 87.5312 261.445 87.3164 261.426C87.1211 261.406 87.0039 261.396 86.9648 261.396C85.8711 261.143 84.709 260.781 83.4785 260.312C82.2676 259.824 81.2031 259.287 80.2852 258.701C80.2461 258.682 80.1777 258.623 80.0801 258.525C80.002 258.428 79.9141 258.33 79.8164 258.232C79.7188 258.115 79.6211 258.008 79.5234 257.91C79.4453 257.812 79.3965 257.764 79.377 257.764C79.3379 257.764 79.25 257.734 79.1133 257.676C78.9766 257.617 78.9082 257.578 78.9082 257.559C78.8691 257.559 78.8301 257.529 78.791 257.471C78.752 257.393 78.7129 257.354 78.6738 257.354C78.6543 257.314 78.5957 257.217 78.498 257.061C78.4199 256.904 78.332 256.738 78.2344 256.562C78.1367 256.387 78.0391 256.221 77.9414 256.064C77.8633 255.908 77.8145 255.811 77.7949 255.771C77.4824 255.264 77.1504 254.756 76.7988 254.248C76.4473 253.74 76.1934 253.203 76.0371 252.637C75.8809 252.012 75.7539 251.357 75.6562 250.674C75.5586 249.99 75.5098 249.346 75.5098 248.74C75.5098 248.291 75.5195 247.812 75.5391 247.305C75.5586 246.797 75.6172 246.338 75.7148 245.928C75.7539 245.889 75.8516 245.781 76.0078 245.605C76.1641 245.41 76.2422 245.283 76.2422 245.225C76.2812 245.166 76.3301 245.088 76.3887 244.99C76.4473 244.873 76.5059 244.756 76.5645 244.639C76.6426 244.521 76.7109 244.424 76.7695 244.346C76.8281 244.248 76.8672 244.189 76.8867 244.17C77.6484 242.822 78.5859 241.65 79.6992 240.654C80.8125 239.658 82.1211 238.936 83.625 238.486C83.6641 238.486 83.7715 238.467 83.9473 238.428C84.123 238.369 84.2402 238.34 84.2988 238.34C84.377 238.301 84.5234 238.252 84.7383 238.193C84.9727 238.115 85.1094 238.076 85.1484 238.076C85.168 238.076 85.2656 238.076 85.4414 238.076C85.6172 238.057 85.8125 238.047 86.0273 238.047C86.2617 238.027 86.4961 238.018 86.7305 238.018C86.9648 237.998 87.1504 237.988 87.2871 237.988C87.3652 237.988 87.4922 237.998 87.668 238.018C87.8438 238.037 88.0293 238.057 88.2246 238.076C88.4395 238.076 88.6348 238.086 88.8105 238.105C89.0059 238.125 89.1523 238.135 89.25 238.135C89.3867 238.174 89.543 238.223 89.7188 238.281C89.9141 238.32 90.0312 238.34 90.0703 238.34C90.4023 238.359 90.6855 238.379 90.9199 238.398C91.1738 238.398 91.4277 238.428 91.6816 238.486C91.9355 238.525 92.209 238.604 92.502 238.721C92.8145 238.818 93.2051 238.975 93.6738 239.189C94.1621 239.424 94.6113 239.648 95.0215 239.863C95.4512 240.078 95.7441 240.225 95.9004 240.303C95.9395 240.342 96.0566 240.43 96.252 240.566C96.4473 240.684 96.5449 240.771 96.5449 240.83H96.9551C97.1699 240.83 97.3555 240.781 97.5117 240.684C97.668 240.586 97.8047 240.469 97.9219 240.332C98.0586 240.195 98.1855 240.049 98.3027 239.893C98.4199 239.717 98.5469 239.57 98.6836 239.453C98.7227 239.395 98.8008 239.287 98.918 239.131C99.0547 238.975 99.2012 238.809 99.3574 238.633C99.5332 238.457 99.6895 238.301 99.8262 238.164C99.9824 238.008 100.09 237.9 100.148 237.842H100.412C100.627 237.842 100.783 237.939 100.881 238.135C100.979 238.33 101.037 238.535 101.057 238.75C101.057 238.77 101.066 238.877 101.086 239.072C101.105 239.248 101.125 239.453 101.145 239.688C101.164 239.922 101.184 240.166 101.203 240.42C101.223 240.654 101.242 240.84 101.262 240.977V241.182V241.24C101.203 241.65 101.145 242.227 101.086 242.969C101.027 243.711 100.959 244.453 100.881 245.195C100.822 245.938 100.764 246.602 100.705 247.188C100.666 247.754 100.637 248.086 100.617 248.184C100.559 248.691 100.412 249.16 100.178 249.59C99.9629 250 99.5625 250.205 98.9766 250.205C98.8594 250.205 98.6738 250.195 98.4199 250.176C98.1855 250.156 98.0195 250.078 97.9219 249.941C97.6875 249.648 97.4922 249.336 97.3359 249.004C97.1992 248.672 97.0625 248.35 96.9258 248.037C96.7891 247.705 96.6426 247.373 96.4863 247.041C96.3301 246.709 96.1348 246.396 95.9004 246.104C95.627 245.771 95.3438 245.42 95.0508 245.049C94.7773 244.678 94.4844 244.316 94.1719 243.965C93.8594 243.594 93.5371 243.242 93.2051 242.91C92.873 242.578 92.5215 242.285 92.1504 242.031C92.1113 242.031 92.043 242.021 91.9453 242.002C91.8672 241.963 91.7793 241.924 91.6816 241.885C91.584 241.846 91.4863 241.807 91.3887 241.768C91.3105 241.729 91.2617 241.699 91.2422 241.68C91.2031 241.66 91.1348 241.611 91.0371 241.533C90.9395 241.436 90.8223 241.338 90.6855 241.24C90.5684 241.123 90.4512 241.025 90.334 240.947C90.2168 240.869 90.1289 240.83 90.0703 240.83C90.0703 240.811 90.0215 240.791 89.9238 240.771C89.8262 240.732 89.709 240.703 89.5723 240.684C89.4355 240.664 89.2891 240.645 89.1328 240.625C88.9961 240.605 88.8887 240.586 88.8105 240.566C88.7129 240.547 88.5566 240.527 88.3418 240.508C88.1465 240.488 87.9414 240.469 87.7266 240.449C87.5117 240.41 87.3066 240.381 87.1113 240.361C86.9355 240.342 86.8086 240.322 86.7305 240.303H86.4082C85.2559 240.303 84.2891 240.537 83.5078 241.006C82.7461 241.455 82.0625 242.119 81.457 242.998C81.2031 243.35 80.9785 243.643 80.7832 243.877C80.5879 244.092 80.4219 244.307 80.2852 244.521C80.168 244.717 80.0801 244.951 80.0215 245.225C79.9629 245.479 79.9336 245.82 79.9336 246.25C79.9336 246.348 79.9336 246.455 79.9336 246.572C79.9336 246.67 79.9434 246.768 79.9629 246.865C79.9824 246.982 80.002 247.1 80.0215 247.217C80.041 247.314 80.1094 247.49 80.2266 247.744C80.3438 247.998 80.4805 248.271 80.6367 248.564C80.793 248.838 80.9395 249.111 81.0762 249.385C81.2324 249.639 81.3594 249.824 81.457 249.941C81.457 249.98 81.5059 250.059 81.6035 250.176C81.7207 250.293 81.8477 250.43 81.9844 250.586C82.1211 250.723 82.248 250.859 82.3652 250.996C82.502 251.113 82.5996 251.201 82.6582 251.26C83.4395 251.963 84.2891 252.539 85.207 252.988C86.1445 253.418 87.0918 253.789 88.0488 254.102C89.0254 254.395 90.002 254.668 90.9785 254.922C91.9746 255.156 92.9414 255.439 93.8789 255.771C94.0352 256.025 94.25 256.172 94.5234 256.211C94.7969 256.23 95.0703 256.309 95.3438 256.445C95.5 256.562 95.7051 256.689 95.959 256.826C96.2129 256.963 96.4668 257.109 96.7207 257.266C96.9941 257.422 97.2578 257.588 97.5117 257.764C97.7852 257.92 98.0098 258.086 98.1855 258.262C98.2441 258.301 98.3223 258.369 98.4199 258.467C98.5176 258.564 98.625 258.672 98.7422 258.789C98.8594 258.887 98.9668 258.984 99.0645 259.082C99.1621 259.18 99.2402 259.258 99.2988 259.316C99.2988 259.375 99.3672 259.492 99.5039 259.668C99.6406 259.844 99.7188 259.951 99.7383 259.99C100.188 260.498 100.646 260.996 101.115 261.484C101.604 261.953 101.975 262.52 102.229 263.184C102.268 263.34 102.316 263.525 102.375 263.74C102.453 263.955 102.531 264.17 102.609 264.385C102.688 264.619 102.785 264.873 102.902 265.146C102.98 265.557 103.029 265.957 103.049 266.348C103.068 266.719 103.078 267.1 103.078 267.49C103.078 267.998 103.059 268.506 103.02 269.014C102.98 269.502 102.941 270 102.902 270.508C102.727 270.938 102.561 271.338 102.404 271.709C102.248 272.08 102.092 272.441 101.936 272.793C101.779 273.145 101.613 273.506 101.438 273.877C101.262 274.229 101.066 274.6 100.852 274.99C100.812 275.01 100.734 275.059 100.617 275.137C100.52 275.195 100.451 275.244 100.412 275.283C100.1 275.557 99.8262 275.811 99.5918 276.045C99.3574 276.279 99.123 276.514 98.8887 276.748C98.6738 276.982 98.4297 277.217 98.1562 277.451C97.9023 277.686 97.5898 277.93 97.2188 278.184C96.5938 278.613 95.9004 278.975 95.1387 279.268C94.377 279.541 93.5957 279.785 92.7949 280C92.4043 280.078 92.0918 280.117 91.8574 280.117C91.6426 280.117 91.3691 280.195 91.0371 280.352C90.9395 280.352 90.7734 280.352 90.5391 280.352C90.3242 280.371 90.0996 280.381 89.8652 280.381C89.6309 280.381 89.416 280.381 89.2207 280.381C89.0254 280.4 88.8887 280.41 88.8105 280.41C87.873 280.41 86.9453 280.391 86.0273 280.352C85.1289 280.332 84.2402 280.215 83.3613 280C82.9902 279.863 82.5898 279.746 82.1602 279.648C81.75 279.531 81.3301 279.395 80.9004 279.238C80.8418 279.219 80.7832 279.189 80.7246 279.15C80.6074 279.111 80.5293 279.072 80.4902 279.033C80.4707 279.033 80.4121 279.023 80.3145 279.004C80.2168 278.984 80.1094 278.975 79.9922 278.975C79.875 278.955 79.7578 278.936 79.6406 278.916C79.5234 278.896 79.4355 278.887 79.377 278.887H79.2598H79.0547C78.9766 278.926 78.8203 279.004 78.5859 279.121C78.3516 279.238 78.0879 279.375 77.7949 279.531C77.5215 279.668 77.248 279.795 76.9746 279.912C76.7207 280.029 76.5352 280.107 76.418 280.146C76.3398 280.205 76.2129 280.254 76.0371 280.293C75.8613 280.332 75.7539 280.352 75.7148 280.352C75.6367 280.352 75.5684 280.244 75.5098 280.029C75.4707 279.814 75.4316 279.57 75.3926 279.297C75.373 279.004 75.3535 278.721 75.334 278.447C75.3145 278.174 75.3047 277.979 75.3047 277.861ZM115.178 268.398C115.178 268.672 115.305 268.867 115.559 268.984C115.812 269.102 116.047 269.16 116.262 269.16H117.814C118.029 269.16 118.244 269.17 118.459 269.189C118.674 269.209 118.889 269.219 119.104 269.219C119.611 269.219 120.051 269.141 120.422 268.984C120.793 268.809 120.979 268.428 120.979 267.842V267.344C120.803 266.445 120.539 265.557 120.188 264.678C119.836 263.779 119.504 262.91 119.191 262.07C119.152 261.934 119.094 261.787 119.016 261.631C118.957 261.455 118.879 261.299 118.781 261.162C118.684 261.006 118.576 260.879 118.459 260.781C118.342 260.684 118.215 260.635 118.078 260.635C117.824 260.635 117.619 260.742 117.463 260.957C117.326 261.172 117.209 261.426 117.111 261.719C117.033 262.012 116.965 262.314 116.906 262.627C116.848 262.92 116.779 263.154 116.701 263.33C116.643 263.506 116.535 263.818 116.379 264.268C116.242 264.717 116.096 265.195 115.939 265.703C115.783 266.191 115.627 266.66 115.471 267.109C115.334 267.559 115.236 267.871 115.178 268.047V268.398ZM108.352 279.854H108.205C108.166 279.854 108.068 279.873 107.912 279.912C107.756 279.932 107.58 279.961 107.385 280C107.189 280.02 107.004 280.039 106.828 280.059C106.672 280.078 106.574 280.088 106.535 280.088H106.359C106.242 280.088 106.145 280.039 106.066 279.941C105.988 279.844 105.93 279.736 105.891 279.619C105.852 279.482 105.832 279.355 105.832 279.238C105.812 279.102 105.803 279.014 105.803 278.975V278.887C105.803 278.535 105.92 278.301 106.154 278.184C106.408 278.066 106.652 277.959 106.887 277.861C106.926 277.861 107.023 277.832 107.18 277.773C107.336 277.695 107.502 277.617 107.678 277.539C107.873 277.461 108.049 277.393 108.205 277.334C108.361 277.256 108.459 277.197 108.498 277.158C108.518 277.139 108.576 277.09 108.674 277.012C108.771 276.914 108.879 276.807 108.996 276.689C109.113 276.572 109.221 276.455 109.318 276.338C109.436 276.221 109.533 276.123 109.611 276.045C109.631 276.006 109.66 275.957 109.699 275.898C109.777 275.781 109.816 275.693 109.816 275.635C109.816 275.596 109.836 275.479 109.875 275.283C109.934 275.088 109.982 274.971 110.021 274.932C110.549 273.877 111.076 272.812 111.604 271.738C112.131 270.645 112.629 269.551 113.098 268.457C113.156 268.398 113.234 268.232 113.332 267.959C113.449 267.666 113.527 267.461 113.566 267.344C113.586 267.305 113.635 267.188 113.713 266.992C113.791 266.777 113.869 266.562 113.947 266.348C114.025 266.113 114.094 265.898 114.152 265.703C114.23 265.508 114.27 265.391 114.27 265.352C114.289 265.293 114.348 265.156 114.445 264.941C114.562 264.727 114.68 264.492 114.797 264.238C114.934 263.984 115.051 263.74 115.148 263.506C115.266 263.271 115.344 263.125 115.383 263.066C115.539 262.715 115.686 262.402 115.822 262.129C115.979 261.836 116.125 261.494 116.262 261.104C116.34 260.947 116.438 260.771 116.555 260.576C116.691 260.381 116.818 260.176 116.936 259.961C117.053 259.727 117.15 259.502 117.229 259.287C117.326 259.072 117.375 258.867 117.375 258.672V258.262C117.375 258.184 117.346 258.057 117.287 257.881C117.248 257.686 117.229 257.578 117.229 257.559C117.229 257.422 117.307 257.246 117.463 257.031C117.619 256.816 117.736 256.68 117.814 256.621C117.854 256.602 117.941 256.562 118.078 256.504C118.234 256.445 118.391 256.377 118.547 256.299C118.703 256.221 118.84 256.152 118.957 256.094C119.094 256.035 119.172 255.996 119.191 255.977C119.23 255.938 119.309 255.859 119.426 255.742C119.543 255.625 119.67 255.498 119.807 255.361C119.963 255.205 120.1 255.059 120.217 254.922C120.354 254.766 120.451 254.658 120.51 254.6C120.529 254.58 120.568 254.521 120.627 254.424C120.686 254.307 120.754 254.199 120.832 254.102C120.91 253.984 120.998 253.887 121.096 253.809C121.193 253.711 121.301 253.672 121.418 253.691C121.613 253.75 121.779 253.926 121.916 254.219C122.072 254.512 122.199 254.834 122.297 255.186C122.414 255.518 122.512 255.85 122.59 256.182C122.668 256.494 122.736 256.709 122.795 256.826C122.814 256.924 122.844 257.061 122.883 257.236C122.941 257.412 122.99 257.588 123.029 257.764C123.088 257.939 123.137 258.096 123.176 258.232C123.215 258.369 123.234 258.447 123.234 258.467C123.254 258.525 123.283 258.662 123.322 258.877C123.361 259.092 123.4 259.326 123.439 259.58C123.498 259.834 123.547 260.068 123.586 260.283C123.625 260.479 123.645 260.596 123.645 260.635C123.664 260.693 123.713 260.879 123.791 261.191C123.889 261.504 123.996 261.865 124.113 262.275C124.23 262.686 124.348 263.096 124.465 263.506C124.582 263.896 124.68 264.209 124.758 264.443C124.914 264.971 125.109 265.498 125.344 266.025C125.578 266.533 125.754 267.051 125.871 267.578C125.969 268.027 126.027 268.389 126.047 268.662C126.086 268.916 126.184 269.229 126.34 269.6C126.359 269.639 126.398 269.727 126.457 269.863C126.535 269.98 126.613 270.117 126.691 270.273C126.77 270.41 126.838 270.547 126.896 270.684C126.955 270.82 126.994 270.918 127.014 270.977C127.014 271.016 127.023 271.084 127.043 271.182C127.062 271.279 127.082 271.396 127.102 271.533C127.141 271.65 127.17 271.768 127.189 271.885C127.209 271.982 127.229 272.051 127.248 272.09C127.248 272.109 127.268 272.178 127.307 272.295C127.346 272.393 127.395 272.51 127.453 272.646C127.512 272.764 127.561 272.881 127.6 272.998C127.658 273.096 127.697 273.145 127.717 273.145C127.814 273.652 127.941 274.199 128.098 274.785C128.254 275.371 128.498 275.889 128.83 276.338C128.986 276.572 129.27 276.768 129.68 276.924C130.109 277.08 130.539 277.236 130.969 277.393C131.418 277.549 131.809 277.725 132.141 277.92C132.473 278.115 132.639 278.369 132.639 278.682C132.639 279.014 132.551 279.277 132.375 279.473C132.219 279.648 132.014 279.785 131.76 279.883C131.506 279.98 131.223 280.039 130.91 280.059C130.598 280.078 130.305 280.088 130.031 280.088H129.445H128.83C128.518 280.088 127.971 280.078 127.189 280.059C126.408 280.039 125.568 280.02 124.67 280C123.791 279.961 122.951 279.932 122.15 279.912C121.369 279.873 120.822 279.854 120.51 279.854C120.295 279.775 120.168 279.688 120.129 279.59C120.09 279.473 120.07 279.307 120.07 279.092V278.887C120.07 278.848 120.08 278.809 120.1 278.77C120.275 278.398 120.52 278.154 120.832 278.037C121.145 277.9 121.467 277.793 121.799 277.715C122.15 277.637 122.492 277.549 122.824 277.451C123.156 277.334 123.43 277.1 123.645 276.748L123.703 276.543L123.645 276.338C123.625 276.162 123.576 275.918 123.498 275.605C123.439 275.293 123.371 274.98 123.293 274.668C123.234 274.355 123.176 274.082 123.117 273.848C123.059 273.594 123.02 273.447 123 273.408C122.961 273.369 122.902 273.271 122.824 273.115C122.746 272.959 122.658 272.783 122.561 272.588C122.482 272.393 122.395 272.207 122.297 272.031C122.219 271.836 122.15 271.689 122.092 271.592C121.877 271.26 121.574 271.064 121.184 271.006C120.812 270.928 120.441 270.889 120.07 270.889H119.484C118.781 270.889 118.117 270.938 117.492 271.035C116.887 271.133 116.242 271.182 115.559 271.182C115.422 271.182 115.285 271.172 115.148 271.152C115.012 271.133 114.875 271.123 114.738 271.123C114.602 271.26 114.533 271.367 114.533 271.445C114.494 271.465 114.445 271.543 114.387 271.68C114.348 271.797 114.299 271.934 114.24 272.09C114.201 272.227 114.152 272.363 114.094 272.5C114.055 272.617 114.035 272.686 114.035 272.705C114.035 272.744 113.967 272.861 113.83 273.057C113.713 273.252 113.625 273.369 113.566 273.408C113.332 273.896 113.195 274.404 113.156 274.932C113.117 275.439 113.098 275.967 113.098 276.514C113.098 276.826 113.195 277.061 113.391 277.217C113.586 277.354 113.83 277.461 114.123 277.539C114.416 277.617 114.729 277.686 115.061 277.744C115.393 277.783 115.705 277.852 115.998 277.949C116.291 278.027 116.535 278.154 116.73 278.33C116.926 278.506 117.023 278.76 117.023 279.092C117.023 279.736 116.721 280.137 116.115 280.293C116.037 280.293 115.891 280.283 115.676 280.264C115.48 280.244 115.275 280.225 115.061 280.205C114.846 280.186 114.641 280.166 114.445 280.146C114.25 280.127 114.113 280.107 114.035 280.088H111.955H111.135C111.076 280.088 110.92 280.078 110.666 280.059C110.412 280.039 110.129 280.02 109.816 280C109.504 279.961 109.221 279.932 108.967 279.912C108.713 279.873 108.557 279.854 108.498 279.854H108.352ZM135.861 279.092C135.861 278.779 135.969 278.535 136.184 278.359C136.398 278.164 136.662 278.018 136.975 277.92C137.287 277.822 137.609 277.754 137.941 277.715C138.273 277.656 138.547 277.607 138.762 277.568C138.82 277.549 138.918 277.529 139.055 277.51C139.211 277.49 139.367 277.48 139.523 277.48C139.699 277.461 139.855 277.441 139.992 277.422C140.148 277.402 140.246 277.383 140.285 277.363L140.578 276.455C140.578 276.377 140.578 276.094 140.578 275.605C140.598 275.098 140.607 274.521 140.607 273.877C140.607 273.232 140.607 272.598 140.607 271.973C140.627 271.328 140.637 270.811 140.637 270.42C140.637 270.068 140.637 269.609 140.637 269.043C140.637 268.477 140.627 267.871 140.607 267.227C140.607 266.582 140.607 265.928 140.607 265.264C140.607 264.6 140.598 263.994 140.578 263.447C140.578 262.881 140.578 262.412 140.578 262.041C140.578 261.65 140.578 261.406 140.578 261.309C140.578 261.172 140.559 260.928 140.52 260.576C140.5 260.205 140.471 259.824 140.432 259.434C140.412 259.023 140.383 258.643 140.344 258.291C140.305 257.92 140.285 257.676 140.285 257.559C140.266 257.324 140.236 257.041 140.197 256.709C140.158 256.377 140.109 256.055 140.051 255.742C140.012 255.43 139.973 255.166 139.934 254.951C139.895 254.717 139.875 254.59 139.875 254.57L139.348 254.16C139.25 254.16 139.074 254.15 138.82 254.131C138.586 254.111 138.332 254.092 138.059 254.072C137.785 254.033 137.521 254.004 137.268 253.984C137.014 253.965 136.848 253.955 136.77 253.955C136.555 253.877 136.369 253.77 136.213 253.633C136.076 253.477 136.008 253.311 136.008 253.135C136.008 252.861 136.096 252.637 136.271 252.461C136.467 252.266 136.701 252.109 136.975 251.992C137.248 251.875 137.531 251.797 137.824 251.758C138.117 251.699 138.371 251.67 138.586 251.67C139.055 251.67 139.475 251.719 139.846 251.816C140.236 251.895 140.646 251.934 141.076 251.934C141.193 251.934 141.311 251.934 141.428 251.934C141.564 251.934 141.721 251.924 141.896 251.904C142.072 251.885 142.297 251.855 142.57 251.816C142.844 251.777 143.195 251.729 143.625 251.67H145.236C145.627 251.67 145.969 251.66 146.262 251.641C146.574 251.602 146.857 251.562 147.111 251.523C147.385 251.484 147.648 251.455 147.902 251.436C148.156 251.396 148.42 251.377 148.693 251.377C148.752 251.377 148.83 251.387 148.928 251.406C149.045 251.406 149.152 251.406 149.25 251.406H149.66C149.68 251.445 149.787 251.484 149.982 251.523C150.061 251.543 150.148 251.553 150.246 251.553H150.51H150.715C150.734 251.553 150.812 251.553 150.949 251.553C151.086 251.553 151.232 251.543 151.389 251.523C151.545 251.504 151.691 251.494 151.828 251.494C151.984 251.475 152.082 251.445 152.121 251.406H154.523H156.779C156.818 251.445 156.896 251.475 157.014 251.494C157.15 251.514 157.287 251.533 157.424 251.553C157.58 251.553 157.727 251.572 157.863 251.611C158 251.631 158.098 251.65 158.156 251.67C158.254 251.709 158.41 251.758 158.625 251.816C158.84 251.875 158.977 251.982 159.035 252.139C159.074 252.764 159.162 253.369 159.299 253.955C159.455 254.521 159.533 255.107 159.533 255.713C159.533 255.771 159.523 255.889 159.504 256.064C159.504 256.24 159.475 256.328 159.416 256.328C159.416 256.406 159.396 256.553 159.357 256.768C159.338 256.982 159.309 257.207 159.27 257.441C159.23 257.676 159.191 257.9 159.152 258.115C159.113 258.33 159.074 258.477 159.035 258.555L158.859 258.672C158.84 258.672 158.801 258.652 158.742 258.613C158.703 258.574 158.664 258.555 158.625 258.555C158.215 258.379 157.873 258.164 157.6 257.91C157.346 257.637 157.121 257.344 156.926 257.031C156.75 256.719 156.574 256.396 156.398 256.064C156.223 255.713 156.018 255.381 155.783 255.068C155.49 254.697 155.217 254.395 154.963 254.16C154.709 253.926 154.436 253.74 154.143 253.604C153.85 253.447 153.527 253.34 153.176 253.281C152.844 253.223 152.443 253.193 151.975 253.193C150.959 253.193 149.953 253.242 148.957 253.34C147.961 253.418 146.955 253.535 145.939 253.691C145.725 253.906 145.588 254.121 145.529 254.336C145.471 254.531 145.441 254.736 145.441 254.951C145.441 255.127 145.451 255.312 145.471 255.508C145.49 255.703 145.5 255.908 145.5 256.123C145.461 256.318 145.432 256.65 145.412 257.119C145.393 257.568 145.373 258.057 145.354 258.584C145.334 259.092 145.314 259.58 145.295 260.049C145.275 260.518 145.256 260.85 145.236 261.045C145.139 261.143 145.07 261.289 145.031 261.484C144.992 261.68 144.973 261.875 144.973 262.07V262.656C145.012 262.656 145.061 262.715 145.119 262.832C145.197 262.949 145.236 263.027 145.236 263.066C145.295 263.281 145.334 263.477 145.354 263.652C145.393 263.828 145.441 263.984 145.5 264.121C145.559 264.258 145.646 264.365 145.764 264.443C145.881 264.521 146.076 264.57 146.35 264.59L146.76 264.648C146.857 264.668 146.955 264.688 147.053 264.707C147.17 264.707 147.258 264.707 147.316 264.707C147.805 264.707 148.283 264.668 148.752 264.59C149.24 264.492 149.709 264.424 150.158 264.385C150.354 264.365 150.598 264.355 150.891 264.355C151.203 264.336 151.506 264.307 151.799 264.268C152.15 264.248 152.502 264.219 152.854 264.18L153.293 263.74L153.908 261.514C154.025 261.416 154.104 261.318 154.143 261.221C154.201 261.104 154.26 260.996 154.318 260.898C154.377 260.801 154.445 260.723 154.523 260.664C154.621 260.605 154.748 260.576 154.904 260.576C155.061 260.576 155.197 260.664 155.314 260.84C155.432 261.016 155.5 261.172 155.52 261.309C155.539 261.406 155.559 261.592 155.578 261.865C155.598 262.139 155.617 262.432 155.637 262.744C155.656 263.037 155.676 263.32 155.695 263.594C155.715 263.867 155.744 264.062 155.783 264.18C155.783 264.219 155.773 264.336 155.754 264.531C155.734 264.727 155.725 264.912 155.725 265.088C155.725 265.303 155.744 265.42 155.783 265.439C155.783 265.479 155.803 265.576 155.842 265.732C155.9 265.889 155.93 265.986 155.93 266.025C156.027 266.475 156.125 266.963 156.223 267.49C156.34 268.018 156.398 268.525 156.398 269.014C156.398 269.17 156.389 269.326 156.369 269.482C156.369 269.639 156.34 269.795 156.281 269.951C156.242 270.088 156.174 270.205 156.076 270.303C155.979 270.381 155.832 270.42 155.637 270.42C155.266 270.42 154.982 270.264 154.787 269.951C154.611 269.639 154.455 269.287 154.318 268.896C154.182 268.486 154.035 268.096 153.879 267.725C153.742 267.334 153.547 267.07 153.293 266.934H150.773C150.012 266.836 149.23 266.689 148.43 266.494C147.629 266.279 146.818 266.172 145.998 266.172C145.666 266.172 145.451 266.299 145.354 266.553C145.275 266.787 145.236 267.051 145.236 267.344C145.236 267.383 145.246 267.5 145.266 267.695C145.285 267.871 145.305 268.076 145.324 268.311C145.344 268.525 145.363 268.73 145.383 268.926C145.422 269.121 145.461 269.248 145.5 269.307V275.078V275.283C145.5 275.4 145.51 275.537 145.529 275.693C145.568 275.85 145.607 276.006 145.646 276.162C145.686 276.318 145.725 276.465 145.764 276.602C145.822 276.719 145.881 276.807 145.939 276.865C145.959 276.865 146.027 276.904 146.145 276.982C146.281 277.061 146.428 277.148 146.584 277.246C146.74 277.344 146.896 277.441 147.053 277.539C147.209 277.637 147.326 277.715 147.404 277.773C147.697 277.891 147.99 277.959 148.283 277.979C148.576 277.979 148.85 277.998 149.104 278.037C149.357 278.076 149.562 278.174 149.719 278.33C149.875 278.467 149.953 278.74 149.953 279.15C149.953 279.248 149.943 279.375 149.924 279.531C149.904 279.668 149.816 279.756 149.66 279.795C149.621 279.814 149.533 279.834 149.396 279.854C149.279 279.873 149.152 279.893 149.016 279.912C148.879 279.932 148.742 279.951 148.605 279.971C148.488 279.99 148.4 280 148.342 280H141.223C141.145 280.02 140.969 280.039 140.695 280.059C140.441 280.078 140.158 280.098 139.846 280.117C139.553 280.137 139.279 280.156 139.025 280.176C138.771 280.195 138.615 280.205 138.557 280.205H138.41H137.883C137.688 280.205 137.473 280.195 137.238 280.176C137.004 280.156 136.779 280.107 136.564 280.029C136.369 279.951 136.203 279.844 136.066 279.707C135.93 279.551 135.861 279.346 135.861 279.092ZM162.697 280C162.697 279.922 162.639 279.814 162.521 279.678C162.424 279.521 162.365 279.395 162.346 279.297V279.18V279.15C162.385 279.072 162.473 278.955 162.609 278.799C162.746 278.643 162.893 278.486 163.049 278.33C163.225 278.154 163.381 277.998 163.518 277.861C163.674 277.725 163.781 277.627 163.84 277.568C163.879 277.529 164.006 277.49 164.221 277.451C164.455 277.393 164.621 277.363 164.719 277.363H166.799C166.857 277.363 166.936 277.354 167.033 277.334C167.15 277.295 167.258 277.266 167.355 277.246C167.473 277.207 167.57 277.168 167.648 277.129C167.746 277.09 167.795 277.07 167.795 277.07C168.068 276.934 168.225 276.719 168.264 276.426C168.322 276.113 168.352 275.82 168.352 275.547V275.078C168.352 274.395 168.332 273.75 168.293 273.145C168.273 272.52 168.264 271.865 168.264 271.182V270.977C168.264 270.918 168.273 270.811 168.293 270.654C168.312 270.498 168.332 270.332 168.352 270.156C168.391 269.961 168.43 269.785 168.469 269.629C168.508 269.473 168.537 269.365 168.557 269.307V256.533C168.557 256.143 168.488 255.83 168.352 255.596C168.215 255.361 168.039 255.186 167.824 255.068C167.609 254.932 167.355 254.844 167.062 254.805C166.789 254.766 166.496 254.746 166.184 254.746H164.982C164.436 254.746 163.977 254.678 163.605 254.541C163.234 254.404 163.049 254.072 163.049 253.545C163.049 253.369 163.049 253.213 163.049 253.076C163.068 252.939 163.117 252.754 163.195 252.52C164.133 252.559 165.051 252.529 165.949 252.432C166.848 252.334 167.756 252.285 168.674 252.285H169.436C169.514 252.305 169.67 252.324 169.904 252.344C170.158 252.363 170.412 252.383 170.666 252.402C170.939 252.422 171.193 252.441 171.428 252.461C171.662 252.48 171.828 252.5 171.926 252.52H185.695C186.281 252.52 186.701 252.676 186.955 252.988C187.209 253.281 187.395 253.652 187.512 254.102V255.771V257.5C187.512 257.617 187.492 257.832 187.453 258.145C187.414 258.438 187.365 258.76 187.307 259.111C187.268 259.443 187.219 259.775 187.16 260.107C187.121 260.42 187.092 260.645 187.072 260.781C187.033 260.84 186.965 260.928 186.867 261.045C186.77 261.143 186.701 261.191 186.662 261.191C186.662 261.23 186.643 261.25 186.604 261.25H186.574H186.486C186.428 261.25 186.398 261.23 186.398 261.191C186.066 260.957 185.812 260.693 185.637 260.4C185.461 260.088 185.314 259.766 185.197 259.434C185.08 259.102 184.973 258.77 184.875 258.438C184.777 258.105 184.631 257.793 184.436 257.5C184.396 257.422 184.27 257.295 184.055 257.119C183.859 256.924 183.752 256.816 183.732 256.797C183.693 256.758 183.605 256.65 183.469 256.475C183.352 256.299 183.215 256.113 183.059 255.918C182.922 255.703 182.785 255.508 182.648 255.332C182.531 255.156 182.453 255.049 182.414 255.01C182.336 254.834 182.248 254.746 182.15 254.746C182.131 254.746 182.062 254.736 181.945 254.717C181.848 254.697 181.73 254.678 181.594 254.658C181.477 254.619 181.359 254.59 181.242 254.57C181.145 254.551 181.096 254.531 181.096 254.512C181.037 254.512 180.93 254.492 180.773 254.453C180.617 254.414 180.441 254.375 180.246 254.336C180.07 254.297 179.904 254.258 179.748 254.219C179.592 254.16 179.494 254.121 179.455 254.102H179.309C179.23 254.102 179.123 254.131 178.986 254.189C178.85 254.229 178.752 254.248 178.693 254.248H178.605C178.547 254.229 178.381 254.209 178.107 254.189C177.854 254.17 177.57 254.16 177.258 254.16C176.945 254.141 176.652 254.131 176.379 254.131C176.125 254.111 175.969 254.102 175.91 254.102H175.822C175.471 254.102 175.178 254.17 174.943 254.307C174.709 254.443 174.514 254.619 174.357 254.834C174.221 255.049 174.094 255.293 173.977 255.566C173.879 255.82 173.781 256.074 173.684 256.328C173.664 256.543 173.625 256.895 173.566 257.383C173.527 257.871 173.479 258.389 173.42 258.936C173.381 259.482 173.342 260 173.303 260.488C173.264 260.977 173.244 261.318 173.244 261.514V261.748V261.895C173.244 261.992 173.254 262.158 173.273 262.393C173.293 262.627 173.312 262.881 173.332 263.154C173.352 263.408 173.371 263.662 173.391 263.916C173.43 264.15 173.459 264.307 173.479 264.385C173.615 264.561 173.771 264.736 173.947 264.912C174.143 265.088 174.348 265.205 174.562 265.264H176.174C176.838 265.264 177.414 265.254 177.902 265.234C178.41 265.215 179.016 265.156 179.719 265.059C179.738 265.02 179.768 264.951 179.807 264.854C179.846 264.756 179.895 264.658 179.953 264.561C180.012 264.463 180.061 264.375 180.1 264.297C180.139 264.219 180.168 264.17 180.188 264.15C180.266 264.014 180.363 263.818 180.48 263.564C180.598 263.291 180.715 263.027 180.832 262.773C180.949 262.5 181.047 262.266 181.125 262.07C181.223 261.875 181.281 261.768 181.301 261.748C181.34 261.67 181.379 261.504 181.418 261.25C181.457 260.977 181.496 260.82 181.535 260.781C181.691 260.605 181.896 260.488 182.15 260.43C182.404 260.371 182.658 260.342 182.912 260.342C183.186 260.342 183.352 260.449 183.41 260.664C183.488 260.859 183.527 261.084 183.527 261.338V262.07V262.422C183.527 262.598 183.508 262.773 183.469 262.949C183.43 263.105 183.361 263.262 183.264 263.418C183.244 263.594 183.225 263.887 183.205 264.297C183.186 264.707 183.166 265.137 183.146 265.586C183.127 266.035 183.107 266.465 183.088 266.875C183.068 267.266 183.059 267.539 183.059 267.695V268.457V270.215C183.039 270.254 183.02 270.342 183 270.479C182.98 270.615 182.961 270.771 182.941 270.947C182.941 271.104 182.932 271.26 182.912 271.416C182.893 271.572 182.873 271.68 182.854 271.738C182.639 271.895 182.443 272.012 182.268 272.09C182.111 272.168 181.916 272.207 181.682 272.207C181.525 272.207 181.379 272.148 181.242 272.031C181.105 271.895 180.979 271.729 180.861 271.533C180.744 271.338 180.646 271.143 180.568 270.947C180.49 270.732 180.441 270.537 180.422 270.361C180.402 270.303 180.373 270.176 180.334 269.98C180.314 269.766 180.295 269.541 180.275 269.307C180.256 269.053 180.236 268.818 180.217 268.604C180.197 268.389 180.188 268.232 180.188 268.135C180.129 268.057 180.021 267.988 179.865 267.93C179.729 267.852 179.592 267.773 179.455 267.695C179.338 267.656 179.152 267.607 178.898 267.549C178.645 267.49 178.371 267.441 178.078 267.402C177.805 267.344 177.541 267.305 177.287 267.285C177.053 267.246 176.896 267.227 176.818 267.227C176.76 267.227 176.652 267.227 176.496 267.227C176.359 267.207 176.193 267.197 175.998 267.197C175.822 267.197 175.646 267.197 175.471 267.197C175.295 267.178 175.158 267.168 175.061 267.168C175.002 267.168 174.904 267.178 174.768 267.197C174.65 267.197 174.523 267.197 174.387 267.197C174.27 267.197 174.162 267.207 174.064 267.227C173.967 267.227 173.908 267.227 173.889 267.227L173.479 267.695V268.691C173.479 269.844 173.439 270.957 173.361 272.031C173.283 273.086 173.244 274.189 173.244 275.342C173.244 275.928 173.293 276.357 173.391 276.631C173.488 276.904 173.645 277.1 173.859 277.217C174.074 277.334 174.348 277.422 174.68 277.48C175.012 277.539 175.422 277.637 175.91 277.773C175.949 277.773 176.018 277.803 176.115 277.861C176.213 277.92 176.281 277.979 176.32 278.037H178.605H180.773C180.812 278.037 180.9 278.027 181.037 278.008C181.174 277.969 181.32 277.939 181.477 277.92C181.633 277.881 181.77 277.852 181.887 277.832C182.023 277.793 182.111 277.773 182.15 277.773H183.557H184.113C184.152 277.773 184.221 277.744 184.318 277.686C184.416 277.607 184.514 277.529 184.611 277.451C184.729 277.354 184.826 277.266 184.904 277.188C184.982 277.109 185.031 277.07 185.051 277.07C185.188 277.012 185.295 276.982 185.373 276.982C185.471 276.963 185.549 276.953 185.607 276.953C185.666 276.934 185.725 276.904 185.783 276.865C185.842 276.807 185.9 276.719 185.959 276.602C186.174 276.289 186.33 275.967 186.428 275.635C186.525 275.303 186.652 274.971 186.809 274.639C186.887 274.58 186.984 274.463 187.102 274.287C187.219 274.092 187.287 273.965 187.307 273.906C187.326 273.906 187.385 273.877 187.482 273.818C187.58 273.74 187.678 273.662 187.775 273.584C187.873 273.486 187.961 273.398 188.039 273.32C188.117 273.223 188.166 273.154 188.186 273.115C188.205 273.057 188.244 272.979 188.303 272.881C188.381 272.764 188.459 272.646 188.537 272.529C188.615 272.393 188.684 272.275 188.742 272.178C188.82 272.061 188.869 271.982 188.889 271.943C188.889 271.924 188.918 271.885 188.977 271.826C189.016 271.807 189.055 271.777 189.094 271.738C189.094 271.699 189.104 271.68 189.123 271.68H189.182C189.475 271.68 189.65 271.797 189.709 272.031C189.768 272.246 189.797 272.471 189.797 272.705V273.32C189.797 273.418 189.807 273.652 189.826 274.023C189.846 274.395 189.855 274.795 189.855 275.225C189.875 275.635 189.895 276.025 189.914 276.396C189.934 276.768 189.943 276.992 189.943 277.07V277.158C189.943 277.412 189.895 277.705 189.797 278.037C189.699 278.35 189.562 278.652 189.387 278.945C189.211 279.238 188.996 279.482 188.742 279.678C188.508 279.873 188.254 279.98 187.98 280C187.844 279.98 187.59 279.961 187.219 279.941C186.867 279.922 186.486 279.902 186.076 279.883C185.666 279.863 185.275 279.844 184.904 279.824C184.533 279.805 184.27 279.775 184.113 279.736H183.557H183.059C182.961 279.775 182.736 279.814 182.385 279.854C182.033 279.873 181.652 279.893 181.242 279.912C180.852 279.932 180.471 279.951 180.1 279.971C179.748 279.99 179.533 280 179.455 280H168.352C168.293 280.02 168.195 280.039 168.059 280.059C167.941 280.078 167.805 280.088 167.648 280.088C167.512 280.107 167.375 280.117 167.238 280.117C167.102 280.137 167.004 280.146 166.945 280.146C166.945 280.186 166.877 280.205 166.74 280.205C166.604 280.205 166.477 280.195 166.359 280.176C166.242 280.156 166.164 280.146 166.125 280.146C166.047 280.205 165.891 280.273 165.656 280.352C165.422 280.43 165.256 280.469 165.158 280.469C165.061 280.469 164.895 280.449 164.66 280.41C164.445 280.371 164.211 280.322 163.957 280.264C163.703 280.225 163.459 280.176 163.225 280.117C162.99 280.078 162.814 280.039 162.697 280ZM201.662 279.795C201.662 279.541 201.721 279.346 201.838 279.209C201.955 279.053 202.102 278.926 202.277 278.828C202.473 278.73 202.756 278.652 203.127 278.594C203.498 278.516 203.869 278.438 204.24 278.359C204.631 278.262 204.973 278.145 205.266 278.008C205.559 277.852 205.734 277.637 205.793 277.363V276.748V276.455C205.793 276.318 205.793 276.016 205.793 275.547C205.812 275.059 205.822 274.502 205.822 273.877C205.842 273.232 205.861 272.549 205.881 271.826C205.9 271.104 205.91 270.42 205.91 269.775C205.93 269.131 205.939 268.574 205.939 268.105C205.959 267.617 205.969 267.295 205.969 267.139V262.07V257.031C205.871 256.68 205.637 256.377 205.266 256.123C204.914 255.85 204.543 255.713 204.152 255.713H200.402C200.266 255.713 200.07 255.771 199.816 255.889C199.562 256.006 199.387 256.084 199.289 256.123C198.547 256.572 197.951 257.061 197.502 257.588C197.053 258.096 196.604 258.652 196.154 259.258C196.115 259.297 196.057 259.365 195.979 259.463C195.92 259.561 195.852 259.678 195.773 259.814C195.715 259.932 195.646 260.049 195.568 260.166C195.51 260.264 195.471 260.332 195.451 260.371C195.412 260.469 195.344 260.596 195.246 260.752C195.148 260.908 195.041 261.064 194.924 261.221C194.807 261.377 194.68 261.514 194.543 261.631C194.426 261.748 194.318 261.807 194.221 261.807C194.025 261.807 193.859 261.758 193.723 261.66C193.605 261.562 193.508 261.436 193.43 261.279C193.371 261.123 193.322 260.957 193.283 260.781C193.264 260.586 193.254 260.4 193.254 260.225C193.254 259.795 193.293 259.385 193.371 258.994C193.449 258.604 193.527 258.193 193.605 257.764C193.664 257.51 193.723 257.119 193.781 256.592C193.859 256.045 193.957 255.508 194.074 254.98C194.191 254.434 194.357 253.955 194.572 253.545C194.787 253.135 195.08 252.93 195.451 252.93C195.471 252.93 195.51 252.939 195.568 252.959C195.627 252.959 195.676 252.959 195.715 252.959C195.773 252.979 195.832 252.988 195.891 252.988C195.949 253.027 196.066 253.096 196.242 253.193C196.418 253.271 196.604 253.359 196.799 253.457C197.014 253.555 197.209 253.643 197.385 253.721C197.561 253.799 197.668 253.838 197.707 253.838C197.727 253.857 197.785 253.877 197.883 253.896C198 253.896 198.117 253.896 198.234 253.896C198.371 253.896 198.498 253.896 198.615 253.896C198.732 253.896 198.811 253.896 198.85 253.896C198.85 253.896 198.898 253.916 198.996 253.955C199.113 253.975 199.23 254.004 199.348 254.043C199.484 254.082 199.602 254.121 199.699 254.16C199.816 254.18 199.885 254.189 199.904 254.189C200.881 254.189 201.848 254.102 202.805 253.926C203.781 253.73 204.758 253.633 205.734 253.633C207.453 253.633 209.152 253.73 210.832 253.926C212.531 254.102 214.23 254.189 215.93 254.189H217.424C217.463 254.17 217.561 254.141 217.717 254.102C217.873 254.043 218.039 253.994 218.215 253.955C218.391 253.896 218.566 253.838 218.742 253.779C218.918 253.721 219.045 253.672 219.123 253.633C219.299 253.574 219.445 253.506 219.562 253.428C219.68 253.33 219.787 253.232 219.885 253.135C220.002 253.037 220.129 252.959 220.266 252.9C220.402 252.822 220.578 252.783 220.793 252.783C221.164 252.783 221.457 252.959 221.672 253.311C221.906 253.643 222.082 254.043 222.199 254.512C222.336 254.98 222.434 255.459 222.492 255.947C222.57 256.416 222.658 256.777 222.756 257.031C222.834 257.441 222.951 257.861 223.107 258.291C223.283 258.721 223.371 259.17 223.371 259.639C223.371 259.775 223.352 259.932 223.312 260.107C223.293 260.283 223.244 260.449 223.166 260.605C223.088 260.742 222.98 260.859 222.844 260.957C222.707 261.055 222.541 261.104 222.346 261.104C222.15 261.104 221.916 260.957 221.643 260.664C221.369 260.352 221.076 260.01 220.764 259.639C220.471 259.248 220.178 258.867 219.885 258.496C219.611 258.125 219.357 257.881 219.123 257.764C219.084 257.744 218.996 257.695 218.859 257.617C218.742 257.539 218.605 257.461 218.449 257.383C218.312 257.305 218.176 257.236 218.039 257.178C217.922 257.1 217.844 257.051 217.805 257.031C217.434 256.816 217.072 256.582 216.721 256.328C216.389 256.074 216.018 255.869 215.607 255.713C215.549 255.713 215.441 255.713 215.285 255.713C215.148 255.713 215.002 255.713 214.846 255.713C214.689 255.693 214.543 255.684 214.406 255.684C214.289 255.684 214.201 255.684 214.143 255.684H213.586C213.176 255.684 212.756 255.713 212.326 255.771C211.896 255.83 211.574 256.016 211.359 256.328C211.359 256.484 211.369 256.729 211.389 257.061C211.408 257.393 211.418 257.754 211.418 258.145C211.418 258.535 211.408 258.896 211.389 259.229C211.369 259.561 211.359 259.795 211.359 259.932C211.359 259.971 211.34 260.039 211.301 260.137C211.281 260.215 211.252 260.303 211.213 260.4C211.174 260.498 211.135 260.596 211.096 260.693C211.076 260.771 211.057 260.82 211.037 260.84V269.775C210.861 270.127 210.754 270.4 210.715 270.596C210.676 270.791 210.656 271.055 210.656 271.387V271.826C210.656 271.865 210.666 271.953 210.686 272.09C210.725 272.207 210.754 272.344 210.773 272.5C210.812 272.637 210.842 272.773 210.861 272.91C210.881 273.027 210.891 273.105 210.891 273.145V276.455C210.949 276.865 211.047 277.227 211.184 277.539C211.32 277.852 211.613 278.027 212.062 278.066C212.141 278.086 212.297 278.105 212.531 278.125C212.785 278.145 213.049 278.164 213.322 278.184C213.615 278.203 213.889 278.223 214.143 278.242C214.416 278.262 214.602 278.271 214.699 278.271C214.836 278.369 214.943 278.506 215.021 278.682C215.119 278.838 215.168 279.004 215.168 279.18C215.168 279.336 215.129 279.453 215.051 279.531C214.992 279.609 214.875 279.717 214.699 279.854C213.742 279.834 212.727 279.844 211.652 279.883C210.598 279.902 209.523 279.932 208.43 279.971C207.355 279.99 206.291 280.01 205.236 280.029C204.182 280.068 203.195 280.088 202.277 280.088C202.121 280.088 201.975 280.078 201.838 280.059C201.721 280.039 201.662 279.951 201.662 279.795ZM229.875 280C229.875 279.98 229.885 279.961 229.904 279.941C229.904 279.922 229.904 279.912 229.904 279.912C229.924 279.893 229.934 279.873 229.934 279.854C229.953 279.814 230.012 279.746 230.109 279.648C230.227 279.551 230.344 279.443 230.461 279.326C230.578 279.209 230.686 279.102 230.783 279.004C230.9 278.887 230.988 278.799 231.047 278.74L231.34 278.682C231.418 278.662 231.486 278.643 231.545 278.623C231.623 278.604 231.682 278.594 231.721 278.594C232.072 278.496 232.453 278.408 232.863 278.33C233.293 278.232 233.693 278.115 234.064 277.979C234.436 277.822 234.748 277.617 235.002 277.363C235.275 277.109 235.432 276.758 235.471 276.309V274.082C235.471 273.105 235.422 272.139 235.324 271.182C235.246 270.225 235.227 269.248 235.266 268.252C235.188 268.076 235.041 267.783 234.826 267.373C234.611 266.943 234.387 266.494 234.152 266.025C233.918 265.557 233.693 265.117 233.479 264.707C233.283 264.277 233.146 263.984 233.068 263.828C233.049 263.77 232.98 263.643 232.863 263.447C232.746 263.252 232.619 263.047 232.482 262.832C232.365 262.598 232.248 262.383 232.131 262.188C232.033 261.992 231.975 261.865 231.955 261.807C231.916 261.768 231.857 261.65 231.779 261.455C231.721 261.26 231.652 261.055 231.574 260.84C231.496 260.605 231.428 260.391 231.369 260.195C231.311 259.98 231.271 259.854 231.252 259.814C231.252 259.736 231.184 259.609 231.047 259.434C230.91 259.258 230.842 259.15 230.842 259.111C230.451 258.486 230.109 257.832 229.816 257.148C229.543 256.465 229.211 255.791 228.82 255.127C228.781 255.127 228.742 255.059 228.703 254.922C228.664 254.766 228.615 254.658 228.557 254.6C228.42 254.482 228.156 254.385 227.766 254.307C227.375 254.209 226.975 254.092 226.564 253.955C226.154 253.818 225.793 253.652 225.48 253.457C225.168 253.242 225.012 252.969 225.012 252.637C225.012 252.48 225.061 252.363 225.158 252.285C225.256 252.207 225.373 252.148 225.51 252.109C225.646 252.051 225.783 252.021 225.92 252.021C226.076 252.002 226.213 251.982 226.33 251.963H228.205H230.344C230.422 251.982 230.617 252.012 230.93 252.051C231.242 252.07 231.574 252.1 231.926 252.139C232.277 252.158 232.6 252.178 232.893 252.197C233.205 252.217 233.4 252.227 233.479 252.227H234.387C234.582 252.227 234.787 252.236 235.002 252.256C235.236 252.275 235.441 252.324 235.617 252.402C235.793 252.461 235.939 252.559 236.057 252.695C236.174 252.832 236.232 253.018 236.232 253.252C236.232 253.525 236.145 253.73 235.969 253.867C235.793 253.984 235.598 254.092 235.383 254.189C235.188 254.287 235.002 254.404 234.826 254.541C234.67 254.658 234.592 254.854 234.592 255.127V255.361C234.65 255.498 234.738 255.762 234.855 256.152C234.973 256.523 235.1 256.924 235.236 257.354C235.393 257.783 235.539 258.193 235.676 258.584C235.812 258.955 235.91 259.219 235.969 259.375C235.969 259.414 236.008 259.521 236.086 259.697C236.164 259.854 236.252 260.039 236.35 260.254C236.447 260.449 236.535 260.635 236.613 260.811C236.711 260.986 236.77 261.094 236.789 261.133C236.809 261.172 236.838 261.26 236.877 261.396C236.936 261.514 236.994 261.65 237.053 261.807C237.111 261.943 237.16 262.08 237.199 262.217C237.238 262.334 237.268 262.412 237.287 262.451C237.346 262.568 237.424 262.705 237.521 262.861C237.619 263.018 237.736 263.174 237.873 263.33C238.01 263.467 238.146 263.584 238.283 263.682C238.439 263.779 238.576 263.828 238.693 263.828H238.869C238.889 263.789 238.957 263.711 239.074 263.594C239.211 263.477 239.289 263.408 239.309 263.389C239.328 263.369 239.367 263.301 239.426 263.184C239.504 263.047 239.572 262.91 239.631 262.773C239.709 262.617 239.777 262.48 239.836 262.363C239.914 262.227 239.963 262.139 239.982 262.1C240.002 262.08 240.041 262.002 240.1 261.865C240.158 261.729 240.227 261.582 240.305 261.426C240.383 261.27 240.451 261.123 240.51 260.986C240.568 260.83 240.607 260.732 240.627 260.693C240.666 260.635 240.734 260.488 240.832 260.254C240.93 260.02 240.998 259.873 241.037 259.814C241.213 259.482 241.398 259.141 241.594 258.789C241.809 258.418 242.004 258.047 242.18 257.676C242.375 257.285 242.531 256.904 242.648 256.533C242.785 256.162 242.854 255.791 242.854 255.42C242.854 255.186 242.678 254.99 242.326 254.834C241.975 254.658 241.594 254.492 241.184 254.336C240.773 254.16 240.393 253.984 240.041 253.809C239.689 253.613 239.514 253.369 239.514 253.076C239.514 252.92 239.572 252.793 239.689 252.695C239.826 252.578 239.973 252.49 240.129 252.432C240.305 252.354 240.471 252.305 240.627 252.285C240.803 252.246 240.939 252.227 241.037 252.227H243.527C243.586 252.227 243.723 252.227 243.938 252.227C244.172 252.207 244.416 252.197 244.67 252.197C244.924 252.178 245.158 252.158 245.373 252.139C245.588 252.119 245.715 252.1 245.754 252.08C245.793 252.08 245.91 252.08 246.105 252.08C246.32 252.061 246.555 252.041 246.809 252.021C247.082 252.002 247.346 251.992 247.6 251.992C247.873 251.973 248.088 251.963 248.244 251.963H250.734C250.91 251.963 251.047 252.012 251.145 252.109C251.262 252.207 251.34 252.275 251.379 252.314C251.457 252.451 251.496 252.607 251.496 252.783C251.516 252.959 251.525 253.057 251.525 253.076C251.525 253.115 251.506 253.193 251.467 253.311C251.447 253.428 251.398 253.535 251.32 253.633C251.242 253.73 251.115 253.857 250.939 254.014C250.783 254.15 250.627 254.248 250.471 254.307C250.295 254.365 250.08 254.414 249.826 254.453C249.592 254.492 249.348 254.531 249.094 254.57C248.84 254.609 248.596 254.668 248.361 254.746C248.127 254.824 247.932 254.951 247.775 255.127L243.322 259.58C243.283 259.619 243.205 259.727 243.088 259.902C242.971 260.078 242.893 260.186 242.854 260.225C242.795 260.303 242.678 260.469 242.502 260.723C242.326 260.957 242.141 261.211 241.945 261.484C241.75 261.758 241.564 262.012 241.389 262.246C241.213 262.461 241.096 262.598 241.037 262.656C240.764 263.105 240.607 263.555 240.568 264.004C240.529 264.453 240.412 264.902 240.217 265.352V267.139V268.955C240.217 269.053 240.217 269.268 240.217 269.6C240.236 269.932 240.246 270.322 240.246 270.771C240.266 271.201 240.285 271.67 240.305 272.178C240.324 272.686 240.344 273.164 240.363 273.613C240.383 274.043 240.393 274.434 240.393 274.785C240.412 275.117 240.422 275.332 240.422 275.43V276.25V276.543C240.441 276.758 240.666 276.934 241.096 277.07C241.525 277.188 242.004 277.285 242.531 277.363C243.078 277.441 243.596 277.52 244.084 277.598C244.592 277.656 244.924 277.744 245.08 277.861C245.139 277.9 245.217 277.979 245.314 278.096C245.432 278.193 245.549 278.301 245.666 278.418C245.783 278.535 245.891 278.652 245.988 278.77C246.105 278.867 246.184 278.936 246.223 278.975V279.238C246.223 279.414 246.154 279.551 246.018 279.648C245.9 279.727 245.764 279.795 245.607 279.854C243.967 279.932 242.316 279.99 240.656 280.029C239.016 280.068 237.365 280.088 235.705 280.088H233.684C233.332 280.146 233.01 280.234 232.717 280.352C232.443 280.488 232.121 280.557 231.75 280.557H231.164C230.891 280.557 230.607 280.527 230.314 280.469C230.021 280.41 229.875 280.254 229.875 280ZM277.072 263.184C277.814 263.145 278.488 263.174 279.094 263.271C279.719 263.369 280.363 263.418 281.027 263.418H281.584C281.662 263.418 281.838 263.408 282.111 263.389C282.385 263.369 282.668 263.35 282.961 263.33C283.273 263.291 283.566 263.262 283.84 263.242C284.113 263.203 284.279 263.184 284.338 263.184C284.416 263.184 284.621 263.203 284.953 263.242C285.285 263.262 285.588 263.271 285.861 263.271C286.037 263.271 286.184 263.262 286.301 263.242C286.438 263.223 286.525 263.203 286.564 263.184C286.643 263.184 286.75 263.145 286.887 263.066C287.043 262.969 287.17 262.871 287.268 262.773V261.953C287.268 260.977 287.102 260.02 286.77 259.082C286.438 258.125 286.135 257.188 285.861 256.27C285.861 256.23 285.852 256.162 285.832 256.064C285.812 255.947 285.783 255.83 285.744 255.713C285.725 255.576 285.705 255.459 285.686 255.361C285.666 255.264 285.656 255.195 285.656 255.156C285.637 255.137 285.598 255.068 285.539 254.951C285.48 254.814 285.412 254.668 285.334 254.512C285.256 254.336 285.178 254.18 285.1 254.043C285.041 253.906 284.992 253.809 284.953 253.75C284.855 253.477 284.768 253.154 284.689 252.783C284.611 252.393 284.523 252.002 284.426 251.611C284.328 251.221 284.211 250.84 284.074 250.469C283.957 250.098 283.811 249.775 283.635 249.502C283.615 249.482 283.557 249.424 283.459 249.326C283.361 249.209 283.254 249.092 283.137 248.975C283.02 248.838 282.902 248.711 282.785 248.594C282.668 248.477 282.58 248.398 282.521 248.359C282.463 248.34 282.375 248.311 282.258 248.271C282.141 248.213 282.043 248.184 281.965 248.184C281.926 248.203 281.906 248.213 281.906 248.213L281.73 248.389C281.633 248.486 281.584 248.564 281.584 248.623C281.428 249.092 281.271 249.6 281.115 250.146C280.959 250.693 280.783 251.26 280.588 251.846C280.412 252.412 280.217 252.979 280.002 253.545C279.807 254.111 279.592 254.648 279.357 255.156C279.338 255.195 279.289 255.283 279.211 255.42C279.152 255.537 279.084 255.674 279.006 255.83C278.947 255.967 278.889 256.104 278.83 256.24C278.791 256.357 278.771 256.436 278.771 256.475C278.713 256.533 278.635 256.719 278.537 257.031C278.439 257.324 278.332 257.666 278.215 258.057C278.098 258.428 277.98 258.809 277.863 259.199C277.766 259.59 277.678 259.883 277.6 260.078C277.463 260.488 277.307 260.918 277.131 261.367C276.975 261.797 276.896 262.227 276.896 262.656C276.896 262.754 276.896 262.861 276.896 262.979C276.916 263.076 276.975 263.145 277.072 263.184ZM270.861 280C270.744 280 270.529 280 270.217 280C269.904 280.02 269.572 280.029 269.221 280.029C268.869 280.029 268.527 280.029 268.195 280.029C267.863 280.049 267.629 280.059 267.492 280.059C267.453 280.059 267.365 280.068 267.229 280.088C267.111 280.107 266.975 280.127 266.818 280.146C266.682 280.166 266.545 280.176 266.408 280.176C266.291 280.195 266.213 280.205 266.174 280.205C266.018 280.205 265.773 280.195 265.441 280.176C265.109 280.176 264.748 280.166 264.357 280.146C263.986 280.127 263.635 280.107 263.303 280.088C262.951 280.068 262.697 280.059 262.541 280.059C262.268 279.98 262.092 279.883 262.014 279.766C261.916 279.629 261.867 279.404 261.867 279.092C261.867 278.818 261.945 278.604 262.102 278.447C262.238 278.291 262.424 278.174 262.658 278.096C262.893 278.018 263.166 277.969 263.479 277.949C263.771 277.93 264.064 277.92 264.357 277.92C264.67 277.92 264.953 277.92 265.207 277.92C265.48 277.9 265.725 277.871 265.939 277.832C265.979 277.793 266.057 277.715 266.174 277.598C266.291 277.48 266.35 277.402 266.35 277.363C266.389 277.305 266.467 277.227 266.584 277.129C266.721 277.012 266.867 276.895 267.023 276.777C267.18 276.641 267.316 276.523 267.434 276.426C267.57 276.309 267.658 276.23 267.697 276.191C268.342 275.625 268.801 275.01 269.074 274.346C269.367 273.662 269.66 272.949 269.953 272.207C270.578 270.605 271.271 269.043 272.033 267.52C272.814 265.996 273.537 264.414 274.201 262.773C274.221 262.754 274.25 262.686 274.289 262.568C274.328 262.432 274.367 262.295 274.406 262.158C274.465 262.021 274.514 261.885 274.553 261.748C274.611 261.611 274.641 261.514 274.641 261.455C274.66 261.396 274.689 261.289 274.729 261.133C274.768 260.977 274.816 260.811 274.875 260.635C274.934 260.439 274.982 260.264 275.021 260.107C275.08 259.951 275.129 259.854 275.168 259.814C275.168 259.795 275.236 259.697 275.373 259.521C275.51 259.326 275.578 259.189 275.578 259.111C275.617 259.053 275.676 258.945 275.754 258.789C275.832 258.613 275.91 258.438 275.988 258.262C276.086 258.066 276.174 257.891 276.252 257.734C276.33 257.559 276.389 257.441 276.428 257.383C276.467 257.344 276.516 257.227 276.574 257.031C276.633 256.836 276.682 256.719 276.721 256.68C276.74 256.66 276.77 256.611 276.809 256.533C276.848 256.455 276.887 256.367 276.926 256.27C276.965 256.152 276.994 256.055 277.014 255.977C277.053 255.879 277.072 255.811 277.072 255.771C277.092 255.713 277.121 255.576 277.16 255.361C277.219 255.146 277.277 254.922 277.336 254.688C277.395 254.434 277.443 254.199 277.482 253.984C277.521 253.77 277.561 253.643 277.6 253.604C277.619 253.506 277.688 253.379 277.805 253.223C277.941 253.066 278.02 252.969 278.039 252.93C278.039 252.891 278.068 252.773 278.127 252.578C278.205 252.383 278.244 252.266 278.244 252.227C278.264 252.188 278.322 252.08 278.42 251.904C278.518 251.729 278.615 251.543 278.713 251.348C278.811 251.133 278.898 250.938 278.977 250.762C279.074 250.586 279.133 250.469 279.152 250.41C279.172 250.391 279.201 250.332 279.24 250.234C279.279 250.117 279.318 250 279.357 249.883C279.396 249.746 279.436 249.629 279.475 249.531C279.514 249.414 279.543 249.336 279.562 249.297C279.641 249.238 279.699 249.16 279.738 249.062C279.797 248.945 279.846 248.887 279.885 248.887C279.904 248.848 279.973 248.75 280.09 248.594C280.227 248.438 280.363 248.271 280.5 248.096C280.656 247.9 280.793 247.725 280.91 247.568C281.047 247.393 281.125 247.285 281.145 247.246C281.164 247.246 281.184 247.197 281.203 247.1C281.223 247.002 281.252 246.904 281.291 246.807C281.33 246.689 281.359 246.553 281.379 246.396C281.477 246.045 281.584 245.732 281.701 245.459C281.838 245.166 281.906 244.824 281.906 244.434C281.906 244.238 281.877 244.053 281.818 243.877C281.76 243.701 281.691 243.535 281.613 243.379C281.555 243.223 281.496 243.066 281.438 242.91C281.379 242.734 281.35 242.549 281.35 242.354V242.09C281.35 242.031 281.359 241.963 281.379 241.885C281.438 241.807 281.555 241.748 281.73 241.709C281.926 241.65 282.141 241.602 282.375 241.562C282.609 241.523 282.844 241.484 283.078 241.445C283.312 241.406 283.498 241.338 283.635 241.24C283.986 240.967 284.299 240.723 284.572 240.508C284.846 240.293 285.207 240.156 285.656 240.098C285.969 240.059 286.271 240.137 286.564 240.332C286.877 240.527 287.111 240.742 287.268 240.977C287.678 241.855 287.98 242.764 288.176 243.701C288.391 244.619 288.664 245.518 288.996 246.396C289.016 246.396 289.045 246.445 289.084 246.543C289.143 246.621 289.201 246.709 289.26 246.807C289.318 246.904 289.367 247.002 289.406 247.1C289.445 247.197 289.465 247.246 289.465 247.246C289.465 247.324 289.484 247.49 289.523 247.744C289.582 247.998 289.641 248.262 289.699 248.535C289.758 248.809 289.807 249.072 289.846 249.326C289.904 249.561 289.943 249.717 289.963 249.795C289.982 249.912 290.012 250.078 290.051 250.293C290.09 250.488 290.129 250.693 290.168 250.908C290.227 251.123 290.275 251.318 290.314 251.494C290.373 251.67 290.402 251.777 290.402 251.816C290.422 251.914 290.5 252.148 290.637 252.52C290.773 252.871 290.91 253.262 291.047 253.691C291.203 254.121 291.35 254.521 291.486 254.893C291.623 255.264 291.721 255.488 291.779 255.566C291.779 255.586 291.779 255.635 291.779 255.713C291.799 255.791 291.809 255.879 291.809 255.977C291.828 256.074 291.848 256.172 291.867 256.27C291.887 256.348 291.906 256.416 291.926 256.475C291.945 256.514 291.965 256.592 291.984 256.709C292.004 256.807 292.023 256.924 292.043 257.061C292.062 257.178 292.082 257.295 292.102 257.412C292.121 257.51 292.131 257.568 292.131 257.588C292.131 257.607 292.15 257.666 292.189 257.764C292.248 257.842 292.307 257.939 292.365 258.057C292.424 258.154 292.482 258.252 292.541 258.35C292.6 258.447 292.639 258.496 292.658 258.496C292.658 258.535 292.678 258.643 292.717 258.818C292.756 258.994 292.795 259.189 292.834 259.404C292.893 259.6 292.941 259.795 292.98 259.99C293.02 260.166 293.039 260.283 293.039 260.342C293.059 260.361 293.088 260.42 293.127 260.518C293.166 260.596 293.205 260.684 293.244 260.781C293.303 260.859 293.352 260.947 293.391 261.045C293.43 261.123 293.449 261.172 293.449 261.191C293.469 261.23 293.498 261.318 293.537 261.455C293.576 261.572 293.615 261.709 293.654 261.865C293.693 262.021 293.723 262.168 293.742 262.305C293.762 262.422 293.771 262.49 293.771 262.51C294.025 263.76 294.377 265.01 294.826 266.26C295.275 267.49 295.666 268.721 295.998 269.951C295.998 269.99 296.008 270.078 296.027 270.215C296.047 270.332 296.066 270.469 296.086 270.625C296.105 270.781 296.125 270.928 296.145 271.064C296.164 271.201 296.184 271.289 296.203 271.328C296.223 271.367 296.262 271.484 296.32 271.68C296.398 271.875 296.477 272.09 296.555 272.324C296.633 272.539 296.701 272.754 296.76 272.969C296.838 273.164 296.887 273.281 296.906 273.32C297.004 273.711 297.102 274.15 297.199 274.639C297.297 275.107 297.434 275.566 297.609 276.016C297.785 276.445 298.02 276.836 298.312 277.188C298.625 277.539 299.035 277.783 299.543 277.92C299.758 277.979 299.953 278.018 300.129 278.037C300.305 278.037 300.432 278.037 300.51 278.037C300.529 278.037 300.588 278.047 300.686 278.066C300.783 278.066 300.891 278.076 301.008 278.096C301.125 278.115 301.242 278.135 301.359 278.154C301.477 278.174 301.564 278.193 301.623 278.213C301.74 278.271 301.906 278.33 302.121 278.389C302.355 278.447 302.58 278.525 302.795 278.623C303.029 278.701 303.225 278.818 303.381 278.975C303.557 279.111 303.645 279.297 303.645 279.531C303.645 279.785 303.547 279.98 303.352 280.117C303.176 280.254 302.961 280.352 302.707 280.41C302.473 280.488 302.219 280.527 301.945 280.527C301.691 280.547 301.477 280.557 301.301 280.557C300.031 280.557 298.771 280.498 297.521 280.381C296.291 280.264 295.041 280.205 293.771 280.205H289.963C289.475 280.381 289.074 280.479 288.762 280.498C288.449 280.537 288.068 280.557 287.619 280.557C287.482 280.557 287.277 280.547 287.004 280.527C286.75 280.527 286.486 280.498 286.213 280.439C285.959 280.4 285.734 280.322 285.539 280.205C285.344 280.088 285.246 279.922 285.246 279.707V279.648C285.383 279.375 285.607 279.131 285.92 278.916C286.232 278.682 286.516 278.516 286.77 278.418C286.848 278.418 287.043 278.389 287.355 278.33C287.688 278.271 288.039 278.213 288.41 278.154C288.801 278.076 289.162 278.008 289.494 277.949C289.826 277.871 290.031 277.832 290.109 277.832C290.344 277.773 290.529 277.676 290.666 277.539C290.803 277.383 290.9 277.217 290.959 277.041C291.018 276.865 291.047 276.68 291.047 276.484C291.066 276.289 291.076 276.094 291.076 275.898V275.078C291.057 274.883 290.988 274.541 290.871 274.053C290.754 273.545 290.607 272.979 290.432 272.354C290.275 271.709 290.09 271.035 289.875 270.332C289.66 269.629 289.445 268.984 289.23 268.398C289.035 267.793 288.84 267.285 288.645 266.875C288.449 266.445 288.283 266.191 288.146 266.113C287.834 265.938 287.551 265.83 287.297 265.791C287.043 265.752 286.789 265.732 286.535 265.732C286.281 265.713 286.027 265.693 285.773 265.674C285.52 265.635 285.246 265.547 284.953 265.41C284.816 265.41 284.543 265.43 284.133 265.469C283.742 265.508 283.312 265.547 282.844 265.586C282.395 265.605 281.965 265.635 281.555 265.674C281.145 265.693 280.852 265.703 280.676 265.703C280.344 265.703 279.963 265.693 279.533 265.674C279.123 265.654 278.693 265.645 278.244 265.645C277.58 265.645 276.945 265.732 276.34 265.908C275.734 266.064 275.256 266.436 274.904 267.021C274.885 267.139 274.846 267.344 274.787 267.637C274.748 267.93 274.689 268.242 274.611 268.574C274.533 268.906 274.455 269.229 274.377 269.541C274.318 269.834 274.26 270.039 274.201 270.156C274.084 270.566 273.947 270.977 273.791 271.387C273.635 271.777 273.479 272.168 273.322 272.559C273.186 272.949 273.068 273.35 272.971 273.76C272.873 274.17 272.824 274.58 272.824 274.99V275.986C272.863 276.182 272.951 276.357 273.088 276.514C273.244 276.65 273.42 276.777 273.615 276.895C273.811 276.992 273.996 277.08 274.172 277.158C274.367 277.236 274.523 277.305 274.641 277.363C274.953 277.48 275.344 277.568 275.812 277.627C276.281 277.686 276.73 277.773 277.16 277.891C277.609 277.988 277.99 278.164 278.303 278.418C278.615 278.652 278.771 279.023 278.771 279.531C278.771 279.863 278.605 280.088 278.273 280.205C277.961 280.342 277.648 280.459 277.336 280.557C276.457 280.303 275.627 280.146 274.846 280.088C274.084 280.029 273.312 280 272.531 280H270.861ZM308.977 280C308.938 280 308.82 280.02 308.625 280.059C308.449 280.117 308.352 280.146 308.332 280.146H308.215C307.961 280.146 307.707 280.137 307.453 280.117C307.219 280.098 307.004 280.049 306.809 279.971C306.633 279.893 306.486 279.775 306.369 279.619C306.252 279.463 306.193 279.248 306.193 278.975V278.535C306.213 278.34 306.447 278.203 306.896 278.125C307.365 278.027 307.883 277.969 308.449 277.949C309.016 277.91 309.553 277.881 310.061 277.861C310.568 277.822 310.871 277.744 310.969 277.627C310.988 277.529 311.008 277.441 311.027 277.363C311.047 277.285 311.066 277.217 311.086 277.158C311.105 277.1 311.115 277.051 311.115 277.012C311.115 276.934 311.125 276.816 311.145 276.66C311.184 276.484 311.213 276.309 311.232 276.133C311.271 275.938 311.301 275.762 311.32 275.605C311.34 275.449 311.35 275.342 311.35 275.283C311.35 275.127 311.359 274.805 311.379 274.316C311.398 273.809 311.418 273.262 311.438 272.676C311.457 272.09 311.477 271.523 311.496 270.977C311.516 270.43 311.525 270.039 311.525 269.805C311.525 269.707 311.525 269.531 311.525 269.277C311.545 269.004 311.555 268.711 311.555 268.398C311.555 268.086 311.545 267.803 311.525 267.549C311.525 267.295 311.525 267.1 311.525 266.963L311.672 266.582C311.672 266.562 311.682 266.367 311.701 265.996C311.721 265.605 311.74 265.146 311.76 264.619C311.799 264.092 311.828 263.555 311.848 263.008C311.887 262.461 311.906 262.012 311.906 261.66V259.668V257.588C311.906 257.51 311.887 257.393 311.848 257.236C311.828 257.08 311.809 256.924 311.789 256.768C311.77 256.592 311.74 256.445 311.701 256.328C311.682 256.191 311.672 256.104 311.672 256.064C311.574 255.771 311.379 255.566 311.086 255.449C310.812 255.312 310.48 255.215 310.09 255.156C309.719 255.098 309.318 255.068 308.889 255.068C308.479 255.049 308.098 255.01 307.746 254.951C307.395 254.893 307.102 254.795 306.867 254.658C306.652 254.502 306.545 254.268 306.545 253.955C306.545 253.779 306.604 253.623 306.721 253.486C306.838 253.33 306.975 253.193 307.131 253.076C307.287 252.959 307.453 252.871 307.629 252.812C307.824 252.734 307.99 252.695 308.127 252.695C308.4 252.695 308.732 252.734 309.123 252.812C309.514 252.891 309.816 252.91 310.031 252.871C310.09 252.871 310.207 252.861 310.383 252.842C310.559 252.822 310.744 252.803 310.939 252.783C311.154 252.764 311.35 252.744 311.525 252.725C311.721 252.705 311.848 252.695 311.906 252.695C312.004 252.695 312.229 252.705 312.58 252.725C312.932 252.744 313.303 252.764 313.693 252.783C314.104 252.803 314.484 252.832 314.836 252.871C315.188 252.891 315.412 252.91 315.51 252.93H315.861H316.125C316.164 252.91 316.252 252.891 316.389 252.871C316.525 252.832 316.662 252.803 316.799 252.783C316.955 252.764 317.092 252.744 317.209 252.725C317.346 252.705 317.424 252.695 317.443 252.695H318.908C318.928 252.695 318.996 252.686 319.113 252.666C319.23 252.646 319.348 252.627 319.465 252.607C319.602 252.588 319.719 252.568 319.816 252.549C319.934 252.529 320.002 252.52 320.021 252.52H320.139C320.178 252.52 320.207 252.52 320.227 252.52C320.266 252.5 320.305 252.49 320.344 252.49C320.578 252.49 320.812 252.5 321.047 252.52C321.281 252.539 321.496 252.588 321.691 252.666C321.887 252.725 322.043 252.832 322.16 252.988C322.297 253.145 322.365 253.359 322.365 253.633C322.365 253.691 322.346 253.779 322.307 253.896C322.268 253.994 322.248 254.062 322.248 254.102C322.092 254.199 321.848 254.346 321.516 254.541C321.184 254.717 320.91 254.824 320.695 254.863C320.617 254.863 320.441 254.883 320.168 254.922C319.914 254.941 319.641 254.971 319.348 255.01C319.055 255.029 318.781 255.059 318.527 255.098C318.273 255.117 318.117 255.127 318.059 255.127C317.902 255.146 317.766 255.215 317.648 255.332C317.551 255.43 317.482 255.557 317.443 255.713C317.268 256.592 317.15 257.461 317.092 258.32C317.053 259.18 317.033 260.059 317.033 260.957V263.77V264.707C317.033 264.727 317.014 264.844 316.975 265.059C316.955 265.254 316.926 265.479 316.887 265.732C316.867 265.967 316.838 266.191 316.799 266.406C316.779 266.621 316.77 266.758 316.77 266.816V271.27V272.969C316.77 273.027 316.76 273.154 316.74 273.35C316.721 273.545 316.701 273.75 316.682 273.965C316.662 274.18 316.643 274.375 316.623 274.551C316.604 274.727 316.594 274.834 316.594 274.873V275.02V275.283C316.594 275.322 316.623 275.43 316.682 275.605C316.74 275.762 316.77 275.859 316.77 275.898C316.77 275.938 316.74 276.006 316.682 276.104C316.623 276.182 316.594 276.25 316.594 276.309C316.574 276.367 316.564 276.426 316.564 276.484C316.545 276.523 316.535 276.572 316.535 276.631C316.535 276.67 316.535 276.709 316.535 276.748C316.535 277.119 316.643 277.471 316.857 277.803C317.092 278.115 317.385 278.271 317.736 278.271H317.912C318.479 278.174 319.064 278.086 319.67 278.008C320.295 277.91 320.891 277.861 321.457 277.861H326.408C326.486 277.861 326.613 277.852 326.789 277.832C326.984 277.812 327.17 277.793 327.346 277.773C327.521 277.754 327.678 277.734 327.814 277.715C327.951 277.676 328.029 277.646 328.049 277.627C328.088 277.607 328.166 277.549 328.283 277.451C328.4 277.334 328.527 277.207 328.664 277.07C328.82 276.914 328.957 276.768 329.074 276.631C329.211 276.494 329.309 276.387 329.367 276.309C329.367 276.289 329.387 276.24 329.426 276.162C329.465 276.064 329.504 275.977 329.543 275.898C329.582 275.801 329.621 275.713 329.66 275.635C329.699 275.557 329.729 275.508 329.748 275.488C329.748 275.469 329.777 275.439 329.836 275.4C329.914 275.342 329.992 275.283 330.07 275.225C330.148 275.166 330.217 275.117 330.275 275.078C330.354 275.039 330.402 275.02 330.422 275.02L330.568 274.873C330.607 274.854 330.686 274.746 330.803 274.551C330.92 274.336 330.979 274.209 330.979 274.17C331.057 274.092 331.154 273.975 331.271 273.818C331.408 273.643 331.545 273.467 331.682 273.291C331.838 273.096 331.975 272.92 332.092 272.764C332.209 272.588 332.297 272.471 332.355 272.412C332.434 272.314 332.482 272.256 332.502 272.236C332.541 272.217 332.639 272.207 332.795 272.207C333.107 272.207 333.352 272.334 333.527 272.588C333.703 272.822 333.83 273.105 333.908 273.438C333.986 273.77 334.025 274.111 334.025 274.463C334.045 274.795 334.055 275.068 334.055 275.283C334.055 275.381 334.055 275.498 334.055 275.635C334.055 275.771 334.055 275.908 334.055 276.045C334.055 276.182 334.045 276.299 334.025 276.396C334.025 276.494 334.025 276.543 334.025 276.543C334.025 276.582 333.996 276.689 333.938 276.865C333.879 277.021 333.85 277.119 333.85 277.158C333.811 277.607 333.791 277.998 333.791 278.33C333.791 278.643 333.742 278.916 333.645 279.15C333.566 279.385 333.41 279.58 333.176 279.736C332.961 279.893 332.6 280.029 332.092 280.146C331.916 280.166 331.594 280.176 331.125 280.176C330.656 280.195 330.148 280.205 329.602 280.205C329.074 280.205 328.566 280.205 328.078 280.205C327.609 280.205 327.277 280.205 327.082 280.205C326.73 280.205 326.281 280.205 325.734 280.205C325.188 280.205 324.65 280.205 324.123 280.205C323.615 280.205 323.166 280.195 322.775 280.176C322.385 280.176 322.18 280.166 322.16 280.146C322.062 280.146 321.867 280.137 321.574 280.117C321.301 280.117 320.988 280.107 320.637 280.088C320.305 280.088 319.973 280.078 319.641 280.059C319.328 280.039 319.084 280.02 318.908 280C318.889 280 318.83 279.99 318.732 279.971C318.635 279.951 318.527 279.932 318.41 279.912C318.293 279.893 318.186 279.873 318.088 279.854C317.99 279.834 317.932 279.814 317.912 279.795H317.736H317.443C317.346 279.814 317.15 279.834 316.857 279.854C316.564 279.873 316.252 279.893 315.92 279.912C315.588 279.932 315.266 279.951 314.953 279.971C314.66 279.99 314.475 280 314.396 280H312.434C312.395 280 312.258 280.02 312.023 280.059C311.809 280.117 311.691 280.146 311.672 280.146C311.535 280.225 311.369 280.264 311.174 280.264C310.998 280.283 310.861 280.293 310.764 280.293C310.705 280.293 310.588 280.273 310.412 280.234C310.236 280.215 310.041 280.186 309.826 280.146C309.631 280.107 309.445 280.068 309.27 280.029C309.094 280.01 308.996 280 308.977 280ZM337.014 280C337.014 279.922 336.955 279.814 336.838 279.678C336.74 279.521 336.682 279.395 336.662 279.297V279.18V279.15C336.701 279.072 336.789 278.955 336.926 278.799C337.062 278.643 337.209 278.486 337.365 278.33C337.541 278.154 337.697 277.998 337.834 277.861C337.99 277.725 338.098 277.627 338.156 277.568C338.195 277.529 338.322 277.49 338.537 277.451C338.771 277.393 338.938 277.363 339.035 277.363H341.115C341.174 277.363 341.252 277.354 341.35 277.334C341.467 277.295 341.574 277.266 341.672 277.246C341.789 277.207 341.887 277.168 341.965 277.129C342.062 277.09 342.111 277.07 342.111 277.07C342.385 276.934 342.541 276.719 342.58 276.426C342.639 276.113 342.668 275.82 342.668 275.547V275.078C342.668 274.395 342.648 273.75 342.609 273.145C342.59 272.52 342.58 271.865 342.58 271.182V270.977C342.58 270.918 342.59 270.811 342.609 270.654C342.629 270.498 342.648 270.332 342.668 270.156C342.707 269.961 342.746 269.785 342.785 269.629C342.824 269.473 342.854 269.365 342.873 269.307V256.533C342.873 256.143 342.805 255.83 342.668 255.596C342.531 255.361 342.355 255.186 342.141 255.068C341.926 254.932 341.672 254.844 341.379 254.805C341.105 254.766 340.812 254.746 340.5 254.746H339.299C338.752 254.746 338.293 254.678 337.922 254.541C337.551 254.404 337.365 254.072 337.365 253.545C337.365 253.369 337.365 253.213 337.365 253.076C337.385 252.939 337.434 252.754 337.512 252.52C338.449 252.559 339.367 252.529 340.266 252.432C341.164 252.334 342.072 252.285 342.99 252.285H343.752C343.83 252.305 343.986 252.324 344.221 252.344C344.475 252.363 344.729 252.383 344.982 252.402C345.256 252.422 345.51 252.441 345.744 252.461C345.979 252.48 346.145 252.5 346.242 252.52H360.012C360.598 252.52 361.018 252.676 361.271 252.988C361.525 253.281 361.711 253.652 361.828 254.102V255.771V257.5C361.828 257.617 361.809 257.832 361.77 258.145C361.73 258.438 361.682 258.76 361.623 259.111C361.584 259.443 361.535 259.775 361.477 260.107C361.438 260.42 361.408 260.645 361.389 260.781C361.35 260.84 361.281 260.928 361.184 261.045C361.086 261.143 361.018 261.191 360.979 261.191C360.979 261.23 360.959 261.25 360.92 261.25H360.891H360.803C360.744 261.25 360.715 261.23 360.715 261.191C360.383 260.957 360.129 260.693 359.953 260.4C359.777 260.088 359.631 259.766 359.514 259.434C359.396 259.102 359.289 258.77 359.191 258.438C359.094 258.105 358.947 257.793 358.752 257.5C358.713 257.422 358.586 257.295 358.371 257.119C358.176 256.924 358.068 256.816 358.049 256.797C358.01 256.758 357.922 256.65 357.785 256.475C357.668 256.299 357.531 256.113 357.375 255.918C357.238 255.703 357.102 255.508 356.965 255.332C356.848 255.156 356.77 255.049 356.73 255.01C356.652 254.834 356.564 254.746 356.467 254.746C356.447 254.746 356.379 254.736 356.262 254.717C356.164 254.697 356.047 254.678 355.91 254.658C355.793 254.619 355.676 254.59 355.559 254.57C355.461 254.551 355.412 254.531 355.412 254.512C355.354 254.512 355.246 254.492 355.09 254.453C354.934 254.414 354.758 254.375 354.562 254.336C354.387 254.297 354.221 254.258 354.064 254.219C353.908 254.16 353.811 254.121 353.771 254.102H353.625C353.547 254.102 353.439 254.131 353.303 254.189C353.166 254.229 353.068 254.248 353.01 254.248H352.922C352.863 254.229 352.697 254.209 352.424 254.189C352.17 254.17 351.887 254.16 351.574 254.16C351.262 254.141 350.969 254.131 350.695 254.131C350.441 254.111 350.285 254.102 350.227 254.102H350.139C349.787 254.102 349.494 254.17 349.26 254.307C349.025 254.443 348.83 254.619 348.674 254.834C348.537 255.049 348.41 255.293 348.293 255.566C348.195 255.82 348.098 256.074 348 256.328C347.98 256.543 347.941 256.895 347.883 257.383C347.844 257.871 347.795 258.389 347.736 258.936C347.697 259.482 347.658 260 347.619 260.488C347.58 260.977 347.561 261.318 347.561 261.514V261.748V261.895C347.561 261.992 347.57 262.158 347.59 262.393C347.609 262.627 347.629 262.881 347.648 263.154C347.668 263.408 347.688 263.662 347.707 263.916C347.746 264.15 347.775 264.307 347.795 264.385C347.932 264.561 348.088 264.736 348.264 264.912C348.459 265.088 348.664 265.205 348.879 265.264H350.49C351.154 265.264 351.73 265.254 352.219 265.234C352.727 265.215 353.332 265.156 354.035 265.059C354.055 265.02 354.084 264.951 354.123 264.854C354.162 264.756 354.211 264.658 354.27 264.561C354.328 264.463 354.377 264.375 354.416 264.297C354.455 264.219 354.484 264.17 354.504 264.15C354.582 264.014 354.68 263.818 354.797 263.564C354.914 263.291 355.031 263.027 355.148 262.773C355.266 262.5 355.363 262.266 355.441 262.07C355.539 261.875 355.598 261.768 355.617 261.748C355.656 261.67 355.695 261.504 355.734 261.25C355.773 260.977 355.812 260.82 355.852 260.781C356.008 260.605 356.213 260.488 356.467 260.43C356.721 260.371 356.975 260.342 357.229 260.342C357.502 260.342 357.668 260.449 357.727 260.664C357.805 260.859 357.844 261.084 357.844 261.338V262.07V262.422C357.844 262.598 357.824 262.773 357.785 262.949C357.746 263.105 357.678 263.262 357.58 263.418C357.561 263.594 357.541 263.887 357.521 264.297C357.502 264.707 357.482 265.137 357.463 265.586C357.443 266.035 357.424 266.465 357.404 266.875C357.385 267.266 357.375 267.539 357.375 267.695V268.457V270.215C357.355 270.254 357.336 270.342 357.316 270.479C357.297 270.615 357.277 270.771 357.258 270.947C357.258 271.104 357.248 271.26 357.229 271.416C357.209 271.572 357.189 271.68 357.17 271.738C356.955 271.895 356.76 272.012 356.584 272.09C356.428 272.168 356.232 272.207 355.998 272.207C355.842 272.207 355.695 272.148 355.559 272.031C355.422 271.895 355.295 271.729 355.178 271.533C355.061 271.338 354.963 271.143 354.885 270.947C354.807 270.732 354.758 270.537 354.738 270.361C354.719 270.303 354.689 270.176 354.65 269.98C354.631 269.766 354.611 269.541 354.592 269.307C354.572 269.053 354.553 268.818 354.533 268.604C354.514 268.389 354.504 268.232 354.504 268.135C354.445 268.057 354.338 267.988 354.182 267.93C354.045 267.852 353.908 267.773 353.771 267.695C353.654 267.656 353.469 267.607 353.215 267.549C352.961 267.49 352.688 267.441 352.395 267.402C352.121 267.344 351.857 267.305 351.604 267.285C351.369 267.246 351.213 267.227 351.135 267.227C351.076 267.227 350.969 267.227 350.812 267.227C350.676 267.207 350.51 267.197 350.314 267.197C350.139 267.197 349.963 267.197 349.787 267.197C349.611 267.178 349.475 267.168 349.377 267.168C349.318 267.168 349.221 267.178 349.084 267.197C348.967 267.197 348.84 267.197 348.703 267.197C348.586 267.197 348.479 267.207 348.381 267.227C348.283 267.227 348.225 267.227 348.205 267.227L347.795 267.695V268.691C347.795 269.844 347.756 270.957 347.678 272.031C347.6 273.086 347.561 274.189 347.561 275.342C347.561 275.928 347.609 276.357 347.707 276.631C347.805 276.904 347.961 277.1 348.176 277.217C348.391 277.334 348.664 277.422 348.996 277.48C349.328 277.539 349.738 277.637 350.227 277.773C350.266 277.773 350.334 277.803 350.432 277.861C350.529 277.92 350.598 277.979 350.637 278.037H352.922H355.09C355.129 278.037 355.217 278.027 355.354 278.008C355.49 277.969 355.637 277.939 355.793 277.92C355.949 277.881 356.086 277.852 356.203 277.832C356.34 277.793 356.428 277.773 356.467 277.773H357.873H358.43C358.469 277.773 358.537 277.744 358.635 277.686C358.732 277.607 358.83 277.529 358.928 277.451C359.045 277.354 359.143 277.266 359.221 277.188C359.299 277.109 359.348 277.07 359.367 277.07C359.504 277.012 359.611 276.982 359.689 276.982C359.787 276.963 359.865 276.953 359.924 276.953C359.982 276.934 360.041 276.904 360.1 276.865C360.158 276.807 360.217 276.719 360.275 276.602C360.49 276.289 360.646 275.967 360.744 275.635C360.842 275.303 360.969 274.971 361.125 274.639C361.203 274.58 361.301 274.463 361.418 274.287C361.535 274.092 361.604 273.965 361.623 273.906C361.643 273.906 361.701 273.877 361.799 273.818C361.896 273.74 361.994 273.662 362.092 273.584C362.189 273.486 362.277 273.398 362.355 273.32C362.434 273.223 362.482 273.154 362.502 273.115C362.521 273.057 362.561 272.979 362.619 272.881C362.697 272.764 362.775 272.646 362.854 272.529C362.932 272.393 363 272.275 363.059 272.178C363.137 272.061 363.186 271.982 363.205 271.943C363.205 271.924 363.234 271.885 363.293 271.826C363.332 271.807 363.371 271.777 363.41 271.738C363.41 271.699 363.42 271.68 363.439 271.68H363.498C363.791 271.68 363.967 271.797 364.025 272.031C364.084 272.246 364.113 272.471 364.113 272.705V273.32C364.113 273.418 364.123 273.652 364.143 274.023C364.162 274.395 364.172 274.795 364.172 275.225C364.191 275.635 364.211 276.025 364.23 276.396C364.25 276.768 364.26 276.992 364.26 277.07V277.158C364.26 277.412 364.211 277.705 364.113 278.037C364.016 278.35 363.879 278.652 363.703 278.945C363.527 279.238 363.312 279.482 363.059 279.678C362.824 279.873 362.57 279.98 362.297 280C362.16 279.98 361.906 279.961 361.535 279.941C361.184 279.922 360.803 279.902 360.393 279.883C359.982 279.863 359.592 279.844 359.221 279.824C358.85 279.805 358.586 279.775 358.43 279.736H357.873H357.375C357.277 279.775 357.053 279.814 356.701 279.854C356.35 279.873 355.969 279.893 355.559 279.912C355.168 279.932 354.787 279.951 354.416 279.971C354.064 279.99 353.85 280 353.771 280H342.668C342.609 280.02 342.512 280.039 342.375 280.059C342.258 280.078 342.121 280.088 341.965 280.088C341.828 280.107 341.691 280.117 341.555 280.117C341.418 280.137 341.32 280.146 341.262 280.146C341.262 280.186 341.193 280.205 341.057 280.205C340.92 280.205 340.793 280.195 340.676 280.176C340.559 280.156 340.48 280.146 340.441 280.146C340.363 280.205 340.207 280.273 339.973 280.352C339.738 280.43 339.572 280.469 339.475 280.469C339.377 280.469 339.211 280.449 338.977 280.41C338.762 280.371 338.527 280.322 338.273 280.264C338.02 280.225 337.775 280.176 337.541 280.117C337.307 280.078 337.131 280.039 337.014 280ZM378.059 260.635C378.059 260.83 378.059 261.094 378.059 261.426C378.059 261.758 378.059 262.09 378.059 262.422C378.078 262.734 378.088 263.027 378.088 263.301C378.107 263.555 378.137 263.701 378.176 263.74C378.176 263.74 378.176 263.809 378.176 263.945C378.195 264.062 378.205 264.209 378.205 264.385C378.225 264.541 378.244 264.707 378.264 264.883C378.283 265.039 378.303 265.166 378.322 265.264C378.342 265.518 378.381 265.801 378.439 266.113C378.498 266.426 378.693 266.66 379.025 266.816C379.084 266.836 379.172 266.855 379.289 266.875C379.406 266.875 379.523 266.875 379.641 266.875C379.777 266.875 379.904 266.875 380.021 266.875C380.139 266.875 380.227 266.875 380.285 266.875C381.301 266.875 382.268 266.602 383.186 266.055C384.123 265.508 384.963 264.854 385.705 264.092C386.135 263.467 386.389 262.744 386.467 261.924C386.564 261.104 386.613 260.322 386.613 259.58V257.852C386.457 257.285 386.203 256.709 385.852 256.123C385.5 255.518 385.08 255.049 384.592 254.717C384.553 254.717 384.445 254.697 384.27 254.658C384.113 254.6 384.016 254.551 383.977 254.512C383.859 254.453 383.693 254.385 383.479 254.307C383.264 254.209 383.117 254.141 383.039 254.102C382.766 254.062 382.492 254.033 382.219 254.014C381.965 253.975 381.711 253.955 381.457 253.955C381.203 253.955 380.939 253.975 380.666 254.014C380.412 254.033 380.148 254.062 379.875 254.102C379.738 254.121 379.592 254.18 379.436 254.277C379.299 254.375 379.172 254.492 379.055 254.629C378.938 254.746 378.84 254.883 378.762 255.039C378.684 255.176 378.635 255.303 378.615 255.42C378.596 255.557 378.557 255.752 378.498 256.006C378.459 256.26 378.41 256.523 378.352 256.797C378.312 257.051 378.273 257.285 378.234 257.5C378.195 257.695 378.176 257.812 378.176 257.852C378.137 257.871 378.107 257.988 378.088 258.203C378.088 258.418 378.078 258.672 378.059 258.965C378.059 259.258 378.059 259.561 378.059 259.873C378.059 260.186 378.059 260.439 378.059 260.635ZM368.332 279.443C368.332 279.131 368.547 278.916 368.977 278.799C369.426 278.662 369.924 278.555 370.471 278.477C371.018 278.379 371.535 278.271 372.023 278.154C372.531 278.037 372.834 277.842 372.932 277.568C372.951 277.393 372.98 277.09 373.02 276.66C373.059 276.23 373.107 275.781 373.166 275.312C373.225 274.824 373.273 274.375 373.312 273.965C373.371 273.555 373.42 273.271 373.459 273.115V272.793C373.459 272.109 373.42 271.416 373.342 270.713C373.283 270.01 373.254 269.307 373.254 268.604V268.193C373.254 268.135 373.264 267.979 373.283 267.725C373.303 267.471 373.322 267.207 373.342 266.934C373.381 266.641 373.41 266.377 373.43 266.143C373.449 265.908 373.459 265.762 373.459 265.703C373.459 265.684 373.459 265.518 373.459 265.205C373.459 264.873 373.459 264.492 373.459 264.062C373.479 263.633 373.488 263.193 373.488 262.744C373.488 262.295 373.488 261.934 373.488 261.66C373.488 261.504 373.488 261.24 373.488 260.869C373.488 260.498 373.479 260.107 373.459 259.697C373.459 259.268 373.459 258.867 373.459 258.496C373.459 258.105 373.459 257.822 373.459 257.646C373.459 257.158 373.361 256.738 373.166 256.387C372.971 256.016 372.756 255.625 372.521 255.215C372.385 254.98 372.102 254.814 371.672 254.717C371.262 254.6 370.832 254.512 370.383 254.453C369.953 254.375 369.562 254.287 369.211 254.189C368.859 254.072 368.684 253.877 368.684 253.604C368.684 253.506 368.732 253.369 368.83 253.193C368.947 252.998 369.064 252.861 369.182 252.783H370.969C371.047 252.764 371.232 252.744 371.525 252.725C371.818 252.686 372.121 252.656 372.434 252.637C372.766 252.598 373.068 252.568 373.342 252.549C373.635 252.529 373.82 252.52 373.898 252.52H375.92C375.939 252.52 375.998 252.51 376.096 252.49C376.213 252.471 376.33 252.451 376.447 252.432C376.584 252.393 376.701 252.363 376.799 252.344C376.916 252.305 376.994 252.285 377.033 252.285H377.355H377.707C377.746 252.285 377.824 252.295 377.941 252.314C378.078 252.314 378.215 252.324 378.352 252.344C378.508 252.344 378.645 252.354 378.762 252.373C378.898 252.373 378.986 252.373 379.025 252.373C379.084 252.373 379.221 252.373 379.436 252.373C379.65 252.354 379.885 252.344 380.139 252.344C380.393 252.324 380.637 252.314 380.871 252.314C381.105 252.295 381.252 252.285 381.311 252.285H382.365H383.479C383.498 252.285 383.566 252.305 383.684 252.344C383.801 252.363 383.918 252.383 384.035 252.402C384.172 252.422 384.289 252.441 384.387 252.461C384.504 252.48 384.572 252.49 384.592 252.49C384.631 252.49 384.738 252.49 384.914 252.49C385.09 252.49 385.275 252.5 385.471 252.52C385.686 252.52 385.881 252.52 386.057 252.52C386.252 252.52 386.379 252.52 386.438 252.52C386.613 252.559 386.857 252.666 387.17 252.842C387.502 253.018 387.756 253.154 387.932 253.252C387.971 253.252 388.059 253.271 388.195 253.311C388.352 253.33 388.508 253.359 388.664 253.398C388.82 253.438 388.967 253.477 389.104 253.516C389.24 253.555 389.328 253.584 389.367 253.604C390.109 254.17 390.666 254.854 391.037 255.654C391.428 256.436 391.73 257.266 391.945 258.145C391.984 258.145 392.004 258.184 392.004 258.262C392.004 258.34 392.004 258.418 392.004 258.496C392.004 258.965 391.975 259.453 391.916 259.961C391.877 260.469 391.799 260.977 391.682 261.484C391.564 261.973 391.398 262.441 391.184 262.891C390.988 263.34 390.734 263.74 390.422 264.092C390.109 264.482 389.738 264.883 389.309 265.293C388.879 265.703 388.42 265.977 387.932 266.113C387.834 266.172 387.688 266.221 387.492 266.26C387.316 266.299 387.121 266.357 386.906 266.436C386.711 266.514 386.535 266.621 386.379 266.758C386.242 266.875 386.174 267.031 386.174 267.227C386.174 267.461 386.311 267.822 386.584 268.311C386.857 268.779 387.17 269.277 387.521 269.805C387.873 270.312 388.225 270.791 388.576 271.24C388.928 271.689 389.191 272.012 389.367 272.207C389.387 272.266 389.484 272.412 389.66 272.646C389.836 272.881 390.041 273.145 390.275 273.438C390.51 273.711 390.744 273.984 390.979 274.258C391.213 274.531 391.398 274.736 391.535 274.873C391.633 274.971 391.701 275.059 391.74 275.137C391.936 275.273 392.18 275.469 392.473 275.723C392.766 275.957 393.049 276.191 393.322 276.426C393.615 276.66 393.869 276.865 394.084 277.041C394.318 277.217 394.455 277.305 394.494 277.305C394.494 277.324 394.533 277.363 394.611 277.422C394.709 277.48 394.816 277.549 394.934 277.627C395.051 277.705 395.168 277.783 395.285 277.861C395.402 277.92 395.51 277.959 395.607 277.979C395.705 278.037 395.852 278.115 396.047 278.213C396.262 278.311 396.467 278.428 396.662 278.564C396.857 278.682 397.023 278.818 397.16 278.975C397.297 279.111 397.346 279.248 397.307 279.385C397.307 279.482 397.248 279.57 397.131 279.648C397.033 279.727 396.906 279.795 396.75 279.854C396.613 279.893 396.467 279.932 396.311 279.971C396.174 279.99 396.066 280 395.988 280H387.287C387.111 280 386.906 280 386.672 280C386.457 279.98 386.242 279.941 386.027 279.883C385.832 279.824 385.656 279.727 385.5 279.59C385.363 279.453 385.295 279.248 385.295 278.975C385.295 278.838 385.373 278.701 385.529 278.564C385.686 278.408 385.861 278.262 386.057 278.125C386.271 277.988 386.477 277.852 386.672 277.715C386.887 277.578 387.043 277.441 387.141 277.305V277.275V277.07C387.082 276.992 387.014 276.885 386.936 276.748C386.857 276.611 386.779 276.475 386.701 276.338C386.643 276.182 386.584 276.055 386.525 275.957C386.467 275.84 386.438 275.771 386.438 275.752C386.379 275.693 386.252 275.537 386.057 275.283C385.861 275.01 385.646 274.727 385.412 274.434C385.178 274.141 384.963 273.867 384.768 273.613C384.572 273.359 384.445 273.193 384.387 273.115C384.035 272.627 383.693 272.188 383.361 271.797C383.029 271.406 382.688 271.035 382.336 270.684C381.984 270.332 381.604 270 381.193 269.688C380.803 269.355 380.363 268.994 379.875 268.604C379.719 268.467 379.572 268.32 379.436 268.164C379.318 268.008 379.143 267.93 378.908 267.93H378.762C378.723 267.969 378.693 268.008 378.674 268.047C378.635 268.125 378.615 268.174 378.615 268.193C378.596 268.408 378.557 268.789 378.498 269.336C378.459 269.883 378.41 270.469 378.352 271.094C378.312 271.699 378.273 272.285 378.234 272.852C378.195 273.398 378.176 273.77 378.176 273.965C378.117 273.965 378.078 274.033 378.059 274.17C378.059 274.307 378.059 274.395 378.059 274.434C378.059 274.512 378.059 274.609 378.059 274.727C378.078 274.824 378.117 274.873 378.176 274.873C378.176 274.971 378.195 275.137 378.234 275.371C378.273 275.605 378.312 275.859 378.352 276.133C378.41 276.387 378.459 276.631 378.498 276.865C378.557 277.08 378.596 277.227 378.615 277.305C378.615 277.363 378.635 277.451 378.674 277.568C378.732 277.686 378.791 277.803 378.85 277.92C378.928 278.037 378.996 278.145 379.055 278.242C379.133 278.34 379.191 278.389 379.23 278.389H381.311C381.311 278.428 381.32 278.467 381.34 278.506C381.398 278.604 381.438 278.662 381.457 278.682C381.594 278.857 381.672 278.975 381.691 279.033C381.711 279.092 381.721 279.209 381.721 279.385C381.721 279.6 381.613 279.746 381.398 279.824C381.203 279.902 380.998 279.961 380.783 280H379.523C378.254 280 377.004 280.029 375.773 280.088C374.543 280.166 373.273 280.205 371.965 280.205H369.387C369.113 280.205 368.869 280.156 368.654 280.059C368.439 279.961 368.332 279.756 368.332 279.443ZM406.799 279.795C406.799 279.541 406.857 279.346 406.975 279.209C407.092 279.053 407.238 278.926 407.414 278.828C407.609 278.73 407.893 278.652 408.264 278.594C408.635 278.516 409.006 278.438 409.377 278.359C409.768 278.262 410.109 278.145 410.402 278.008C410.695 277.852 410.871 277.637 410.93 277.363V276.748V276.455C410.93 276.318 410.93 276.016 410.93 275.547C410.949 275.059 410.959 274.502 410.959 273.877C410.979 273.232 410.998 272.549 411.018 271.826C411.037 271.104 411.047 270.42 411.047 269.775C411.066 269.131 411.076 268.574 411.076 268.105C411.096 267.617 411.105 267.295 411.105 267.139V262.07V257.031C411.008 256.68 410.773 256.377 410.402 256.123C410.051 255.85 409.68 255.713 409.289 255.713H405.539C405.402 255.713 405.207 255.771 404.953 255.889C404.699 256.006 404.523 256.084 404.426 256.123C403.684 256.572 403.088 257.061 402.639 257.588C402.189 258.096 401.74 258.652 401.291 259.258C401.252 259.297 401.193 259.365 401.115 259.463C401.057 259.561 400.988 259.678 400.91 259.814C400.852 259.932 400.783 260.049 400.705 260.166C400.646 260.264 400.607 260.332 400.588 260.371C400.549 260.469 400.48 260.596 400.383 260.752C400.285 260.908 400.178 261.064 400.061 261.221C399.943 261.377 399.816 261.514 399.68 261.631C399.562 261.748 399.455 261.807 399.357 261.807C399.162 261.807 398.996 261.758 398.859 261.66C398.742 261.562 398.645 261.436 398.566 261.279C398.508 261.123 398.459 260.957 398.42 260.781C398.4 260.586 398.391 260.4 398.391 260.225C398.391 259.795 398.43 259.385 398.508 258.994C398.586 258.604 398.664 258.193 398.742 257.764C398.801 257.51 398.859 257.119 398.918 256.592C398.996 256.045 399.094 255.508 399.211 254.98C399.328 254.434 399.494 253.955 399.709 253.545C399.924 253.135 400.217 252.93 400.588 252.93C400.607 252.93 400.646 252.939 400.705 252.959C400.764 252.959 400.812 252.959 400.852 252.959C400.91 252.979 400.969 252.988 401.027 252.988C401.086 253.027 401.203 253.096 401.379 253.193C401.555 253.271 401.74 253.359 401.936 253.457C402.15 253.555 402.346 253.643 402.521 253.721C402.697 253.799 402.805 253.838 402.844 253.838C402.863 253.857 402.922 253.877 403.02 253.896C403.137 253.896 403.254 253.896 403.371 253.896C403.508 253.896 403.635 253.896 403.752 253.896C403.869 253.896 403.947 253.896 403.986 253.896C403.986 253.896 404.035 253.916 404.133 253.955C404.25 253.975 404.367 254.004 404.484 254.043C404.621 254.082 404.738 254.121 404.836 254.16C404.953 254.18 405.021 254.189 405.041 254.189C406.018 254.189 406.984 254.102 407.941 253.926C408.918 253.73 409.895 253.633 410.871 253.633C412.59 253.633 414.289 253.73 415.969 253.926C417.668 254.102 419.367 254.189 421.066 254.189H422.561C422.6 254.17 422.697 254.141 422.854 254.102C423.01 254.043 423.176 253.994 423.352 253.955C423.527 253.896 423.703 253.838 423.879 253.779C424.055 253.721 424.182 253.672 424.26 253.633C424.436 253.574 424.582 253.506 424.699 253.428C424.816 253.33 424.924 253.232 425.021 253.135C425.139 253.037 425.266 252.959 425.402 252.9C425.539 252.822 425.715 252.783 425.93 252.783C426.301 252.783 426.594 252.959 426.809 253.311C427.043 253.643 427.219 254.043 427.336 254.512C427.473 254.98 427.57 255.459 427.629 255.947C427.707 256.416 427.795 256.777 427.893 257.031C427.971 257.441 428.088 257.861 428.244 258.291C428.42 258.721 428.508 259.17 428.508 259.639C428.508 259.775 428.488 259.932 428.449 260.107C428.43 260.283 428.381 260.449 428.303 260.605C428.225 260.742 428.117 260.859 427.98 260.957C427.844 261.055 427.678 261.104 427.482 261.104C427.287 261.104 427.053 260.957 426.779 260.664C426.506 260.352 426.213 260.01 425.9 259.639C425.607 259.248 425.314 258.867 425.021 258.496C424.748 258.125 424.494 257.881 424.26 257.764C424.221 257.744 424.133 257.695 423.996 257.617C423.879 257.539 423.742 257.461 423.586 257.383C423.449 257.305 423.312 257.236 423.176 257.178C423.059 257.1 422.98 257.051 422.941 257.031C422.57 256.816 422.209 256.582 421.857 256.328C421.525 256.074 421.154 255.869 420.744 255.713C420.686 255.713 420.578 255.713 420.422 255.713C420.285 255.713 420.139 255.713 419.982 255.713C419.826 255.693 419.68 255.684 419.543 255.684C419.426 255.684 419.338 255.684 419.279 255.684H418.723C418.312 255.684 417.893 255.713 417.463 255.771C417.033 255.83 416.711 256.016 416.496 256.328C416.496 256.484 416.506 256.729 416.525 257.061C416.545 257.393 416.555 257.754 416.555 258.145C416.555 258.535 416.545 258.896 416.525 259.229C416.506 259.561 416.496 259.795 416.496 259.932C416.496 259.971 416.477 260.039 416.438 260.137C416.418 260.215 416.389 260.303 416.35 260.4C416.311 260.498 416.271 260.596 416.232 260.693C416.213 260.771 416.193 260.82 416.174 260.84V269.775C415.998 270.127 415.891 270.4 415.852 270.596C415.812 270.791 415.793 271.055 415.793 271.387V271.826C415.793 271.865 415.803 271.953 415.822 272.09C415.861 272.207 415.891 272.344 415.91 272.5C415.949 272.637 415.979 272.773 415.998 272.91C416.018 273.027 416.027 273.105 416.027 273.145V276.455C416.086 276.865 416.184 277.227 416.32 277.539C416.457 277.852 416.75 278.027 417.199 278.066C417.277 278.086 417.434 278.105 417.668 278.125C417.922 278.145 418.186 278.164 418.459 278.184C418.752 278.203 419.025 278.223 419.279 278.242C419.553 278.262 419.738 278.271 419.836 278.271C419.973 278.369 420.08 278.506 420.158 278.682C420.256 278.838 420.305 279.004 420.305 279.18C420.305 279.336 420.266 279.453 420.188 279.531C420.129 279.609 420.012 279.717 419.836 279.854C418.879 279.834 417.863 279.844 416.789 279.883C415.734 279.902 414.66 279.932 413.566 279.971C412.492 279.99 411.428 280.01 410.373 280.029C409.318 280.068 408.332 280.088 407.414 280.088C407.258 280.088 407.111 280.078 406.975 280.059C406.857 280.039 406.799 279.951 406.799 279.795Z" fill="#55FF05"/>
</svg>
